<svg width="64" height="64" viewBox="0 0 64 64" fill="none" xmlns="http://www.w3.org/2000/svg">
<rect width="64" height="64" rx="32" fill="#DCFF00"/>
<path d="M39.3857 34.7788C39.3819 34.7799 39.3785 34.7821 39.376 34.7853C39.3735 34.7884 39.372 34.7923 39.3718 34.7963C39.3716 34.8004 39.3726 34.8044 39.3748 34.8078C39.377 34.8112 39.3801 34.8138 39.3838 34.8152L47.9291 37.9484C47.9555 37.9577 47.9686 37.9767 47.9686 38.0052V40.5571C47.9686 40.5771 47.9598 40.5918 47.9423 40.6012C45.6253 41.7871 43.3065 42.9676 40.9857 44.1425C39.7057 44.7908 38.2726 45.0636 36.8966 44.6062C36.8761 44.5994 36.8592 44.605 36.8458 44.6228C35.5664 46.3667 34.1747 47.6474 32.2704 48.6234C30.0802 49.7468 27.8898 50.8691 25.6991 51.9904C25.677 52.0014 25.6542 52.0029 25.6307 51.9948L16.0383 48.5915C16.0128 48.5826 16 48.5644 16 48.5372V45.9687C16 45.9457 16.01 45.9291 16.0301 45.9189C18.2065 44.8062 20.3815 43.6926 22.555 42.5781C23.1843 42.2549 23.6599 41.9637 24.1569 41.5485C24.1778 41.531 24.1755 41.5178 24.15 41.5089L16.0477 38.6121C16.0264 38.6044 16.0157 38.5891 16.0157 38.5661V36.018C16.0157 35.9946 16.0264 35.9782 16.0477 35.9688L17.8359 35.1774C17.8736 35.1608 17.8729 35.1457 17.834 35.1321L16.0634 34.5003C16.0482 34.495 16.0351 34.4848 16.0258 34.4713C16.0166 34.4577 16.0117 34.4415 16.0119 34.4249L16.0351 32.0947C16.0351 32.0851 16.0378 32.0757 16.0428 32.0676C16.0478 32.0595 16.0549 32.0529 16.0634 32.0487C18.431 30.8312 20.8004 29.6178 23.1718 28.4084C23.5679 28.2066 24.0793 28.0428 24.7059 27.9172C24.7268 27.9129 24.7373 27.8999 24.7373 27.8782V27.6636C24.7373 27.6351 24.7241 27.6161 24.6977 27.6068L16.0627 24.5209C16.0418 24.5132 16.0314 24.4981 16.0314 24.4755V22.1485C16.0314 22.1298 16.0395 22.1161 16.0558 22.1076C18.4109 20.8986 20.767 19.6929 23.1241 18.4903C24.2911 17.895 25.7989 17.6669 27.1228 18.0936C27.145 18.1008 27.1628 18.0949 27.1762 18.0757C28.3087 16.4584 29.7531 15.1087 31.4685 14.2099C33.7186 13.0316 35.9684 11.8533 38.218 10.675C38.236 10.6656 38.2544 10.6641 38.2733 10.6705L47.968 14.0253C47.9893 14.0325 48 14.0475 48 14.07V16.5376C48 16.5559 47.9921 16.5691 47.9762 16.5772C45.7504 17.7138 43.525 18.8499 41.3001 19.9856C40.7425 20.2701 40.2328 20.6142 39.771 21.0179C39.7484 21.0375 39.7511 21.0524 39.7791 21.0626L47.9586 23.9939C47.9757 24.0003 47.9843 24.0128 47.9843 24.0316V26.4844C47.9843 26.5023 47.9766 26.5153 47.9611 26.5234L46.3969 27.3263C46.3931 27.3284 46.39 27.3314 46.3879 27.3352C46.3858 27.3389 46.3848 27.3432 46.385 27.3475C46.3852 27.3517 46.3866 27.3558 46.389 27.3592C46.3915 27.3626 46.3948 27.3651 46.3987 27.3666L47.9504 27.9364C47.973 27.9444 47.9843 27.9608 47.9843 27.9855V30.5968C47.9843 30.6198 47.9743 30.6364 47.9542 30.6466C45.7726 31.7696 43.5715 32.8606 41.4055 34.0097C40.7621 34.3513 40.0889 34.6076 39.3857 34.7788ZM27.7352 18.3242L36.6463 21.4682C36.658 21.4723 36.6708 21.4724 36.6826 21.4685C36.6945 21.4646 36.7048 21.4569 36.7122 21.4465C37.8284 19.8694 39.2653 18.4948 40.9744 17.6145C43.0567 16.5423 45.1409 15.4738 47.227 14.4092C47.2298 14.4079 47.2322 14.4058 47.2338 14.403C47.2354 14.4003 47.2361 14.3972 47.2359 14.3939C47.2357 14.3907 47.2346 14.3876 47.2327 14.385C47.2307 14.3824 47.2281 14.3803 47.2251 14.3792L38.3216 11.3042C38.3031 11.298 38.2828 11.2996 38.2651 11.3086C36.074 12.4567 33.8821 13.6054 31.6894 14.7548C30.1114 15.582 28.7598 16.848 27.7283 18.3018C27.7204 18.3125 27.7227 18.3199 27.7352 18.3242ZM17.0717 22.266L25.8478 25.3404C25.8591 25.3447 25.87 25.344 25.8805 25.3385C28.0954 24.2036 30.299 23.0792 32.4913 21.9652C33.0941 21.6594 33.7267 21.4431 34.3893 21.3162C34.3922 21.3155 34.3948 21.3139 34.3968 21.3116C34.3987 21.3093 34.3998 21.3065 34.4 21.3035C34.4003 21.3005 34.3995 21.2975 34.3979 21.2949C34.3963 21.2924 34.394 21.2904 34.3912 21.2894C31.9672 20.4368 29.5408 19.5802 27.1122 18.7196C26.7248 18.5825 26.4084 18.4997 26.1628 18.4711C25.1915 18.36 24.0916 18.6474 23.2464 19.0792C21.1863 20.1328 19.1283 21.1869 17.0723 22.2418C17.07 22.243 17.0681 22.2449 17.0667 22.2471C17.0653 22.2493 17.0645 22.2519 17.0645 22.2544C17.0644 22.257 17.065 22.2594 17.0663 22.2615C17.0676 22.2635 17.0695 22.2651 17.0717 22.266ZM47.1799 24.3344L39.2709 21.4995C39.2454 21.4906 39.2241 21.4963 39.2069 21.5168L38.3216 22.565C38.3156 22.5721 38.3122 22.5811 38.3121 22.5906C38.312 22.6 38.3151 22.6093 38.3209 22.6167C39.6141 24.2513 39.7346 26.4327 39.4478 28.4378C39.4399 28.494 39.4583 28.5053 39.5031 28.4716C39.9893 28.1075 40.4687 27.8137 41.051 27.5148C43.1002 26.4625 45.1441 25.4156 47.1824 24.374C47.2121 24.3586 47.2113 24.3454 47.1799 24.3344ZM16.6118 24.084C16.6118 24.0901 16.6137 24.0961 16.6171 24.1011C16.6206 24.1062 16.6255 24.11 16.6312 24.1121L25.5291 27.2938C25.5335 27.2954 25.5383 27.2959 25.543 27.2953C25.5477 27.2947 25.5521 27.2929 25.556 27.2901C25.5599 27.2874 25.5631 27.2837 25.5653 27.2795C25.5675 27.2752 25.5686 27.2705 25.5686 27.2657V25.8821C25.5687 25.8757 25.5668 25.8696 25.5632 25.8644C25.5596 25.8592 25.5544 25.8554 25.5485 25.8533L16.6507 22.7355C16.6462 22.734 16.6415 22.7336 16.6368 22.7343C16.6322 22.735 16.6277 22.7369 16.6239 22.7397C16.6201 22.7425 16.617 22.7462 16.6149 22.7505C16.6128 22.7547 16.6117 22.7595 16.6118 22.7643V24.084ZM25.3333 27.9459L34.0995 31.0555C34.1179 31.0618 34.1256 31.0552 34.1227 31.0356C33.75 28.6154 34.2017 26.2149 35.2226 24.015C35.2322 23.995 35.2261 23.982 35.2044 23.976C34.4113 23.7697 33.5103 23.9894 32.768 24.365C30.4092 25.5582 28.0512 26.7534 25.6941 27.9504C25.6753 27.9598 25.6558 27.9613 25.6358 27.9549C25.5462 27.9263 25.4582 27.8942 25.3716 27.8584C25.3515 27.8503 25.3356 27.8482 25.3239 27.852C25.3022 27.8597 25.2955 27.8804 25.3038 27.914C25.3058 27.9213 25.3095 27.928 25.3146 27.9335C25.3198 27.9391 25.3262 27.9434 25.3333 27.9459ZM36.8069 25.3819C36.2202 26.9903 35.9818 29.044 36.6971 30.5904C36.6982 30.5927 36.7 30.5946 36.7021 30.5959C36.7043 30.5972 36.7067 30.5979 36.7092 30.5978C36.7117 30.5977 36.7142 30.597 36.7162 30.5955C36.7183 30.5941 36.7199 30.5921 36.7209 30.5898C37.3277 29.014 37.5906 26.9169 36.8596 25.3334C36.8577 25.3288 36.8543 25.325 36.85 25.3226C36.8457 25.3203 36.8407 25.3194 36.8359 25.3202C36.8311 25.321 36.8266 25.3234 36.8233 25.3271C36.82 25.3308 36.818 25.3354 36.8176 25.3404C36.8167 25.3506 36.8132 25.3645 36.8069 25.3819ZM38.8097 32.0283C39.4593 32.0479 40.0862 31.9046 40.6902 31.5984C42.8532 30.5031 45.0112 29.4023 47.1642 28.296C47.1667 28.2947 47.1688 28.2927 47.1702 28.2903C47.1716 28.2878 47.1723 28.285 47.1722 28.2822C47.172 28.2793 47.1711 28.2766 47.1695 28.2743C47.1678 28.272 47.1656 28.2702 47.163 28.2692L45.6772 27.7224C45.6563 27.7147 45.636 27.716 45.6163 27.7262C44.2811 28.4088 42.9465 29.0927 41.6126 29.7779C40.48 30.3592 39.6028 30.9737 38.7758 31.9491C38.7328 32.0002 38.7441 32.0266 38.8097 32.0283ZM17.0497 32.2384L25.7242 35.3154C25.7407 35.3212 25.7581 35.3237 25.7755 35.3226C25.7928 35.3215 25.8098 35.3169 25.8253 35.309C28.0841 34.1503 30.3488 32.9975 32.6193 31.8507C32.8975 31.7102 33.1838 31.589 33.4783 31.4873C33.4817 31.486 33.4847 31.4837 33.4868 31.4807C33.489 31.4777 33.4902 31.4741 33.4902 31.4704C33.4903 31.4668 33.4893 31.4632 33.4872 31.4603C33.4852 31.4574 33.4823 31.4552 33.4789 31.454C30.698 30.4674 27.9142 29.4798 25.1275 28.4914C24.7341 28.3522 23.5369 28.8741 23.1705 29.0612C21.1321 30.1058 19.0908 31.1502 17.0466 32.1944C17.0424 32.1964 17.039 32.1996 17.0367 32.2037C17.0344 32.2077 17.0334 32.2124 17.0337 32.2171C17.034 32.2218 17.0357 32.2263 17.0386 32.2301C17.0414 32.2339 17.0453 32.2368 17.0497 32.2384ZM16.5961 34.0474C16.5961 34.0543 16.5982 34.061 16.6022 34.0666C16.6061 34.0723 16.6116 34.0765 16.618 34.0787L25.5096 37.2489C25.5146 37.2507 25.5198 37.2512 25.5249 37.2504C25.5301 37.2497 25.535 37.2477 25.5392 37.2446C25.5434 37.2416 25.5469 37.2375 25.5493 37.2328C25.5517 37.2281 25.5529 37.2229 25.5529 37.2176V35.8973C25.5529 35.8904 25.5508 35.8837 25.5469 35.8781C25.5429 35.8725 25.5374 35.8682 25.531 35.866L16.6394 32.7124C16.6345 32.7107 16.6292 32.7102 16.6241 32.7109C16.6189 32.7117 16.614 32.7137 16.6098 32.7167C16.6056 32.7198 16.6021 32.7238 16.5997 32.7285C16.5973 32.7332 16.5961 32.7384 16.5961 32.7437V34.0474ZM17.0491 36.1918L25.6922 39.2457C25.7091 39.2516 25.727 39.254 25.7447 39.2528C25.7625 39.2516 25.7799 39.2468 25.7958 39.2387C27.7936 38.2179 29.7947 37.1938 31.7992 36.1662C32.9776 35.5626 33.9351 34.9302 34.7934 33.8871C34.7964 33.8836 34.7984 33.8792 34.7991 33.8746C34.7997 33.87 34.799 33.8652 34.7971 33.861C34.7952 33.8567 34.7921 33.8531 34.7882 33.8506C34.7843 33.8481 34.7798 33.8468 34.7752 33.8469C33.829 33.8302 33.194 34.0902 32.2679 34.5642C30.0932 35.6756 27.9184 36.7877 25.7449 37.9017C25.7244 37.9124 25.7031 37.9139 25.6809 37.9062L18.6867 35.4361C18.6602 35.4267 18.6312 35.4281 18.6058 35.4399L17.0472 36.1515C17.015 36.1664 17.0156 36.1798 17.0491 36.1918ZM36.7906 35.3626C36.2033 36.9423 35.9843 38.8867 36.6664 40.5303C36.6682 40.5346 36.6713 40.5383 36.6753 40.5409C36.6792 40.5435 36.6838 40.5448 36.6885 40.5448C36.6932 40.5447 36.6978 40.5432 36.7016 40.5405C36.7055 40.5378 36.7085 40.534 36.7103 40.5296C37.3239 38.9391 37.563 36.9206 36.8602 35.3109C36.8579 35.3054 36.8542 35.3006 36.8495 35.2969C36.8448 35.2933 36.8392 35.2909 36.8333 35.2901C36.8275 35.2893 36.8215 35.29 36.816 35.2922C36.8105 35.2944 36.8056 35.2979 36.8019 35.3026C36.7969 35.3086 36.7946 35.3186 36.795 35.3326C36.7954 35.3446 36.7939 35.3546 36.7906 35.3626ZM38.432 41.9311C39.4253 42.0952 40.2359 41.7867 41.1231 41.3326C43.1055 40.3186 45.0857 39.3055 47.0638 38.2933C47.0678 38.2914 47.0712 38.2883 47.0734 38.2845C47.0757 38.2806 47.0767 38.2762 47.0765 38.2717C47.0762 38.2672 47.0746 38.2629 47.0719 38.2594C47.0692 38.2558 47.0655 38.2532 47.0613 38.2518L39.5012 35.4783C39.4992 35.4775 39.497 35.4772 39.4949 35.4776C39.4927 35.4779 39.4907 35.4788 39.489 35.4801C39.4873 35.4815 39.486 35.4832 39.4851 35.4853C39.4843 35.4873 39.484 35.4895 39.4842 35.4917C39.7195 37.705 39.3017 39.8672 38.4057 41.8806C38.4033 41.8856 38.4022 41.8911 38.4024 41.8967C38.4025 41.9022 38.4039 41.9076 38.4065 41.9125C38.409 41.9174 38.4127 41.9217 38.4171 41.9249C38.4215 41.9281 38.4266 41.9302 38.432 41.9311ZM16.5766 38.1662C16.5766 38.1711 16.5781 38.1759 16.581 38.1799C16.5838 38.1839 16.5877 38.187 16.5923 38.1886L25.5222 41.3773C25.5257 41.3785 25.5294 41.3788 25.5331 41.3783C25.5367 41.3778 25.5402 41.3763 25.5432 41.3741C25.5462 41.372 25.5487 41.3691 25.5504 41.3657C25.5521 41.3624 25.5529 41.3587 25.5529 41.3549V39.8327C25.5529 39.8278 25.5514 39.823 25.5486 39.819C25.5458 39.815 25.5418 39.812 25.5373 39.8104L16.6199 36.5993C16.6164 36.5981 16.6127 36.5977 16.609 36.5983C16.6054 36.5988 16.6019 36.6002 16.5989 36.6024C16.5959 36.6046 16.5934 36.6075 16.5917 36.6108C16.5901 36.6142 16.5892 36.6179 16.5892 36.6217L16.5766 38.1662ZM32.9682 45.4635C33.797 44.9224 34.5343 44.2032 35.1373 43.4015C35.1506 43.3836 35.1504 43.3657 35.1366 43.3479C33.9062 41.7599 33.8165 39.5165 34.0995 37.606C34.1001 37.6022 34.0997 37.5982 34.0981 37.5947C34.0965 37.5911 34.0939 37.5882 34.0907 37.5862C34.0874 37.5842 34.0836 37.5832 34.0798 37.5834C34.076 37.5837 34.0723 37.5851 34.0693 37.5875C33.509 38.0065 32.987 38.3144 32.3037 38.6638C30.1093 39.7884 27.914 40.9131 25.718 42.0378C25.707 42.0432 25.6952 42.0464 25.6831 42.0472C25.6711 42.0479 25.659 42.0463 25.6477 42.0422L24.8445 41.758C24.8211 41.7499 24.8004 41.7541 24.7824 41.7707C24.2478 42.2596 23.7195 42.6376 23.1975 42.9046C21.1495 43.9534 19.1042 45.0012 17.0616 46.0479C17.0583 46.0496 17.0555 46.0522 17.0537 46.0554C17.0518 46.0587 17.051 46.0625 17.0512 46.0663C17.0515 46.0701 17.0529 46.0738 17.0552 46.0769C17.0575 46.08 17.0606 46.0823 17.0642 46.0837L25.7644 49.1689C25.7866 49.1766 25.8081 49.1751 25.829 49.1645C27.8419 48.1386 29.8543 47.1083 31.8664 46.0735C32.3942 45.8018 32.7615 45.5984 32.9682 45.4635ZM16.5804 48.1431C16.5804 48.1496 16.5824 48.1559 16.5862 48.1611C16.5899 48.1664 16.5951 48.1703 16.6011 48.1725L25.4965 51.328C25.5011 51.3296 25.506 51.3301 25.5108 51.3294C25.5157 51.3287 25.5203 51.3268 25.5243 51.3239C25.5283 51.3211 25.5315 51.3173 25.5338 51.3129C25.536 51.3084 25.5372 51.3036 25.5373 51.2986V49.7298C25.5372 49.7233 25.5352 49.717 25.5315 49.7117C25.5278 49.7065 25.5226 49.7025 25.5166 49.7004L16.6212 46.5455C16.6166 46.5439 16.6116 46.5434 16.6068 46.5441C16.602 46.5448 16.5974 46.5467 16.5934 46.5496C16.5894 46.5524 16.5861 46.5562 16.5839 46.5606C16.5816 46.565 16.5804 46.5699 16.5804 46.5749V48.1431Z" fill="black"/>
<path d="M27.7342 18.3243C27.7216 18.32 27.7193 18.3126 27.7273 18.3019C28.7588 16.8481 30.1103 15.582 31.6884 14.7548C33.8811 13.6055 36.073 12.4568 38.2641 11.3087C38.2818 11.2997 38.3021 11.2981 38.3205 11.3042L47.2241 14.3792C47.2271 14.3804 47.2297 14.3824 47.2316 14.3851C47.2335 14.3877 47.2347 14.3908 47.2349 14.394C47.2351 14.3972 47.2343 14.4004 47.2328 14.4031C47.2312 14.4058 47.2288 14.408 47.2259 14.4093C45.1399 15.4739 43.0557 16.5423 40.9734 17.6146C39.2642 18.4948 37.8274 19.8694 36.7111 21.4466C36.7038 21.4569 36.6935 21.4646 36.6816 21.4686C36.6697 21.4725 36.657 21.4724 36.6452 21.4683L27.7342 18.3243Z" fill="#DCFF00"/>
<path d="M25.8498 25.3404L17.0736 22.266C17.0714 22.2651 17.0695 22.2635 17.0683 22.2615C17.067 22.2594 17.0663 22.257 17.0664 22.2544C17.0665 22.2519 17.0672 22.2493 17.0686 22.2471C17.07 22.2449 17.072 22.243 17.0743 22.2418C19.1302 21.1869 21.1882 20.1328 23.2484 19.0792C24.0936 18.6474 25.1935 18.36 26.1648 18.4711C26.4103 18.4997 26.7268 18.5825 27.1141 18.7196C29.5428 19.5802 31.9691 20.4368 34.3932 21.2894C34.3959 21.2904 34.3983 21.2924 34.3999 21.2949C34.4015 21.2975 34.4022 21.3005 34.402 21.3035C34.4018 21.3065 34.4006 21.3094 34.3987 21.3116C34.3968 21.3139 34.3942 21.3155 34.3913 21.3162C33.7287 21.4431 33.096 21.6594 32.4932 21.9652C30.3009 23.0792 28.0973 24.2036 25.8824 25.3385C25.872 25.344 25.8611 25.3447 25.8498 25.3404Z" fill="#DCFF00"/>
<path d="M47.1803 24.3344C47.2117 24.3455 47.2125 24.3587 47.1828 24.374C45.1445 25.4156 43.1006 26.4626 41.0514 27.5148C40.4691 27.8138 39.9897 28.1076 39.5035 28.4717C39.4587 28.5053 39.4403 28.4941 39.4482 28.4378C39.735 26.4328 39.6145 24.2514 38.3213 22.6168C38.3155 22.6093 38.3124 22.6001 38.3125 22.5906C38.3126 22.5812 38.316 22.5721 38.322 22.565L39.2073 21.5168C39.2245 21.4964 39.2458 21.4906 39.2713 21.4996L47.1803 24.3344Z" fill="#DCFF00"/>
<path d="M16.6133 24.0839V22.7642C16.6132 22.7594 16.6143 22.7547 16.6164 22.7504C16.6186 22.7461 16.6216 22.7424 16.6254 22.7396C16.6293 22.7368 16.6337 22.735 16.6383 22.7342C16.643 22.7335 16.6477 22.7339 16.6522 22.7355L25.5501 25.8533C25.556 25.8553 25.5611 25.8592 25.5647 25.8643C25.5683 25.8695 25.5702 25.8757 25.5701 25.882V27.2656C25.5701 27.2704 25.569 27.2751 25.5668 27.2794C25.5646 27.2837 25.5614 27.2873 25.5575 27.2901C25.5537 27.2928 25.5492 27.2946 25.5445 27.2952C25.5398 27.2959 25.5351 27.2953 25.5306 27.2937L16.6327 24.112C16.6271 24.1099 16.6221 24.1061 16.6187 24.1011C16.6152 24.096 16.6133 24.09 16.6133 24.0839Z" fill="#DCFF00"/>
<path d="M25.3338 27.946C25.3266 27.9434 25.3202 27.9391 25.3151 27.9336C25.3099 27.928 25.3062 27.9213 25.3043 27.914C25.2959 27.8804 25.3026 27.8597 25.3243 27.8521C25.3361 27.8482 25.352 27.8504 25.372 27.8584C25.4586 27.8942 25.5467 27.9264 25.6362 27.9549C25.6563 27.9613 25.6757 27.9598 25.6945 27.9504C28.0517 26.7534 30.4096 25.5582 32.7684 24.365C33.5107 23.9894 34.4117 23.7697 35.2048 23.976C35.2266 23.982 35.2326 23.995 35.223 24.015C34.2021 26.2149 33.7504 28.6154 34.1231 31.0357C34.126 31.0553 34.1183 31.0619 34.0999 31.0555L25.3338 27.946Z" fill="#DCFF00"/>
<path d="M36.8056 25.382C36.8119 25.3645 36.8154 25.3507 36.8163 25.3405C36.8167 25.3355 36.8187 25.3308 36.822 25.3271C36.8253 25.3235 36.8298 25.321 36.8346 25.3202C36.8394 25.3194 36.8444 25.3203 36.8487 25.3227C36.853 25.3251 36.8564 25.3289 36.8583 25.3334C37.5893 26.9169 37.3264 29.014 36.7196 30.5898C36.7186 30.5922 36.717 30.5942 36.7149 30.5956C36.7129 30.597 36.7104 30.5978 36.7079 30.5979C36.7054 30.5979 36.703 30.5973 36.7008 30.596C36.6987 30.5946 36.6969 30.5927 36.6958 30.5905C35.9805 29.044 36.2189 26.9904 36.8056 25.382Z" fill="#DCFF00"/>
<path d="M38.8095 32.0283C38.7438 32.0266 38.7325 32.0002 38.7756 31.9491C39.6026 30.9737 40.4798 30.3592 41.6123 29.7779C42.9463 29.0927 44.2809 28.4088 45.6161 27.7262C45.6357 27.7159 45.656 27.7147 45.6769 27.7223L47.1627 28.2691C47.1653 28.2701 47.1676 28.2719 47.1692 28.2742C47.1709 28.2765 47.1718 28.2793 47.1719 28.2821C47.1721 28.285 47.1714 28.2878 47.17 28.2902C47.1686 28.2927 47.1665 28.2947 47.164 28.2959C45.011 29.4023 42.853 30.5031 40.69 31.5984C40.0859 31.9046 39.4591 32.0478 38.8095 32.0283Z" fill="#DCFF00"/>
<path d="M25.7257 35.3154L17.0512 32.2385C17.0468 32.2368 17.0429 32.234 17.0401 32.2302C17.0373 32.2264 17.0356 32.2218 17.0352 32.2171C17.0349 32.2124 17.0359 32.2077 17.0382 32.2037C17.0405 32.1996 17.0439 32.1964 17.0481 32.1944C19.0923 31.1502 21.1336 30.1058 23.172 29.0612C23.5384 28.8741 24.7356 28.3522 25.129 28.4915C27.9158 29.4798 30.6995 30.4674 33.4804 31.4541C33.4838 31.4552 33.4867 31.4574 33.4887 31.4603C33.4908 31.4633 33.4918 31.4668 33.4917 31.4705C33.4917 31.4741 33.4905 31.4777 33.4883 31.4807C33.4862 31.4837 33.4832 31.486 33.4798 31.4873C33.1853 31.5891 32.899 31.7102 32.6208 31.8507C30.3503 32.9975 28.0856 34.1503 25.8268 35.309C25.8113 35.3169 25.7943 35.3215 25.777 35.3226C25.7596 35.3237 25.7422 35.3213 25.7257 35.3154Z" fill="#DCFF00"/>
<path d="M16.5977 34.0474V32.7437C16.5977 32.7384 16.5989 32.7332 16.6013 32.7285C16.6037 32.7238 16.6072 32.7198 16.6114 32.7167C16.6156 32.7136 16.6205 32.7117 16.6257 32.7109C16.6308 32.7102 16.636 32.7107 16.641 32.7124L25.5326 35.866C25.539 35.8682 25.5445 35.8725 25.5484 35.8781C25.5524 35.8837 25.5545 35.8904 25.5545 35.8973V37.2176C25.5545 37.2229 25.5533 37.2281 25.5509 37.2328C25.5485 37.2375 25.545 37.2415 25.5408 37.2446C25.5365 37.2477 25.5317 37.2497 25.5265 37.2504C25.5214 37.2512 25.5161 37.2506 25.5112 37.2489L16.6196 34.0787C16.6132 34.0765 16.6077 34.0722 16.6037 34.0666C16.5998 34.061 16.5977 34.0543 16.5977 34.0474Z" fill="#DCFF00"/>
<path d="M25.6922 39.2457L17.049 36.1917C17.0156 36.1798 17.0149 36.1664 17.0471 36.1515L18.6057 35.4399C18.6311 35.428 18.6601 35.4267 18.6867 35.4361L25.6809 37.9062C25.703 37.9138 25.7244 37.9124 25.7449 37.9017C27.9183 36.7877 30.0931 35.6756 32.2678 34.5642C33.194 34.0902 33.8289 33.8302 34.7751 33.8468C34.7797 33.8468 34.7842 33.8481 34.7881 33.8506C34.792 33.8531 34.7951 33.8567 34.797 33.8609C34.799 33.8652 34.7996 33.8699 34.799 33.8746C34.7983 33.8792 34.7964 33.8835 34.7933 33.8871C33.935 34.9302 32.9775 35.5625 31.7991 36.1662C29.7946 37.1937 27.7935 38.2179 25.7957 39.2386C25.7798 39.2467 25.7624 39.2515 25.7447 39.2527C25.7269 39.2539 25.709 39.2515 25.6922 39.2457Z" fill="#DCFF00"/>
<path d="M36.7932 35.3327C36.7928 35.3186 36.7951 35.3086 36.8001 35.3027C36.8039 35.298 36.8088 35.2944 36.8143 35.2922C36.8198 35.29 36.8257 35.2893 36.8316 35.2901C36.8375 35.291 36.843 35.2933 36.8477 35.297C36.8524 35.3006 36.8561 35.3054 36.8585 35.311C37.5612 36.9206 37.3222 38.9391 36.7085 40.5297C36.7068 40.5341 36.7038 40.5379 36.6999 40.5406C36.696 40.5433 36.6915 40.5448 36.6868 40.5448C36.6821 40.5449 36.6775 40.5436 36.6736 40.541C36.6696 40.5384 36.6665 40.5347 36.6646 40.5303C35.9826 38.8868 36.2016 36.9424 36.7888 35.3627C36.7922 35.3546 36.7937 35.3446 36.7932 35.3327Z" fill="#DCFF00"/>
<path d="M38.432 41.9311C38.4266 41.9302 38.4215 41.9281 38.4171 41.9249C38.4126 41.9216 38.409 41.9174 38.4065 41.9125C38.4039 41.9076 38.4025 41.9022 38.4024 41.8967C38.4022 41.8911 38.4033 41.8856 38.4056 41.8806C39.3016 39.8672 39.7195 37.705 39.4842 35.4917C39.484 35.4895 39.4843 35.4873 39.4851 35.4853C39.486 35.4832 39.4873 35.4815 39.489 35.4801C39.4907 35.4788 39.4927 35.4779 39.4948 35.4776C39.497 35.4772 39.4992 35.4775 39.5012 35.4783L47.0613 38.2518C47.0655 38.2532 47.0692 38.2558 47.0719 38.2594C47.0746 38.2629 47.0762 38.2672 47.0765 38.2717C47.0767 38.2762 47.0757 38.2806 47.0734 38.2845C47.0712 38.2883 47.0678 38.2914 47.0638 38.2933C45.0857 39.3055 43.1055 40.3186 41.1231 41.3325C40.2359 41.7867 39.4253 42.0952 38.432 41.9311Z" fill="#DCFF00"/>
<path d="M16.5781 38.1662L16.5907 36.6217C16.5907 36.6179 16.5916 36.6142 16.5932 36.6108C16.5949 36.6075 16.5974 36.6046 16.6004 36.6024C16.6034 36.6002 16.6069 36.5988 16.6105 36.5983C16.6142 36.5977 16.6179 36.5981 16.6214 36.5993L25.5388 39.8104C25.5433 39.812 25.5473 39.815 25.5501 39.819C25.5529 39.823 25.5544 39.8278 25.5544 39.8327V41.3549C25.5544 41.3587 25.5536 41.3624 25.5519 41.3657C25.5502 41.3691 25.5477 41.372 25.5447 41.3741C25.5417 41.3763 25.5382 41.3778 25.5346 41.3783C25.5309 41.3788 25.5272 41.3785 25.5237 41.3773L16.5938 38.1885C16.5892 38.187 16.5853 38.1839 16.5824 38.1799C16.5796 38.1759 16.5781 38.1711 16.5781 38.1662Z" fill="#DCFF00"/>
<path d="M35.1368 43.4015C34.5339 44.2031 33.7966 44.9224 32.9677 45.4634C32.7611 45.5984 32.3938 45.8018 31.8659 46.0735C29.8539 47.1083 27.8415 48.1386 25.8286 49.1644C25.8077 49.1751 25.7862 49.1766 25.764 49.1689L17.0637 46.0837C17.0602 46.0823 17.0571 46.0799 17.0548 46.0768C17.0525 46.0737 17.0511 46.0701 17.0508 46.0662C17.0506 46.0624 17.0514 46.0587 17.0533 46.0554C17.0551 46.0521 17.0579 46.0495 17.0612 46.0479C19.1038 45.0012 21.1491 43.9534 23.1971 42.9045C23.7191 42.6375 24.2474 42.2596 24.782 41.7707C24.8 41.7541 24.8207 41.7499 24.8441 41.7579L25.6473 42.0422C25.6586 42.0462 25.6706 42.0479 25.6827 42.0471C25.6948 42.0464 25.7066 42.0432 25.7175 42.0377C27.9136 40.9131 30.1089 39.7884 32.3033 38.6638C32.9866 38.3144 33.5086 38.0065 34.0689 37.5874C34.0719 37.585 34.0756 37.5836 34.0794 37.5834C34.0832 37.5832 34.087 37.5841 34.0903 37.5861C34.0935 37.5881 34.0961 37.5911 34.0977 37.5947C34.0992 37.5982 34.0997 37.6021 34.099 37.606C33.8161 39.5165 33.9058 41.7599 35.1362 43.3478C35.15 43.3657 35.1502 43.3836 35.1368 43.4015Z" fill="#DCFF00"/>
<path d="M16.582 48.1431V46.5749C16.5821 46.57 16.5833 46.5651 16.5855 46.5606C16.5878 46.5562 16.591 46.5524 16.595 46.5496C16.599 46.5467 16.6036 46.5448 16.6084 46.5441C16.6133 46.5434 16.6182 46.5439 16.6228 46.5455L25.5182 49.7004C25.5242 49.7025 25.5294 49.7065 25.5331 49.7117C25.5368 49.717 25.5389 49.7233 25.5389 49.7298V51.2986C25.5389 51.3036 25.5377 51.3085 25.5354 51.3129C25.5332 51.3173 25.5299 51.3211 25.5259 51.3239C25.5219 51.3268 25.5173 51.3287 25.5125 51.3294C25.5077 51.3301 25.5027 51.3296 25.4981 51.328L16.6027 48.1725C16.5967 48.1704 16.5915 48.1664 16.5878 48.1611C16.5841 48.1559 16.5821 48.1496 16.582 48.1431Z" fill="#DCFF00"/>
</svg>
