<svg width="38" height="20" viewBox="0 0 38 20" fill="none" xmlns="http://www.w3.org/2000/svg">
<path d="M28.9891 4.08668C28.7575 4.09099 28.8818 4.17725 28.8587 4.4025C28.4691 3.96691 29.0434 2.97518 28.5127 2.65122C28.7066 3.18583 28.5069 3.8027 28.6313 4.26366C28.0653 4.9691 27.8173 5.9207 27.3398 6.61769C27.1756 6.57987 27.1799 6.81142 26.9735 6.70626C26.942 6.8431 27.0452 6.89568 26.9863 7.02622L26.7674 6.97579C26.8307 7.45152 26.1234 7.51918 26.0037 8.03918C25.6037 8.14882 25.3871 8.58887 25.0988 8.8395C25.0167 8.82058 24.9978 8.90269 24.9789 8.9848C24.7725 8.87963 24.7769 9.11119 24.6821 9.14701C24.84 9.2122 24.9411 9.14901 24.9789 8.9848C25.0336 8.9974 25.0588 8.88793 25.0988 8.8395C25.5093 8.93405 25.2861 8.65206 25.5576 8.59932C25.5324 8.7088 25.5409 8.79721 25.583 8.86455C25.4672 8.86671 25.3936 8.9362 25.3621 9.07305C26.6842 9.46403 28.2545 9.27812 29.745 9.56378C29.7261 9.64589 29.8082 9.6648 29.863 9.67741C29.8714 9.76582 29.9325 9.75106 29.9451 9.69632L30.1093 9.73414C30.1008 9.64573 29.964 9.61421 29.9451 9.69632L29.863 9.67741C29.8819 9.5953 29.7935 9.60376 29.745 9.56378C29.6712 9.25858 29.2333 9.15772 29.0585 8.91571C29.1763 8.65463 29.1026 8.72413 29.2478 8.46935C29.3362 8.46089 29.2941 8.39355 29.2667 8.38725C29.2582 8.29883 29.1887 8.22519 29.1403 8.18521C29.1992 8.05467 29.315 8.05252 29.4792 8.09034C29.5507 7.90506 29.1907 7.96626 29.3296 7.73885L29.4117 7.75777C29.4138 7.87354 29.4938 7.77668 29.4117 7.75777C29.4221 7.58725 29.5042 7.60616 29.5674 7.70718C29.7106 7.71133 29.6263 7.57664 29.5505 7.53036C29.7884 7.49868 29.5462 7.2988 29.8199 7.36184C29.6787 7.09876 29.8955 7.03341 29.6134 6.88197C29.6386 6.77249 29.7902 6.86505 29.8323 6.9324C29.807 6.66717 30.0301 6.57445 29.7837 6.51771C29.9836 6.27555 29.971 6.33028 29.8972 6.02508C30.0404 6.02923 30.3373 6.24172 30.3119 5.97649C32.0427 7.09566 34.6217 7.66083 37.0029 8.58396C36.7948 9.11242 36.8075 9.43239 37.0792 9.75435C37.0288 9.9733 36.8856 9.96915 36.7573 10.026C36.9447 10.2133 36.7342 10.2513 37.01 10.4301C36.9911 10.5122 36.8753 10.5144 36.8775 10.6301L36.7954 10.6112C36.8039 10.6996 36.8649 10.6849 36.8775 10.6301C36.8881 10.8343 36.701 11.3965 36.8843 11.7269C36.3857 12.3902 35.4173 12.3401 34.7291 12.7004L34.7417 12.6456C34.6596 12.6267 34.7017 12.6941 34.7291 12.7004C34.4071 12.972 33.8956 12.9407 33.5526 13.1787C33.4431 13.1535 33.5146 12.9682 33.5398 12.8587C33.6219 12.8776 33.6829 12.8629 33.7229 12.8145C33.7776 12.8271 33.784 12.7997 33.8239 12.7513C33.8155 12.6628 33.946 12.7217 33.8239 12.7513C33.7418 12.7323 33.7355 12.7597 33.7229 12.8145L33.5587 12.7766L33.5776 12.6945C33.626 12.7345 33.666 12.6861 33.6786 12.6313C33.7271 12.6713 33.767 12.6229 33.7796 12.5681C33.9649 12.6396 34.0512 12.5154 34.1311 12.4185C34.2132 12.4374 34.2195 12.4101 34.2321 12.3553C34.3142 12.3742 34.3206 12.3469 34.3332 12.2921C34.3584 12.1827 34.4552 12.2626 34.3332 12.2921C34.2847 12.2522 34.2448 12.3006 34.2321 12.3553C34.1837 12.3154 34.1437 12.3638 34.1311 12.4185C33.9458 12.347 33.8596 12.4713 33.7796 12.5681C33.6975 12.5492 33.6912 12.5766 33.6786 12.6313C33.5965 12.6124 33.5902 12.6398 33.5776 12.6945C33.1629 12.7431 32.9231 13.0337 32.5568 13.1223L32.5757 13.0402C32.4873 13.0486 32.5295 13.116 32.5568 13.1223C32.3569 13.3645 32.037 13.3772 31.8645 13.6257C31.7761 13.6342 31.8182 13.7015 31.8456 13.7078C31.7046 13.8194 31.4435 13.7017 31.3236 13.847C31.3214 13.7312 31.2541 13.7733 31.2414 13.828C31.1593 13.8091 31.1678 13.8975 31.2225 13.9102C30.6838 14.2472 30.2019 14.7126 29.6421 15.016C29.6736 14.8791 29.762 14.8707 29.7935 14.7338C29.663 14.675 29.4505 14.9719 29.6421 15.016C29.5958 15.0918 29.6043 15.1802 29.5222 15.1613C29.5789 14.915 29.1748 15.1678 29.4211 15.2245C29.4022 15.3066 29.3075 15.3424 29.2191 15.3509C29.137 15.332 29.217 15.2351 29.2191 15.3509C29.0234 15.4499 28.933 15.7173 28.7099 15.81C28.6215 15.8185 28.5604 15.8332 28.5078 15.9364C28.6384 15.9953 28.691 15.8921 28.7099 15.81C28.8888 15.9089 28.6427 16.2268 28.4763 16.0732C28.4596 16.2711 28.5649 16.4395 28.3629 16.5659C28.3144 16.5259 28.2997 16.4648 28.3186 16.3827C28.3375 16.3006 28.4407 16.3532 28.3186 16.3827L28.2365 16.3638C28.2554 16.2817 28.1943 16.2965 28.1817 16.3512L28.0175 16.3134C28.0154 16.1976 28.0343 16.1155 27.8911 16.1114C27.9984 16.0208 28.0363 15.8566 28.1436 15.766C27.9857 15.7008 27.8847 15.764 27.8468 15.9282C27.8026 15.7451 27.7646 15.5346 27.754 15.3304C27.7455 15.242 27.8697 15.3283 27.754 15.3304C27.5118 15.1306 27.8148 14.941 27.6526 14.6442C27.6778 14.5348 27.6946 14.3369 27.602 14.4885C27.3788 14.2065 27.8397 14.0821 27.848 13.7958C27.9912 13.7999 28.0438 13.6968 28.0879 13.5052C28.1763 13.4967 28.2773 13.4335 28.2815 13.2904L28.3636 13.3093C28.3825 13.2272 28.2878 13.263 28.2815 13.2904L28.2267 13.2778C28.1951 13.0399 28.4498 13.1851 28.4518 12.9261L28.5339 12.9451C28.452 13.3008 28.8265 12.926 28.9002 12.8565C27.5949 12.6423 24.934 12.4329 23.6731 12.4019C23.692 12.3198 23.5488 12.3156 23.473 12.2694C23.4478 12.3788 23.591 12.383 23.6731 12.4019C23.6016 12.5872 23.2436 12.3894 23.3088 12.2315C23.2204 12.24 23.1952 12.3495 23.17 12.4589L22.0752 12.2068C21.7238 12.3564 21.4902 12.6196 21.244 12.9376C21.1682 12.8913 21.1556 12.9461 21.143 13.0008C21.0883 12.9882 21.0209 13.0303 21.0294 13.1187C20.7915 13.1504 21.1243 13.4576 20.7895 13.4093L20.8274 13.2451C20.739 13.2536 20.7074 13.3904 20.7895 13.4093C20.758 13.5462 20.6907 13.5883 20.5749 13.5905C20.7137 13.3631 20.4633 13.4495 20.4381 13.559C20.4128 13.6684 20.5076 13.6326 20.5202 13.5779L20.5749 13.5905C20.3498 13.9421 20.0678 14.1654 19.7437 14.3213L19.7815 14.1571C19.8573 14.2034 19.8699 14.1486 19.8825 14.0939C19.9015 14.0118 19.9983 14.0917 19.8825 14.0939C19.8278 14.0813 19.8152 14.136 19.7815 14.1571C19.7268 14.1445 19.7016 14.2539 19.689 14.3087C19.6006 14.3171 19.5058 14.353 19.4869 14.4351C19.4891 14.5508 19.5417 14.4477 19.6511 14.4729C18.5824 15.9848 16.4105 17.1561 16.5504 19.5517C16.2493 19.4823 16.5463 19.6948 16.3568 19.7665C16.1505 19.6613 16.1062 19.4782 15.9335 19.3519C15.9083 19.4614 15.9504 19.5288 15.9652 19.5898C15.7315 19.4783 15.6726 19.6089 15.481 19.5647C15.4452 19.47 15.4367 19.3816 15.3735 19.2806C15.2851 19.2891 15.344 19.1585 15.3735 19.2806L15.3168 19.5269C15.1589 19.4617 15.203 19.2701 15.0725 19.2113C14.7169 19.504 14.7189 19.2451 14.3231 19.2116C14.3546 19.0747 14.3524 18.959 14.3103 18.8916C14.1735 18.8601 14.1841 19.0643 14.0325 18.9717C14.0219 18.7675 14.2282 18.8727 14.266 18.7085C14.1229 18.7043 13.8744 18.5318 13.8998 18.7971C13.786 18.5403 13.5775 18.3193 13.3524 18.671C13.1587 18.5111 12.9124 18.4543 12.704 18.6081C12.3544 18.1241 11.9646 17.3138 12.057 16.7875C11.3786 15.4784 10.8535 13.2536 10.8864 11.359C10.76 11.1569 10.4654 11.4349 10.5536 11.0518C10.2737 11.0161 9.99996 10.9531 9.80423 11.0521C8.73901 10.922 8.10968 11.1517 6.97711 11.0638L7.01494 10.8996C7.38964 10.8994 7.77065 10.8719 8.10322 10.8044L8.34954 10.8611C8.34108 10.7727 8.12213 10.7223 8.10322 10.8044C7.84214 10.6866 7.26325 10.6974 7.01494 10.8996C6.44035 11.1419 6.05535 11.6873 5.40281 11.7676C5.35438 11.7276 5.3144 11.776 5.30179 11.8308C5.10391 11.814 5.0009 12.1361 4.88081 11.9067L4.81147 12.2078C4.44722 12.0374 4.34205 12.2438 4.18845 12.4101L4.10634 12.3912C4.12526 12.3091 4.09789 12.3028 4.04315 12.2902L4.08097 12.126C4.12941 12.166 4.16938 12.1175 4.18199 12.0628C4.23042 12.1028 4.24303 12.048 4.28301 11.9996C4.27455 11.9112 4.39878 11.9974 4.28301 11.9996C4.2009 11.9807 4.1946 12.0081 4.18199 12.0628C4.09988 12.0439 4.09358 12.0713 4.08097 12.126L3.99886 12.1071C4.01778 12.025 3.902 12.0271 3.85356 11.9872C3.82835 12.0966 3.84941 12.1303 3.89785 12.1703C3.8305 12.2124 3.78422 12.2882 3.75901 12.3977C3.62216 12.3662 3.64108 12.2841 3.55897 12.2652L3.48963 12.5662C3.40752 12.5473 3.39276 12.4863 3.44535 12.3831C3.32326 12.4126 3.25592 12.4547 3.2244 12.5916C3.14229 12.5727 3.12753 12.5116 3.0791 12.4716L3.09801 12.3895C3.17381 12.4358 3.18642 12.3811 3.19903 12.3264C3.28113 12.3453 3.27268 12.2569 3.31265 12.2084C3.23055 12.1895 3.239 12.2779 3.19903 12.3264C3.14429 12.3137 3.10431 12.3622 3.09801 12.3895C3.0096 12.398 3.05173 12.4653 3.0791 12.4716C2.97824 12.9095 2.53404 12.8361 2.34892 13.1393L2.26681 13.1204C2.3257 12.9898 2.21622 12.9646 2.24144 12.8551C2.15933 12.8362 2.16149 12.952 2.12151 13.0004C2.01619 12.8321 2.0394 12.9815 1.82045 12.9311C1.83937 12.849 1.8941 12.8616 1.94038 12.7858C1.75511 12.7143 1.63733 12.9754 1.70667 12.6743C1.79077 12.4343 2.02249 12.8047 1.70667 12.6743C1.65824 12.6343 1.54876 12.6091 1.56137 12.5544C1.58659 12.4449 1.68345 12.5249 1.56137 12.5544C1.51294 12.5144 1.42453 12.5229 1.44344 12.4408C1.44128 12.325 1.56552 12.4112 1.44344 12.4408C1.07073 12.182 1.46004 11.8682 0.845317 11.7842C1.08102 11.6368 0.733688 11.6432 0.649428 11.5086C1.53736 10.5314 2.7139 10.0531 3.65872 9.20432C3.02677 8.19415 2.09807 7.34619 1.60081 6.25176C1.95213 5.72745 2.91203 5.68915 3.0318 5.16915C3.22969 5.1859 3.31594 5.06167 3.41497 5.2574C3.55811 5.26155 3.41281 5.14162 3.4717 5.01108C4.11379 5.10133 4.00631 4.81718 4.44852 5.1496C4.40224 5.2254 4.45697 5.23801 4.48434 5.24431C4.46543 5.32642 4.52017 5.33903 4.54754 5.34533C4.57706 5.46741 4.65701 5.37055 4.54754 5.34533C4.58751 5.2969 4.53908 5.25692 4.48434 5.24431L4.50325 5.16221C4.55799 5.17481 4.61273 5.18742 4.60427 5.09901C5.42365 6.29646 6.52502 7.27064 7.7148 8.23637C8.80309 8.14118 10.1546 8.27955 10.9818 8.06658C10.811 7.30672 11.2187 5.78668 11.3489 5.09616C11.7947 3.78661 12.2824 2.1697 13.2693 1.3883L13.2378 1.52514C13.1157 1.55467 13.2126 1.63462 13.2378 1.52514C13.3199 1.54405 13.3114 1.45564 13.3514 1.40721C13.4062 1.41982 13.4398 1.39875 13.4524 1.34401L13.5345 1.36293C13.5261 1.27452 13.4651 1.28928 13.4524 1.34401C13.3766 1.29774 13.364 1.35247 13.3514 1.40721L13.2693 1.3883C13.9721 0.714377 14.9468 0.737121 15.7319 0.456814L15.713 0.538919C15.5972 0.541074 15.694 0.621026 15.713 0.538919C17.1819 -0.333205 18.3551 1.20511 18.3808 2.21975C18.1199 2.47668 18.6779 2.80694 18.7917 3.06371C18.7664 3.17319 18.6359 3.1143 18.5896 3.1901L18.5075 3.17119C18.4886 3.2533 18.5833 3.21747 18.5896 3.1901C18.676 3.44057 18.897 3.23208 18.8402 3.4784C19.3243 3.12875 19.7451 2.67808 20.2649 2.42315L20.2334 2.55999C20.1513 2.54108 20.145 2.56845 20.1324 2.62318C20.0103 2.65271 20.1072 2.73266 20.1324 2.62318C20.1808 2.66316 20.1934 2.60842 20.2334 2.55999C20.3155 2.5789 20.347 2.44206 20.2649 2.42315C20.429 2.08626 20.7679 1.99139 21.0583 1.85655L21.0268 1.99339C20.9447 1.97448 20.9384 2.00185 20.9258 2.05658C20.8437 2.03767 20.8374 2.06504 20.8248 2.11978C20.7427 2.10087 20.7364 2.12824 20.7237 2.18297C20.6753 2.143 20.6353 2.19143 20.6227 2.24617C20.5743 2.20619 20.5343 2.25463 20.5217 2.30936C20.3996 2.33889 20.5302 2.39778 20.5217 2.30936C20.6038 2.32828 20.6101 2.30091 20.6227 2.24617C20.7048 2.26508 20.7111 2.23771 20.7237 2.18297C20.7722 2.22295 20.8122 2.17452 20.8248 2.11978C20.8732 2.15976 20.9132 2.11132 20.9258 2.05658C20.9742 2.09656 21.0142 2.04813 21.0268 1.99339C21.1426 1.99124 21.2436 1.92804 21.2962 1.82487C21.3783 1.84378 21.3846 1.81641 21.3972 1.76167C21.4224 1.6522 21.5193 1.73215 21.3972 1.76167C21.3488 1.7217 21.3088 1.77013 21.2962 1.82487L21.1593 1.79335C21.3677 1.63959 21.5276 1.44585 21.8202 1.42678L21.8013 1.50889C21.7192 1.48998 21.7129 1.51735 21.7002 1.57209C21.5782 1.60161 21.675 1.68156 21.7002 1.57209C21.7487 1.61206 21.7887 1.56363 21.8013 1.50889C21.8834 1.5278 21.8475 1.43309 21.8202 1.42678C21.8665 1.35098 21.9338 1.30885 22.0706 1.34037C22.0791 1.42878 22.1464 1.38665 22.1528 1.35928C22.378 1.38234 22.4241 0.931838 22.62 1.20752C22.6894 0.906465 23.4976 0.775608 23.7776 0.811274C23.7587 0.893381 23.8745 0.891228 23.9229 0.931204C23.9419 0.849097 23.8261 0.851252 23.7776 0.811274C25.7815 0.494667 30.0952 1.28646 29.4625 3.53285C29.3066 3.20873 29.1216 3.88664 28.9891 4.08668ZM28.2029 1.74406C28.1819 1.71039 28.245 1.81141 28.2029 1.74406V1.74406ZM28.7777 1.87644C28.5945 1.92072 28.5607 1.56708 28.4492 1.80079C28.4977 1.84077 28.7062 2.06171 28.7777 1.87644ZM24.1061 0.886919C24.0576 0.846943 24.1208 0.947961 24.1061 0.886919V0.886919ZM28.9148 2.65736C28.8327 2.63845 28.8853 2.53528 28.9148 2.65736L28.8959 2.73947C29.1086 2.81727 29.2663 2.50776 29.0537 2.42996C29.0284 2.53943 28.9969 2.67628 28.9148 2.65736ZM25.8684 1.86925C25.759 1.84403 25.7253 1.8651 25.6853 1.91353C25.5548 1.85464 25.1885 1.94321 25.3823 2.10311C25.1761 2.37265 25.0286 2.13695 24.7023 2.17708C24.6982 2.32023 24.6161 2.30132 24.5635 2.40449C24.2646 2.45093 24.0289 2.59838 23.808 2.80688C22.9892 3.10825 22.4106 3.86843 21.712 4.39921C21.6025 4.37399 21.6824 4.27713 21.712 4.39921C21.4195 4.79298 21.3563 4.69196 21.0808 5.26256C20.3906 5.88174 20.2801 8.36368 19.1918 8.45887C18.9728 8.40844 19.3495 8.14936 19.1918 8.45887C19.173 8.91568 18.5686 8.28651 18.8972 8.73686C18.6383 8.73487 18.6151 8.58542 18.4235 8.54129C18.2468 8.93291 18.0783 8.66353 17.851 8.8994C17.8763 8.78992 17.9015 8.68045 17.8194 8.66154C17.7164 8.98366 17.0512 9.11866 16.9563 8.77979C16.9585 8.89557 16.9333 9.00504 16.8175 9.00719C16.9353 8.74611 16.6848 8.83253 16.6175 8.87466C16.0083 6.88982 16.3019 4.3636 15.2276 2.64631C14.3211 4.45496 14.0019 6.34125 14.0302 8.59578C13.9144 8.59793 13.9565 8.66528 14.0113 8.67788C14.0185 10.8987 14.1922 13.2732 14.9845 15.2137C15.079 14.8032 15.3695 14.6684 15.5631 14.4536C15.5926 14.5757 15.6788 14.4514 15.5631 14.4536C16.4447 13.5038 17.2275 12.733 18.1345 12.0485C18.1323 11.9327 18.2565 12.019 18.1345 12.0485C18.2164 11.6927 19.212 11.3744 19.2097 10.8839C19.3865 10.867 19.4306 10.6754 19.557 10.8775C19.6431 10.3785 20.003 10.3173 20.3061 10.1277C20.3882 10.1466 20.3797 10.0582 20.325 10.0456C20.388 9.77193 20.668 9.8076 20.8153 9.6686C20.8911 9.71488 20.9037 9.66015 20.9163 9.60541C21.0258 9.63062 20.99 9.53591 20.9353 9.5233C21.1962 9.26637 21.4234 9.03051 21.7412 8.90196C21.857 8.89981 21.8149 8.83246 21.7601 8.81986C23.4814 7.22769 25.3354 5.81018 26.4458 3.24152C26.4246 2.83314 26.437 2.4037 26.3148 2.05852C25.9779 1.89446 25.8454 2.0945 25.5654 2.05883C25.6117 1.98303 25.6664 1.99564 25.6853 1.91353C25.7674 1.93244 25.8285 1.91768 25.8684 1.86925C25.9905 1.83972 25.86 1.78084 25.8684 1.86925ZM29.1233 2.87831C29.0201 2.82573 28.9865 2.84679 28.9402 2.92259C29.1676 3.06143 28.8899 3.51625 29.1784 3.64032C29.1319 3.34142 29.2223 3.07404 29.2054 2.89722C29.197 2.80881 29.1359 2.82357 29.1233 2.87831ZM28.3678 3.2807C28.1151 3.25133 28.3469 3.62173 28.3678 3.2807C28.3613 2.93336 28.593 3.30376 28.3678 3.2807ZM28.8962 3.48888C29.054 3.17937 28.909 3.80885 28.8962 3.48888V3.48888ZM28.412 3.46382C28.5698 3.15431 28.4248 3.78379 28.412 3.46382V3.46382ZM28.1974 3.64495C28.3489 3.36281 28.2039 3.99229 28.1974 3.64495V3.64495ZM28.909 3.80885C29.0604 3.5267 28.9155 4.15618 28.909 3.80885V3.80885ZM27.5793 5.57768L27.4972 5.55877C27.4047 5.71037 27.2152 5.78202 27.3206 5.95038C27.1038 6.01573 26.744 6.45164 26.8367 6.67474C26.9881 6.39259 27.2175 6.27251 27.3206 5.95038C27.4489 5.89349 27.5352 5.76926 27.5793 5.57768C27.9476 5.23018 28.5218 4.23845 28.3616 3.68277C28.2798 4.41327 27.8716 4.8092 27.5793 5.57768ZM28.7702 4.03625C28.7491 4.00258 28.8123 4.1036 28.7702 4.03625V4.03625ZM28.1218 3.97338C28.1007 3.9397 28.1639 4.04072 28.1218 3.97338V3.97338ZM27.9703 4.25552C27.9492 4.22185 28.0124 4.32287 27.9703 4.25552V4.25552ZM27.8758 4.66605C27.8547 4.63238 27.9179 4.7334 27.8758 4.66605V4.66605ZM19.8104 2.89488C19.6947 2.89703 19.7915 2.97698 19.8104 2.89488C19.8357 2.7854 19.9325 2.86536 19.8104 2.89488ZM22.4926 3.51264C22.4778 3.4516 22.5347 3.57998 22.4926 3.51264V3.51264ZM22.1769 3.75696C22.1559 3.72329 22.219 3.82431 22.1769 3.75696V3.75696ZM27.3392 5.11887C27.2171 5.14839 27.3476 5.20728 27.3392 5.11887C27.3516 4.68943 27.6044 5.0935 27.3392 5.11887ZM13.0169 1.73364C12.9958 1.69997 13.059 1.80098 13.0169 1.73364V1.73364ZM18.1622 2.91873C18.1137 2.87875 18.1769 2.97977 18.1622 2.91873V2.91873ZM19.4211 3.2087C19.3727 3.16872 19.4359 3.26974 19.4211 3.2087V3.2087ZM18.2612 3.11446C18.2907 3.23654 18.3707 3.13968 18.2612 3.11446C18.1791 3.09555 18.2317 2.99238 18.2612 3.11446ZM19.2002 3.4172C18.9539 3.36046 19.2067 3.76453 19.2002 3.4172C19.1937 3.06986 19.4254 3.44026 19.2002 3.4172ZM12.8044 2.03055C12.9621 1.72103 12.8171 2.35051 12.8044 2.03055V2.03055ZM18.375 3.37123C18.3982 3.52068 18.4845 3.39645 18.375 3.37123C18.2866 3.37969 18.3455 3.24915 18.375 3.37123ZM27.1141 5.47051C27.0656 5.43054 27.1562 5.53786 27.1141 5.47051V5.47051ZM12.8087 2.2621C12.7876 2.22843 12.8508 2.32945 12.8087 2.2621V2.2621ZM18.8845 3.66152C19.0633 3.38568 18.9184 4.01516 18.8845 3.66152V3.66152ZM26.9752 5.69792C26.8657 5.67271 26.8616 5.81585 26.8364 5.92533C26.5353 5.85599 26.7607 6.25375 26.8364 5.92533C26.9248 5.91687 26.9289 5.77372 26.9752 5.69792C27.2005 5.72098 26.9688 5.35059 26.9752 5.69792ZM18.2993 3.69966C18.2783 3.66599 18.3415 3.767 18.2993 3.69966V3.69966ZM26.0805 5.57831C26.0594 5.54464 26.1226 5.64566 26.0805 5.57831V5.57831ZM14.5289 3.17709C14.4868 3.10974 14.5773 3.21706 14.5289 3.17709V3.17709ZM26.0933 5.89828C26.2447 5.61613 26.0997 6.24561 26.0933 5.89828V5.89828ZM26.6028 6.18856C26.4807 6.21808 26.5776 6.29804 26.6028 6.18856C26.6217 6.10646 26.7249 6.15904 26.6028 6.18856ZM25.9544 6.12568C26.1059 5.84354 25.9672 6.44565 25.9544 6.12568V6.12568ZM14.0112 3.5478C13.9902 3.51413 14.0534 3.61514 14.0112 3.5478V3.5478ZM13.9734 3.71201C14.1585 3.4088 14.0135 4.03828 13.9734 3.71201V3.71201ZM25.7146 6.41629C25.6998 6.35525 25.763 6.45626 25.7146 6.41629V6.41629ZM26.1757 6.6666C26.1273 6.62662 26.2178 6.73394 26.1757 6.6666V6.6666ZM26.521 6.91906C26.2137 6.87709 26.4665 7.28116 26.521 6.91906C26.6811 7.10003 26.8304 6.7021 26.6599 6.69165C26.5862 6.76115 26.5463 6.80959 26.521 6.91906ZM12.0156 3.57812C12.1671 3.29597 12.0284 3.89808 12.0156 3.57812V3.57812ZM25.0411 6.83759C25.0201 6.80392 25.0833 6.90493 25.0411 6.83759V6.83759ZM13.7463 4.32258C13.5844 4.77524 13.8767 4.00677 13.7463 4.32258V4.32258ZM26.1991 7.19075C26.2792 7.46859 26.4937 6.91276 26.1991 7.19075V7.19075ZM24.9275 6.95552C24.9064 6.92185 24.9696 7.02287 24.9275 6.95552V6.95552ZM33.6034 8.95379C33.1297 8.75821 33.3824 9.16228 33.6034 8.95379V8.95379ZM33.8119 9.17473C33.7908 9.14106 33.854 9.24207 33.8119 9.17473V9.17473ZM34.2772 9.28189C34.2961 9.19978 34.1592 9.16827 34.1129 9.24407C34.2224 9.26928 34.2246 9.38506 34.2772 9.28189ZM25.8541 7.6877C25.732 7.71722 25.8351 7.7698 25.8541 7.6877C25.8519 7.57192 25.9761 7.65817 25.8541 7.6877ZM13.5824 5.03417C13.7675 4.73096 13.6225 5.36044 13.5824 5.03417V5.03417ZM13.3509 5.03847C13.3298 5.0048 13.393 5.10582 13.3509 5.03847V5.03847ZM25.8036 7.90665C25.6878 7.9088 25.5847 7.85622 25.5384 7.93202C25.6479 7.95723 25.751 8.00982 25.8036 7.90665ZM13.7848 5.65719C13.5955 6.10354 13.9151 5.34137 13.7848 5.65719V5.65719ZM19.9975 7.08812C19.9827 7.02708 20.0396 7.15546 19.9975 7.08812V7.08812ZM25.1239 8.35532C25.0817 8.28797 25.1723 8.39529 25.1239 8.35532V8.35532ZM13.3492 6.04681C13.1873 6.49947 13.4796 5.73099 13.3492 6.04681V6.04681ZM13.7597 6.14137C13.8125 6.4129 14.0206 5.88444 13.7597 6.14137V6.14137ZM30.9473 10.1001C30.8589 10.1085 30.7831 10.0622 30.7641 10.1444C30.8252 10.1296 30.9284 10.1822 30.9473 10.1001ZM13.9408 6.35601C13.7789 6.80867 14.0712 6.04019 13.9408 6.35601V6.35601ZM31.3747 10.3714C31.5325 10.0619 31.3875 10.6914 31.3747 10.3714V10.3714ZM31.621 10.4282C31.5726 10.3882 31.6358 10.4892 31.621 10.4282V10.4282ZM25.1978 9.03523C25.1831 8.97418 25.2463 9.0752 25.1978 9.03523V9.03523ZM29.6316 10.0564C29.5894 9.98907 29.6526 10.0901 29.6316 10.0564V10.0564ZM31.1095 10.3968C31.0947 10.3358 31.1579 10.4368 31.1095 10.3968V10.3968ZM13.6904 6.44242C13.6693 6.40875 13.7325 6.50977 13.6904 6.44242V6.44242ZM24.0084 8.81891C23.9873 8.78523 24.0505 8.88625 24.0084 8.81891V8.81891ZM30.7263 10.3086C30.6168 10.2834 30.5137 10.2308 30.4674 10.3066C30.5769 10.3318 30.68 10.3844 30.7263 10.3086ZM24.3179 8.97665C24.4693 8.69451 24.3244 9.32399 24.3179 8.97665V8.97665ZM33.678 11.1325C33.6569 11.0988 33.7201 11.1999 33.678 11.1325V11.1325ZM13.3052 6.61309C13.1831 6.64262 13.3074 6.72887 13.3052 6.61309C13.3261 6.27206 13.5515 6.66983 13.3052 6.61309ZM25.4758 9.32982C25.4548 9.29615 25.518 9.39716 25.4758 9.32982V9.32982ZM34.2886 11.3596C34.2675 11.3259 34.3307 11.4269 34.2886 11.3596V11.3596ZM28.5033 10.2C28.4822 10.1664 28.5454 10.2674 28.5033 10.2V10.2ZM13.7033 7.13709C13.7474 6.94551 13.7453 6.82973 13.6147 6.77085C13.5832 6.90769 13.6064 7.05714 13.7033 7.13709ZM13.8086 7.30545C13.7876 7.27178 13.8507 7.3728 13.8086 7.30545V7.30545ZM13.5708 7.33713C13.5223 7.29716 13.6129 7.40448 13.5708 7.33713V7.33713ZM13.5772 7.68447C13.5351 7.61712 13.592 7.74551 13.5772 7.68447V7.68447ZM13.7773 7.817C13.7625 7.75596 13.8257 7.85698 13.7773 7.817V7.817ZM33.4006 12.3367C33.3859 12.2757 33.4491 12.3767 33.4006 12.3367V12.3367ZM34.1817 12.5743C34.1606 12.5406 34.2238 12.6416 34.1817 12.5743V12.5743ZM13.6825 7.85283C13.6215 7.86759 13.5394 7.84868 13.5268 7.90342C13.5815 7.91602 13.6636 7.93494 13.6825 7.85283ZM17.3858 8.79223C17.3373 8.75226 17.4279 8.85958 17.3858 8.79223V8.79223ZM33.5333 12.5114C33.5123 12.4777 33.5755 12.5787 33.5333 12.5114V12.5114ZM34.1439 12.7385C34.0892 12.7259 34.0555 12.7469 34.0429 12.8017C33.9208 12.8312 34.045 12.9175 34.0429 12.8017C34.1187 12.848 34.1313 12.7932 34.1439 12.7385C34.266 12.709 34.1628 12.6564 34.1439 12.7385ZM32.8282 12.6948C32.8071 12.6612 32.8703 12.7622 32.8282 12.6948V12.6948ZM32.563 12.7202C32.5419 12.6865 32.6051 12.7876 32.563 12.7202V12.7202ZM31.4181 13.4364C31.296 13.4659 31.3929 13.5459 31.4181 13.4364C31.4116 13.0891 31.6371 13.4869 31.4181 13.4364ZM20.4139 11.1613C20.3655 11.1213 20.4286 11.2223 20.4139 11.1613V11.1613ZM13.5254 9.66116C13.5044 9.62749 13.5676 9.72851 13.5254 9.66116V9.66116ZM30.913 13.7524C30.8983 13.6914 30.9552 13.8197 30.913 13.7524V13.7524ZM30.7447 13.8577C30.6962 13.8178 30.7868 13.9251 30.7447 13.8577V13.8577ZM30.2207 14.2558C30.1722 14.2158 30.1596 14.2706 30.1196 14.319C30.0039 14.3212 30.1281 14.4074 30.1196 14.319C30.2018 14.3379 30.2144 14.2832 30.2207 14.2558C30.3364 14.2537 30.6606 14.0977 30.4605 13.9652C30.4227 14.1294 30.2164 14.0243 30.2207 14.2558ZM19.0079 11.7597C18.9932 11.6987 19.0564 11.7997 19.0079 11.7597V11.7597ZM30.366 14.3757C30.3512 14.3147 30.4144 14.4157 30.366 14.3757V14.3757ZM13.7132 10.5978C13.892 10.322 13.747 10.9515 13.7132 10.5978V10.5978ZM29.806 14.3044C29.7849 14.2707 29.8481 14.3717 29.806 14.3044V14.3044ZM29.8124 14.6517C29.8314 14.5696 29.9934 14.4917 29.8692 14.4054C29.8166 14.5086 29.6882 14.5655 29.8124 14.6517ZM30.0692 14.538C30.0482 14.5043 30.1113 14.6053 30.0692 14.538V14.538ZM9.29468 10.7618C8.87569 10.5788 9.12847 10.9829 9.29468 10.7618C9.42522 10.8207 9.5473 10.7912 9.55145 10.648C9.41461 10.6165 9.34726 10.6586 9.29468 10.7618ZM10.7368 11.0075C10.6883 10.9675 10.7515 11.0685 10.7368 11.0075V11.0075ZM8.84633 10.8315C8.89891 10.7283 9.0273 10.6714 8.90306 10.5851C8.88415 10.6672 8.7284 10.7178 8.84633 10.8315ZM17.8885 12.7412C17.84 12.7012 17.9306 12.8085 17.8885 12.7412V12.7412ZM8.70948 10.7999C8.60001 10.7747 8.46947 10.7158 8.45056 10.7979C8.53266 10.8169 8.6632 10.8757 8.70948 10.7999ZM17.6738 12.9223C17.6528 12.8886 17.7159 12.9896 17.6738 12.9223V12.9223ZM28.7666 15.5637C28.6445 15.5932 28.7414 15.6732 28.7666 15.5637C28.7855 15.4816 28.8824 15.5615 28.7666 15.5637ZM19.9962 13.9759C19.9751 13.9423 20.0383 14.0433 19.9962 13.9759V13.9759ZM4.46382 11.4648C4.44275 11.4312 4.50595 11.5322 4.46382 11.4648V11.4648ZM11.4155 13.066C11.3944 13.0323 11.4576 13.1333 11.4155 13.066V13.066ZM19.0324 14.9068C19.0114 14.8731 19.0746 14.9741 19.0324 14.9068V14.9068ZM4.28915 11.5975C4.24072 11.5576 4.33128 11.6649 4.28915 11.5975V11.5975ZM11.4598 13.2491C11.6112 12.9669 11.4725 13.5691 11.4598 13.2491V13.2491ZM3.89139 11.8229C3.87032 11.7893 3.93352 11.8903 3.89139 11.8229V11.8229ZM11.4725 13.5691C11.4241 13.5291 11.5147 13.6364 11.4725 13.5691V13.5691ZM3.48931 11.8168C3.40721 11.7979 3.4009 11.8253 3.3883 11.88C3.30619 11.8611 3.29989 11.8885 3.28728 11.9432L3.20517 11.9243C3.13368 12.1096 2.89997 11.9981 2.8706 12.2507C2.81586 12.2381 2.80326 12.2928 2.79695 12.3202C2.71485 12.3013 2.70854 12.3287 2.69594 12.3834C2.61383 12.3645 2.60753 12.3919 2.59492 12.4466C2.50651 12.4551 2.43916 12.4972 2.39288 12.573C2.2708 12.6025 2.37397 12.6551 2.39288 12.573C2.49606 12.6256 2.49821 12.7413 2.60138 12.7939C2.66657 12.636 2.59707 12.5624 2.59492 12.4466C2.64335 12.4866 2.68333 12.4381 2.69594 12.3834C2.74437 12.4234 2.75698 12.3686 2.79695 12.3202C2.84539 12.3602 2.85799 12.3054 2.8706 12.2507C3.02636 12.2001 3.23055 12.1895 3.28728 11.9432C3.33571 11.9832 3.37569 11.9347 3.3883 11.88C3.43673 11.92 3.47671 11.8715 3.48931 11.8168C3.60509 11.8146 3.48085 11.7284 3.48931 11.8168ZM4.66617 12.0879C4.6451 12.0542 4.7083 12.1552 4.66617 12.0879V12.0879ZM1.17143 11.3694C1.04935 11.3989 1.17358 11.4852 1.17143 11.3694C1.19034 11.2873 1.29351 11.3399 1.17143 11.3694ZM11.5337 13.929C11.5127 13.8953 11.5759 13.9963 11.5337 13.929V13.929ZM18.4854 15.5301C18.4643 15.4965 18.5275 15.5975 18.4854 15.5301V15.5301ZM0.81364 11.5464C0.765207 11.5064 0.855771 11.6137 0.81364 11.5464V11.5464ZM11.7107 14.2868C11.6392 14.4721 11.6687 14.5942 11.7993 14.653C11.8034 14.5099 11.8076 14.3667 11.7107 14.2868C11.7359 14.1773 11.7001 14.0826 11.5969 14.03C11.5654 14.1669 11.6075 14.2342 11.7107 14.2868ZM2.55064 12.2635C2.42855 12.293 2.52542 12.3729 2.55064 12.2635C2.56955 12.1814 2.66641 12.2613 2.55064 12.2635ZM15.1487 15.2516C15.1276 15.2179 15.1908 15.3189 15.1487 15.2516V15.2516ZM2.79496 12.5791C2.5697 12.5561 2.80142 12.9265 2.79496 12.5791C2.81387 12.497 2.94441 12.5559 2.79496 12.5791ZM17.911 16.1472C17.8899 16.1135 17.9531 16.2145 17.911 16.1472V16.1472ZM11.8436 14.8362C11.7973 14.912 11.812 14.973 11.8878 15.0193C11.7364 15.3014 12.1068 15.0697 11.8878 15.0193C11.913 14.9098 11.8983 14.8488 11.8436 14.8362C11.814 14.7141 11.7341 14.8109 11.8436 14.8362ZM11.9364 15.434C12.1152 15.1581 11.9766 15.7602 11.9364 15.434V15.434ZM12.1638 15.5728C12.3363 15.3243 12.2861 15.918 12.1638 15.5728V15.5728ZM12.1134 15.7918C12.2649 15.5096 12.1199 16.1391 12.1134 15.7918V15.7918ZM12.1388 16.057C12.1177 16.0233 12.1809 16.1243 12.1388 16.057V16.057ZM13.3156 16.328C13.2946 16.2944 13.3578 16.3954 13.3156 16.328V16.328ZM12.1831 16.2401C12.1346 16.2001 12.2252 16.3075 12.1831 16.2401V16.2401ZM12.3831 16.3726C12.362 16.339 12.4252 16.44 12.3831 16.3726V16.3726ZM12.2695 16.4906C12.2484 16.4569 12.3116 16.5579 12.2695 16.4906V16.4906ZM16.7475 17.6949C16.8989 17.4127 16.754 18.0422 16.7475 17.6949V17.6949ZM22.0706 1.34037C22.0833 1.28563 22.178 1.24981 22.1528 1.35928L22.0706 1.34037ZM25.3823 2.10311C25.4285 2.02731 25.4896 2.01255 25.5654 2.05883C25.5254 2.10727 25.4917 2.12833 25.3823 2.10311ZM29.1233 2.87831C29.1044 2.96041 29.1991 2.92459 29.2054 2.89722L29.1233 2.87831ZM24.5635 2.40449C24.593 2.52657 24.673 2.4297 24.5635 2.40449V2.40449ZM29.6078 3.65278C29.5594 3.6128 29.6499 3.72012 29.6078 3.65278V3.65278ZM29.4247 3.69706C29.5824 3.38755 29.4375 4.01703 29.4247 3.69706V3.69706ZM21.0583 1.85655C21.0709 1.80181 21.0835 1.74707 21.1593 1.79335C21.1467 1.84809 21.092 1.83548 21.0583 1.85655ZM23.808 2.80688C23.8375 2.92896 23.9174 2.83209 23.808 2.80688V2.80688ZM28.7685 5.04459L28.9891 4.08668C29.4038 4.03809 28.8926 4.75614 28.8506 5.0635L28.7685 5.04459ZM29.3807 4.26335C29.3597 4.22967 29.4228 4.33069 29.3807 4.26335V4.26335ZM27.9879 5.93116C28.0846 5.63641 28.2884 4.87638 28.5998 4.40051C28.6819 4.41942 28.6777 4.56256 28.764 4.43833C28.579 5.11624 28.4716 4.8321 28.171 5.88687C28.1099 5.90163 28.0068 5.84905 27.9879 5.93116ZM18.3808 2.21975C18.4355 2.23236 18.484 2.27233 18.444 2.32077C18.4166 2.31446 18.3619 2.30186 18.3808 2.21975ZM18.5261 2.33968C18.545 2.25757 18.6482 2.31016 18.5261 2.33968V2.33968ZM18.444 2.32077L18.5261 2.33968C18.522 2.48283 18.3999 2.51235 18.444 2.32077ZM28.7685 5.04459C28.7413 5.41299 28.5455 5.51201 28.4551 5.77939C28.274 5.56475 28.6781 5.31197 28.7137 5.03198L28.7685 5.04459ZM30.495 5.9322C30.4466 5.89223 30.5371 5.99955 30.495 5.9322V5.9322ZM30.3119 5.97649C30.2024 5.95127 30.2824 5.8544 30.3119 5.97649V5.97649ZM12.3434 2.15494C12.4949 1.8728 12.3499 2.50228 12.3434 2.15494V2.15494ZM28.272 5.82368C28.4573 5.89517 28.2363 6.10367 28.1964 6.1521C27.9626 6.04063 28.3163 6.0068 28.272 5.82368ZM27.9879 5.93116C28.0174 6.05324 28.0973 5.95637 27.9879 5.93116V5.93116ZM27.8996 6.31432C27.8449 6.30171 27.8323 6.35645 27.7986 6.37751C27.7102 6.38597 27.706 6.52912 27.6239 6.51021C27.605 6.59231 27.6934 6.58386 27.7419 6.62383C27.5778 6.96071 27.3801 7.31866 27.0623 7.44721C27.0938 7.31037 27.2096 7.30821 27.2137 7.16506C27.2958 7.18397 27.2937 7.06819 27.3336 7.01976C27.2515 7.00085 27.2537 7.11663 27.2137 7.16506C27.0832 7.10617 27.058 7.21565 26.9485 7.19044L26.9863 7.02622C27.1484 6.94827 27.2683 6.80296 27.3398 6.61769C27.5208 6.45762 27.7291 6.30387 27.8321 5.98174C27.969 6.01326 27.7964 6.26173 27.8996 6.31432ZM27.3715 6.85555C27.5229 6.5734 27.3779 7.20288 27.3715 6.85555V6.85555ZM27.9817 6.33323C27.9753 5.98589 28.228 6.38996 27.9817 6.33323V6.33323ZM27.8996 6.31432L27.9817 6.33323C27.9713 6.50375 27.8555 6.5059 27.824 6.64274L27.7419 6.62383L27.7986 6.37751C27.8533 6.39012 27.9081 6.40273 27.8996 6.31432ZM29.4556 7.19148C29.4745 7.10937 29.5567 7.12828 29.6388 7.1472C29.5925 7.223 29.5167 7.17672 29.4556 7.19148ZM21.0808 5.26256C21.1103 5.38464 21.1966 5.2604 21.0808 5.26256V5.26256ZM26.9485 7.19044C26.9233 7.29991 27.0327 7.32513 26.9802 7.4283C26.8581 7.45782 26.9823 7.54408 26.9802 7.4283L27.0623 7.44721C27.0813 7.73981 26.8329 7.56729 26.7403 7.7189C26.6793 7.73366 26.6667 7.7884 26.5845 7.76948C26.5656 7.85159 26.654 7.84313 26.7025 7.88311L26.6647 8.04732C26.6162 8.00735 26.5699 8.08315 26.5152 8.07054C26.5278 8.0158 26.4183 7.99059 26.3636 7.97798C26.351 8.03272 26.4331 8.05163 26.5152 8.07054C26.2943 8.27904 26.1218 8.52751 25.8587 8.66866C25.905 8.59286 25.8902 8.53182 25.8355 8.51921C25.726 8.494 25.8122 8.36976 25.8355 8.51921L25.8039 8.65606C25.6734 8.59717 25.686 8.54243 25.5576 8.59932C25.6059 8.26459 25.9554 8.37391 26.0037 8.03918C26.3467 7.80116 26.6476 7.4958 26.9485 7.19044ZM26.25 8.09591C26.2795 8.218 26.3595 8.12113 26.25 8.09591C26.1616 8.10437 26.2205 7.97383 26.25 8.09591ZM26.7403 7.7189C26.8224 7.73781 26.8183 7.88096 26.7025 7.88311L26.7403 7.7189ZM29.2667 8.38725L29.2478 8.46935C29.1109 8.43783 29.0477 8.33682 29.2667 8.38725ZM28.9321 8.71367C28.9111 8.68 28.9742 8.78102 28.9321 8.71367V8.71367ZM11.3489 5.09616C11.2395 5.07095 11.3257 4.94671 11.3489 5.09616V5.09616ZM25.8039 8.65606L25.8587 8.66866C25.8504 8.95496 25.5535 8.74247 25.8039 8.65606ZM25.583 8.86455C25.6125 8.98663 25.6651 8.88346 25.583 8.86455V8.86455ZM4.37256 4.72862C4.44836 4.77489 4.51155 4.87591 4.48003 5.01276C4.34319 4.98124 4.3621 4.89913 4.25263 4.87392C4.27154 4.79181 4.35364 4.81072 4.37256 4.72862ZM21.7601 8.81986L21.7412 8.90196C21.7139 8.89566 21.678 8.80094 21.7601 8.81986ZM4.44852 5.1496C4.45482 5.12223 4.52216 5.0801 4.50325 5.16221L4.44852 5.1496ZM20.8342 9.5865C20.8679 9.56543 20.8805 9.5107 20.9353 9.5233L20.9163 9.60541L20.8342 9.5865ZM20.8342 9.5865L20.8153 9.6686C20.788 9.6623 20.7458 9.59496 20.8342 9.5865ZM33.5587 12.7766L33.5398 12.8587C33.4851 12.8461 33.4766 12.7577 33.5587 12.7766ZM33.2556 12.9662C33.2809 12.8567 33.3777 12.9367 33.2556 12.9662V12.9662ZM33.2556 12.9662C33.1399 12.9684 33.2641 13.0546 33.2556 12.9662V12.9662ZM14.0113 8.67788L14.0302 8.59578C14.0576 8.60208 14.0934 8.69679 14.0113 8.67788ZM20.325 10.0456C20.2366 10.0541 20.2514 10.1151 20.3061 10.1277L20.325 10.0456ZM32.9042 13.1158C32.8957 13.0274 33.0262 13.0863 32.9042 13.1158V13.1158ZM32.9484 13.2989C33.041 13.1473 33.1905 13.1241 33.3883 13.1409C33.4285 13.4672 33.0262 13.0863 33.0664 13.4126C33.0116 13.4 32.9969 13.3389 32.9484 13.2989ZM32.8031 13.179C32.8158 13.1243 32.8221 13.0969 32.9042 13.1158C32.8916 13.1706 32.8516 13.219 32.8031 13.179ZM32.7021 13.2422C32.7147 13.1875 32.721 13.1601 32.8031 13.179C32.7905 13.2338 32.7506 13.2822 32.7021 13.2422ZM32.7021 13.2422C32.58 13.2717 32.6832 13.3243 32.7021 13.2422V13.2422ZM32.8474 13.3621C32.86 13.3074 32.8726 13.2527 32.9484 13.2989C32.9358 13.3537 32.9022 13.3747 32.8474 13.3621ZM32.8474 13.3621C32.8011 13.4379 32.7759 13.5474 32.6454 13.4885C32.698 13.3854 32.759 13.3706 32.8474 13.3621ZM32.5444 13.5517C32.557 13.497 32.597 13.4486 32.6454 13.4885C32.6391 13.5159 32.6265 13.5706 32.5444 13.5517ZM32.5444 13.5517C32.5318 13.6065 32.4707 13.6212 32.4307 13.6697C32.315 13.6718 32.2624 13.775 32.174 13.7834C32.2181 13.5919 32.3528 13.5076 32.5444 13.5517ZM32.4307 13.6697C32.4603 13.7917 32.5402 13.6949 32.4307 13.6697V13.6697ZM28.5339 12.9451C28.5529 12.863 28.656 12.9155 28.5339 12.9451V12.9451ZM31.8456 13.7078L31.8645 13.6257C31.9192 13.6383 31.934 13.6993 31.8456 13.7078ZM32.174 13.7834C31.8645 13.6257 32.0899 14.0235 32.174 13.7834V13.7834ZM31.7888 13.9541C31.8077 13.872 31.9509 13.8762 31.953 13.9919L31.7888 13.9541ZM32.0351 14.0109C32.033 13.8951 32.1572 13.9813 32.0351 14.0109V14.0109ZM31.2225 13.9102L31.2414 13.828L31.3236 13.847C31.3172 13.8743 31.2773 13.9228 31.2225 13.9102ZM31.7888 13.9541C31.673 13.9563 31.7699 14.0362 31.7888 13.9541V13.9541ZM31.9341 14.074L31.953 13.9919L32.0351 14.0109C32.0288 14.0382 31.9889 14.0867 31.9341 14.074ZM31.8394 14.1099C31.8457 14.0825 31.8583 14.0278 31.9341 14.074C31.9278 14.1014 31.8878 14.1498 31.8394 14.1099ZM28.1257 13.341C28.132 13.3136 28.1446 13.2589 28.2267 13.2778C28.2078 13.3599 28.1531 13.3473 28.1257 13.341ZM31.7384 14.1731C31.7447 14.1457 31.7847 14.0973 31.8394 14.1099C31.8268 14.1646 31.8142 14.2193 31.7384 14.1731ZM28.1257 13.341L28.0879 13.5052C28.0058 13.4863 28.0099 13.3431 28.1257 13.341ZM31.1721 14.1291C31.191 14.047 31.2942 14.0996 31.1721 14.1291V14.1291ZM31.2985 14.3311C31.3237 14.2217 31.3637 14.1732 31.4373 14.1037C31.5405 14.1563 31.4479 14.3079 31.3806 14.35L31.2985 14.3311ZM31.7384 14.1731C31.6163 14.2026 31.7132 14.2825 31.7384 14.1731V14.1731ZM23.8184 12.5218C23.7973 12.4882 23.8605 12.5892 23.8184 12.5218V12.5218ZM31.1721 14.1291C31.05 14.1586 31.1469 14.2386 31.1721 14.1291V14.1291ZM27.8859 13.6316C27.9111 13.5221 28.008 13.6021 27.8859 13.6316V13.6316ZM31.2985 14.3311C31.1764 14.3607 31.2796 14.4132 31.2985 14.3311V14.3311ZM27.8859 13.6316L27.848 13.7958L27.7659 13.7769C27.8122 13.7011 27.8038 13.6127 27.8859 13.6316ZM21.9364 12.4342C21.9216 12.3732 21.9848 12.4742 21.9364 12.4342V12.4342ZM27.7659 13.7769C27.5196 13.7202 27.7724 14.1242 27.7659 13.7769V13.7769ZM31.0649 14.5944C31.0439 14.5607 31.1071 14.6617 31.0649 14.5944V14.5944ZM21.6207 12.6785C21.5997 12.6449 21.6629 12.7459 21.6207 12.6785V12.6785ZM30.3787 14.6957C30.3577 14.662 30.4209 14.763 30.3787 14.6957V14.6957ZM30.5051 14.8977C30.5303 14.7883 30.5703 14.7398 30.644 14.6703C30.7471 14.7229 30.6546 14.8745 30.5872 14.9166L30.5051 14.8977ZM27.4314 14.1033C27.4103 14.0696 27.4735 14.1707 27.4314 14.1033V14.1033ZM30.5051 14.8977C30.3557 14.921 30.4862 14.9798 30.5051 14.8977V14.8977ZM21.244 12.9376C21.4967 12.967 21.0589 13.2408 21.143 13.0008C21.2041 12.986 21.2314 12.9924 21.244 12.9376ZM21.0294 13.1187C21.0589 13.2408 21.1115 13.1377 21.0294 13.1187V13.1187ZM27.6526 14.6442C27.5305 14.6738 27.6274 14.7537 27.6526 14.6442V14.6442ZM29.4211 15.2245C29.4337 15.1697 29.4674 15.1487 29.5222 15.1613C29.5096 15.216 29.4969 15.2708 29.4211 15.2245ZM10.3516 11.1782C10.1897 11.6308 10.482 10.8623 10.3516 11.1782V11.1782ZM9.80423 11.0521C9.7538 11.271 10.1516 11.0456 9.80423 11.0521V11.0521ZM10.0379 11.1636C9.98951 11.1236 10.0527 11.2246 10.0379 11.1636V11.1636ZM9.6085 11.1511C9.58744 11.1174 9.65063 11.2185 9.6085 11.1511V11.1511ZM19.689 14.3087L19.7437 14.3213C19.7311 14.376 19.7059 14.4855 19.6511 14.4729L19.689 14.3087ZM28.1817 16.3512L28.2365 16.3638C28.2239 16.4186 28.1628 16.4333 28.1817 16.3512ZM5.40281 11.7676C5.50598 11.8202 5.41973 11.9444 5.34608 12.0139L5.26397 11.995L5.30179 11.8308C5.35653 11.8434 5.41757 11.8286 5.40281 11.7676ZM5.16295 12.0582C5.17556 12.0034 5.21554 11.955 5.26397 11.995C5.25767 12.0223 5.24506 12.0771 5.16295 12.0582ZM5.06824 12.094C5.10191 12.0729 5.11452 12.0182 5.16295 12.0582C5.15665 12.0855 5.14404 12.1403 5.06824 12.094ZM4.96722 12.1572C5.0009 12.1361 5.0135 12.0814 5.06824 12.094C5.05563 12.1487 5.04303 12.2035 4.96722 12.1572ZM4.96722 12.1572C4.84514 12.1867 4.96938 12.273 4.96722 12.1572V12.1572ZM3.89785 12.1703C3.91046 12.1155 3.91676 12.0882 3.99886 12.1071C3.97995 12.1892 3.95259 12.1829 3.89785 12.1703ZM3.94213 12.3534C3.95474 12.2987 3.96735 12.2439 4.04315 12.2902L4.02424 12.3723L3.94213 12.3534ZM3.94213 12.3534C3.71073 12.7324 3.40984 13.0378 3.04774 12.9832C3.08971 12.6758 3.38446 12.7725 3.48963 12.5662C3.60541 12.564 3.70642 12.5009 3.75901 12.3977C3.84111 12.4166 3.88739 12.3408 3.94213 12.3534ZM4.02424 12.3723L4.10634 12.3912C4.10004 12.4186 4.00533 12.4544 4.02424 12.3723ZM4.18845 12.4101C4.1906 12.5259 4.27686 12.4017 4.18845 12.4101V12.4101ZM3.04774 12.9832C3.00792 13.4063 2.56787 13.1897 2.43749 13.5055C2.28788 13.154 2.80988 13.0149 3.04774 12.9832ZM3.26254 13.1768C3.21411 13.1368 3.30467 13.2441 3.26254 13.1768V13.1768ZM2.12151 13.0004C2.20362 13.0193 2.21838 13.0804 2.26681 13.1204C2.25221 13.434 2.02895 13.152 2.12151 13.0004ZM13.5798 18.8098C13.5651 18.7488 13.6283 18.8498 13.5798 18.8098V18.8098ZM13.8998 18.7971C13.9293 18.9191 14.0156 18.7949 13.8998 18.7971V18.7971ZM16.5504 19.5517C16.5736 19.7011 16.6599 19.5769 16.5504 19.5517V19.5517ZM14.3231 19.2116C14.0705 19.1822 14.3022 19.5526 14.3231 19.2116V19.2116ZM15.9652 19.5898C15.9947 19.7119 16.0747 19.615 15.9652 19.5898V19.5898ZM15.3168 19.5269C15.3463 19.649 15.4263 19.5521 15.3168 19.5269V19.5269Z" fill="white"/>
</svg>
