<?xml version="1.0" encoding="UTF-8"?> <svg xmlns="http://www.w3.org/2000/svg" width="48" height="48" viewBox="0 0 48 48" fill="none"><g clip-path="url(#clip0_858_108740)"><rect x="0.484375" y="0.785156" width="47" height="47" rx="23.5" fill="#0B21FC"></rect><path d="M10.1684 28.2186C10.0061 28.2112 9.65934 28.189 9.39372 28.1668C9.13179 28.1484 8.70015 28.1151 8.43453 28.0929C7.94018 28.056 7.70408 28.0338 6.53461 27.9082C4.4613 27.6865 4.05918 27.6459 3.45416 27.5941C2.66836 27.5276 1.3956 27.4648 0.864359 27.4648H0.484375V23.9176V20.3705H1.15949C2.22197 20.3705 4.43179 20.5441 6.3686 20.7769C9.6704 21.176 13.0349 21.2462 15.8867 20.9764C17.1631 20.8582 17.9009 20.7806 18.7089 20.6882C20.5202 20.4739 22.2025 20.3705 23.8921 20.3705C25.7257 20.3705 26.873 20.4444 29.2968 20.7215C29.9645 20.7954 31.5619 20.9506 32.3588 21.0171C32.7129 21.0466 33.6279 21.091 34.3878 21.1168C36.6567 21.187 38.9071 21.0688 41.8215 20.7215C42.4634 20.6439 43.2935 20.5626 43.9059 20.5183C44.201 20.4961 44.6068 20.4591 44.8097 20.4407C45.0126 20.4222 45.6988 20.3963 46.3334 20.3815L47.4844 20.3594V23.9139V27.4648H47.0343C46.5436 27.4648 44.4888 27.5609 44.2748 27.5941C44.2047 27.6052 43.9723 27.6274 43.7583 27.6495C42.9873 27.7161 41.8215 27.8343 41.7477 27.8491C41.5891 27.886 39.988 28.0449 38.7042 28.1521C37.2949 28.2703 33.6463 28.2592 32.3219 28.1299C32.1079 28.1114 31.5545 28.0597 31.086 28.019C30.6212 27.9747 29.9571 27.9082 29.6104 27.8712C29.2673 27.8306 28.7286 27.7715 28.4224 27.7419C28.1126 27.7124 27.6145 27.6606 27.3157 27.6311C25.3494 27.4352 22.5936 27.4278 20.6826 27.6126C19.7123 27.7087 18.458 27.838 17.8419 27.9045C15.396 28.1742 14.8648 28.2075 12.5664 28.2186C11.4117 28.226 10.3308 28.226 10.1684 28.2186ZM23.7298 26.4413C23.8589 26.2418 24.475 25.3069 25.0985 24.3647C25.7257 23.4262 26.2348 22.6466 26.2348 22.6392C26.2348 22.6318 26.006 22.6244 25.7294 22.6281H25.2202L24.63 23.5334C24.3053 24.0285 24.0139 24.4608 23.9844 24.4867C23.9364 24.531 23.8516 24.4201 23.3019 23.5814L22.6747 22.6281L22.1841 22.6244H21.6971L22.0586 23.1712C22.6378 24.0359 23.431 25.2478 23.4421 25.2811C23.4458 25.2959 23.2465 25.6173 22.9957 25.9979C22.7485 26.3748 22.5345 26.711 22.5235 26.7443C22.505 26.7923 22.564 26.7997 22.9957 26.7997H23.4937L23.7298 26.4413ZM14.898 25.6949C15.5583 25.5545 16.1191 25.185 16.3367 24.7379C16.429 24.5495 16.44 24.4903 16.44 24.1393C16.44 23.7883 16.429 23.7292 16.3367 23.5407C16.2113 23.2821 15.8719 22.9606 15.562 22.8054C14.85 22.4433 13.5256 22.3731 12.6476 22.6466C12.3635 22.7389 11.9946 22.9126 11.9946 22.9606C11.9946 22.9791 12.3672 23.489 12.4151 23.537C12.4225 23.5481 12.5516 23.4964 12.7029 23.4225C13.046 23.2525 13.4112 23.1786 13.8982 23.1786C14.5881 23.1786 15.1082 23.3375 15.3923 23.6331C15.4735 23.7144 15.5362 23.792 15.5362 23.8105C15.5362 23.829 15.1599 23.8474 14.6987 23.8511L13.865 23.8622L13.8687 24.1948L13.8724 24.5273L14.6729 24.5458L15.4735 24.5642L15.348 24.6862C14.8389 25.185 13.2673 25.2404 12.5775 24.7859L12.4447 24.6973L12.2344 24.9744C12.1237 25.1259 12.0204 25.27 12.0093 25.2995C11.9688 25.4104 12.7177 25.6875 13.2673 25.7614C13.6473 25.8131 14.4995 25.7799 14.898 25.6949ZM6.97362 25.2256C7.27244 24.3536 7.65612 23.8031 8.11357 23.5777C8.34599 23.4631 8.37919 23.4558 8.76656 23.4558C9.15761 23.4558 9.17974 23.4595 9.40478 23.5814C9.88069 23.84 10.2496 24.3832 10.5337 25.2404L10.6739 25.6543H11.0944C11.4486 25.6543 11.515 25.6469 11.515 25.5988C11.515 25.451 11.1867 24.5606 10.9948 24.1763C10.6443 23.4853 10.268 23.0863 9.72943 22.8313C9.39741 22.6724 9.16499 22.6244 8.73704 22.6244C7.6967 22.6244 6.92566 23.2082 6.4018 24.398C6.26161 24.7231 5.98124 25.5286 5.98124 25.6173C5.98124 25.6432 6.1288 25.6543 6.40549 25.6469L6.82974 25.6358L6.97362 25.2256ZM19.3729 24.4903V23.3264H20.2768H21.1806V22.9754V22.6244H18.9523H16.7278L16.702 22.7389C16.6798 22.8498 16.6688 23.2821 16.6909 23.2969C16.6946 23.3006 17.1041 23.3117 17.6021 23.3227L18.506 23.3449L18.517 24.5014L18.5244 25.6543H18.9487H19.3729V24.4903ZM30.8831 24.6012C30.8831 23.6331 30.8757 23.526 30.8056 23.3153C30.7134 23.0382 30.5437 22.8461 30.2781 22.7278C30.09 22.6429 30.0752 22.6429 28.4188 22.6318L26.7476 22.6207L26.7586 22.9643L26.7697 23.308L28.2712 23.3264L29.769 23.3449L29.8649 23.4336C29.9645 23.526 30.0531 23.7661 30.0051 23.8142C29.9903 23.8253 29.3337 23.8437 28.5405 23.8511C26.9246 23.8696 26.8656 23.877 26.6074 24.1356C26.2458 24.4977 26.3307 25.27 26.7586 25.4917C27.0279 25.6321 27.2677 25.6469 29.1049 25.6506L30.8831 25.6543V24.6012ZM32.392 25.2811C32.6724 24.4165 33.1077 23.7846 33.5688 23.5592C33.7607 23.4668 33.8197 23.4558 34.1849 23.4558C34.5575 23.4558 34.6092 23.4631 34.8121 23.5629C35.2843 23.7957 35.6458 24.3056 35.9557 25.185L36.1144 25.6358L36.5423 25.6469L36.9739 25.658L36.9481 25.5545C36.8042 24.9744 36.439 24.1061 36.166 23.7107C35.8524 23.2488 35.4171 22.8978 34.9412 22.7242C34.6534 22.6207 33.9783 22.5948 33.6352 22.6761C33.1188 22.7981 32.6097 23.1565 32.2666 23.6368C31.9899 24.0359 31.6689 24.7379 31.4955 25.3291C31.3959 25.6727 31.3775 25.6543 31.8534 25.6543H32.2702L32.392 25.2811ZM41.2312 25.6136C41.7588 25.5176 41.9875 25.2515 41.9875 24.749C41.9875 24.3315 41.8326 24.0913 41.4747 23.9472C41.2755 23.8659 41.2165 23.8622 39.822 23.8511L38.3721 23.84V23.2304V22.6207L37.9405 22.6318L37.5052 22.6429L37.4941 24.1504L37.4867 25.6543H39.2502C40.368 25.6543 41.0947 25.6395 41.2312 25.6136Z" fill="#FDFCF9"></path><path d="M27.4295 24.923C27.3335 24.8971 27.2266 24.8012 27.2266 24.7385C27.2266 24.7127 27.2819 24.6573 27.3483 24.6168C27.459 24.5467 27.5365 24.543 28.7502 24.543H30.034L30.023 24.7385L30.0119 24.9303L28.7576 24.934C28.0677 24.9377 27.47 24.934 27.4295 24.923Z" fill="#FDFCF9"></path><path d="M38.375 24.7459V24.543H39.6256C40.4151 24.543 40.9131 24.5577 40.9869 24.5835C41.1861 24.65 41.1861 24.8381 40.9869 24.9082C40.9131 24.934 40.4262 24.9488 39.6256 24.9488H38.375V24.7459Z" fill="#FDFCF9"></path><path d="M0.8125 27.9763C0.8125 27.9136 0.845703 27.9062 1.18142 27.9062C1.5282 27.9062 1.55033 27.9099 1.55033 27.98C1.55033 28.0538 1.53189 28.0575 1.18142 28.0501C0.845703 28.0464 0.8125 28.0391 0.8125 27.9763Z" fill="#FDFCF9"></path><path d="M27.1172 19.9996C27.1172 19.9368 27.143 19.9258 27.2648 19.9258C27.3865 19.9258 27.4123 19.9368 27.4123 19.9996C27.4123 20.0623 27.3865 20.0733 27.2648 20.0733C27.143 20.0733 27.1172 20.0623 27.1172 19.9996Z" fill="#FDFCF9"></path><path d="M0.753684 19.936C0.513888 19.9249 0.484375 19.9138 0.484375 19.8511C0.484375 19.781 0.513888 19.7773 1.0562 19.7773C1.58744 19.7773 1.62802 19.781 1.62802 19.8474C1.62802 19.9028 1.58744 19.9175 1.40298 19.9397C1.27755 19.9507 1.14105 19.9581 1.09678 19.9544C1.05251 19.9507 0.897562 19.9397 0.753684 19.936Z" fill="#FDFCF9"></path><path d="M10.6849 28.8037C8.86616 28.7187 7.96232 28.6448 5.96279 28.4231C4.6642 28.279 3.05573 28.1349 2.47653 28.109C2.22197 28.0979 1.88995 28.0758 1.73869 28.061C1.58744 28.0462 1.24065 28.0388 0.975034 28.0425L0.484375 28.0536V27.7026V27.3516H0.919697C1.4989 27.3516 2.74952 27.4144 3.56483 27.4809C4.16985 27.5326 4.57197 27.5733 6.64529 27.795C7.81475 27.9206 8.05086 27.9428 8.54521 27.9797C8.81083 28.0019 9.24246 28.0388 9.50439 28.061C10.1758 28.1238 14.2228 28.1238 14.9459 28.061C16.0527 27.9649 17.0893 27.8615 17.7312 27.7913C18.3436 27.7248 19.5906 27.5954 20.5719 27.4994C21.5606 27.4033 22.3796 27.3737 23.929 27.3737C25.5486 27.3737 26.2495 27.4033 27.4264 27.5178C27.7252 27.5474 28.2232 27.5991 28.5331 27.6287C28.8393 27.6582 29.3779 27.7174 29.721 27.758C30.0678 27.795 30.7319 27.8615 31.1967 27.9058C31.6652 27.9465 32.2186 27.9982 32.4326 28.0167C33.7496 28.146 37.1842 28.1571 38.5935 28.0388C39.8589 27.9317 41.4784 27.7728 41.637 27.7358C41.7108 27.7211 42.8766 27.6028 43.6476 27.5363C43.8616 27.5141 44.094 27.492 44.1641 27.4809C44.3892 27.4476 46.4477 27.3516 46.979 27.3516H47.4844V27.7026V28.0536L46.9236 28.0499C45.6914 28.0499 44.3154 28.1497 41.7477 28.4231C39.2317 28.6928 38.9624 28.715 37.4867 28.7926C36.0406 28.8665 33.5504 28.8185 32.0083 28.6854C31.3627 28.63 30.0272 28.5007 29.887 28.4785C29.1271 28.3677 26.5742 28.1349 25.5892 28.0906C24.2426 28.0277 22.291 28.0499 21.1622 28.146C20.4907 28.2014 19.1958 28.327 18.3399 28.4231C15.4587 28.7446 14.0642 28.8332 12.1237 28.8222C11.456 28.8185 10.8067 28.8111 10.6849 28.8037Z" fill="#E9C166"></path><path d="M10.2982 21.2186C9.21363 21.1706 7.33585 21.0154 6.25861 20.8861C4.39558 20.6607 2.11198 20.4796 1.10484 20.4796H0.48506V20.1471L0.484375 19.7695L0.978723 19.7732C1.25172 19.7769 1.48194 19.7806 1.50079 19.7847C1.63025 19.7673 3.96764 19.9217 6.20327 20.1655C10.9291 20.6828 13.5853 20.6865 17.9348 20.184C18.6247 20.1064 20.3402 19.9365 20.4619 19.9365C20.5025 19.9365 20.7275 19.9143 20.9599 19.8921C21.5687 19.833 22.834 19.7776 23.1476 19.7961C23.2915 19.8071 23.7305 19.8145 24.1142 19.8145C25.6009 19.8145 25.9145 19.8219 26.5527 19.8736C26.9179 19.9032 27.2463 19.9291 27.2869 19.9328C27.4344 19.9402 29.1683 20.1138 29.7881 20.184C30.5518 20.269 32.2709 20.4279 33.0604 20.4796C34.6172 20.5905 37.1775 20.5646 38.8708 20.4279C39.1955 20.402 39.4943 20.3799 39.5349 20.3762C39.6419 20.3762 40.5974 20.2727 41.7115 20.1508C42.2391 20.0916 42.8773 20.0214 43.1318 19.9993C43.3864 19.9771 43.6299 19.9549 43.6741 19.9475C43.6845 19.9458 43.6941 19.9451 43.7025 19.9452C43.73 19.9456 43.7453 19.9547 43.7369 19.966C43.7258 19.9845 43.7701 19.9993 43.8291 19.9993C43.8918 19.9993 43.9435 19.9845 43.9435 19.966C43.9435 19.944 44.0009 19.9263 44.1722 19.9065C44.3169 19.8897 44.5429 19.8715 44.8842 19.8478C45.5077 19.8071 47.2932 19.7961 47.415 19.833C47.4777 19.8552 47.4851 19.8921 47.4851 20.1619V20.4685L46.3894 20.4907C45.7843 20.5055 45.124 20.5313 44.9211 20.5498C44.7182 20.5683 44.3124 20.6052 44.0172 20.6274C43.4048 20.6718 42.5748 20.753 41.9329 20.8306C38.9889 21.1817 36.7053 21.2999 34.3221 21.226C33.5363 21.2001 32.603 21.1558 32.2488 21.1262C31.4446 21.0597 29.8471 20.9045 29.1868 20.8306C26.8073 20.5609 25.6083 20.4796 23.8928 20.4796C22.3139 20.4796 20.5873 20.5868 18.8202 20.7974C17.4663 20.9563 15.7139 21.1225 14.7806 21.1817C13.9431 21.2371 11.1984 21.2593 10.2982 21.2186Z" fill="#E9C166"></path><path d="M43.7025 19.9452C43.73 19.9456 43.7453 19.9547 43.7369 19.966C43.7258 19.9845 43.7701 19.9993 43.8291 19.9993C43.8918 19.9993 43.9435 19.9845 43.9435 19.966C43.9435 19.944 44.0009 19.9263 44.1722 19.9065L43.7025 19.9452Z" fill="#E9C166"></path></g><defs><clipPath id="clip0_858_108740"><rect x="0.484375" y="0.785156" width="47" height="47" rx="23.5" fill="white"></rect></clipPath></defs></svg> 