<svg width="1014" height="292" viewBox="0 0 1014 292" fill="none" xmlns="http://www.w3.org/2000/svg">
<path d="M65.8921 204.072C65.8921 218.49 77.2734 225.7 100.036 225.7C122.799 225.7 134.18 218.49 134.18 204.072V85.5926C134.18 71.1745 122.799 63.9654 100.036 63.9654C77.2734 63.9654 65.8921 71.1745 65.8921 85.5926V204.072ZM0 87.7868C0 70.2341 8.58596 56.6519 25.7579 47.0397C42.9297 37.4276 67.6892 32.6216 100.036 32.6216C132.383 32.6216 157.143 37.4276 174.315 47.0397C191.487 56.6519 200.072 70.2341 200.072 87.7868V201.878C200.072 219.431 191.487 233.013 174.315 242.625C157.143 252.237 132.383 257.043 100.036 257.043C67.6892 257.043 42.9297 252.237 25.7579 242.625C8.58596 233.013 0 219.431 0 201.878V87.7868Z" fill="#4E4E4E"/>
<path d="M351.112 254.536C347.119 248.267 345.122 239.282 345.122 227.58V193.101C345.122 174.504 330.745 165.205 301.993 165.205H279.23V254.536H213.338V35.1288H312.775C377.869 35.1288 410.415 51.95 410.415 85.5923V102.832C410.415 125.399 396.039 140.235 367.286 147.34C396.438 153.817 411.014 169.385 411.014 194.042V227.894C411.014 239.804 413.41 248.685 418.203 254.536H351.112ZM279.23 66.4726V133.862H304.988C331.345 133.862 344.523 126.131 344.523 110.667V89.0399C344.523 73.9951 333.342 66.4726 310.978 66.4726H279.23Z" fill="#4E4E4E"/>
<path d="M650.926 35.1288H716.818V223.192H825.238V254.536H650.926V35.1288Z" fill="#4E4E4E"/>
<path d="M900.186 127.593H990.641V158.937H900.186V223.192H1014V254.536H834.291V35.1288H1014V66.4726H900.186V127.593Z" fill="#4E4E4E"/>
<path d="M476.582 290.903H476.594L476.605 290.903C505.264 290.243 532.605 281.337 558.614 264.218L558.621 264.213C585.075 246.486 609.708 225.153 632.521 200.215C655.802 175.331 677.275 151.427 696.939 128.503C700.211 125.043 701.852 120.873 701.852 116.046C701.852 114.362 701.658 112.955 701.174 111.934C700.926 111.411 700.584 110.951 700.118 110.624C699.643 110.29 699.099 110.135 698.524 110.135C697.372 110.135 696.165 110.835 694.969 111.844C693.734 112.886 692.332 114.414 690.764 116.397C681.471 127.505 669.074 141.237 653.565 157.594C638.066 173.943 621.274 190.293 603.187 206.646C585.119 222.327 567.317 235.716 549.781 246.814C532.276 257.239 516.941 262.382 503.743 262.382C491.113 262.382 481.611 257.612 475.09 248.099C469.011 238.474 465.942 226.561 465.942 212.306C465.942 191.519 471.074 169.722 481.374 146.907C491.686 124.065 504.574 103.186 520.038 84.2648L520.038 84.2644C536.031 64.6744 551.461 50.6955 566.318 42.2653L566.32 42.2645C576.578 36.4215 585.717 33.5554 593.762 33.5554C602.349 33.5554 608.771 36.1048 613.191 41.0776L613.208 41.0973L613.227 41.116C618.202 46.1539 620.698 52.4437 620.698 60.0582C620.698 68.3304 617.68 77.6477 611.526 88.0334C605.42 98.3379 594.945 108.714 580.015 119.142C566.634 127.609 552.741 134.447 538.338 139.657C524.387 144.234 514.175 146.478 507.623 146.478C503.969 146.478 501.112 146.804 499.135 147.52C498.141 147.879 497.301 148.36 496.703 149.01C496.084 149.682 495.759 150.495 495.759 151.407C495.759 152.456 496.098 153.402 496.77 154.2C497.427 154.98 498.363 155.572 499.495 156.02C501.743 156.909 505 157.318 509.175 157.318C520.174 157.318 532.954 154.999 547.502 150.396L547.516 150.391L547.53 150.386C562.58 145.131 575.831 139.214 587.276 132.629L587.289 132.621L587.301 132.614C605.505 121.422 619.335 108.556 628.745 93.9988C638.642 78.8347 643.651 64.5679 643.651 51.218C643.651 37.1844 638.358 25.4569 627.807 16.1025C617.201 6.04211 601.13 1.10583 579.793 1.10583C558.412 1.10583 536.795 6.38738 514.949 16.9209L514.941 16.9251C493.616 27.4584 473.866 42.2637 455.688 61.3262C437.493 79.7521 422.942 101.463 412.032 126.451C401.11 151.468 395.652 178.453 395.652 207.395C395.652 234.432 403.212 255.352 418.464 269.997L418.479 270.011L418.494 270.024C434.216 283.954 453.601 290.903 476.582 290.903Z" fill="white" stroke="#4E4E4E" stroke-width="2"/>
</svg>
