<svg width="64" height="64" viewBox="0 0 64 64" fill="none" xmlns="http://www.w3.org/2000/svg">
<rect width="64" height="64" rx="32" fill="#09080A"/>
<path d="M10.3814 28.477H11.8505L14.4047 34.7136H14.4987L17.0529 28.477H18.5219V36.5H17.3702V30.6943H17.2957L14.9296 36.4882H13.9737L11.6076 30.6904H11.5332V36.5H10.3814V28.477ZM20.7389 36.5H19.454L22.3412 28.477H23.7397L26.6269 36.5H25.3419L23.0737 29.9343H23.011L20.7389 36.5ZM20.9544 33.3582H25.1226V34.3767H20.9544V33.3582ZM27.5648 36.5V28.477H30.4246C31.0461 28.477 31.5619 28.5841 31.972 28.7983C32.3846 29.0124 32.6928 29.3088 32.8965 29.6875C33.1002 30.0636 33.202 30.4985 33.202 30.9921C33.202 31.483 33.0989 31.9153 32.8926 32.2887C32.6889 32.6596 32.3807 32.9482 31.968 33.1545C31.558 33.3608 31.0422 33.464 30.4207 33.464H28.2543V32.4219H30.311C30.7027 32.4219 31.0213 32.3658 31.2668 32.2535C31.5149 32.1412 31.6964 31.9779 31.8113 31.7638C31.9263 31.5496 31.9837 31.2924 31.9837 30.9921C31.9837 30.6891 31.925 30.4266 31.8074 30.2046C31.6925 29.9827 31.511 29.8129 31.2629 29.6954C31.0174 29.5752 30.6949 29.5152 30.2953 29.5152H28.7753V36.5H27.5648ZM31.5254 32.8803L33.5076 36.5H32.1287L30.1856 32.8803H31.5254ZM34.4544 36.5V28.477H35.6649V32.3083H35.7628L39.1279 28.477H40.6518L37.416 32.0889L40.6636 36.5H39.2063L36.6129 32.9155L35.6649 34.0046V36.5H34.4544ZM41.5594 36.5V28.477H46.5894V29.5191H42.7699V31.9636H46.327V33.0017H42.7699V35.458H46.6364V36.5H41.5594ZM47.5901 29.5191V28.477H53.7992V29.5191H51.296V36.5H50.0894V29.5191H47.5901Z" fill="white"/>
</svg>
