<?xml version="1.0" encoding="UTF-8"?> <svg xmlns="http://www.w3.org/2000/svg" width="40" height="40" viewBox="0 0 40 40" fill="none"> <g clip-path="url(#clip0_544_1518)"> <path d="M22.1927 38.9992C21.298 38.9832 20.4746 38.669 19.6609 38.3532C17.8386 37.6463 16.1142 36.7462 14.5565 35.5552C13.5655 34.7969 12.6508 33.9546 11.9373 32.9166C11.1179 31.7248 10.9448 30.3887 11.0137 28.9821C11.1043 27.1419 11.8876 25.5589 12.7887 24.0136C13.1839 23.3364 13.5928 22.6663 13.9784 21.9834C14.2422 21.517 14.2815 21.0008 14.2574 20.4742C14.2021 19.26 13.8926 18.0866 13.6882 16.8963C13.5495 16.0908 13.4437 15.2869 13.5824 14.4694C13.7483 13.4916 14.5484 13.0484 15.3918 13.0051C16.398 12.9538 17.1492 13.4331 17.7617 14.1785C17.9613 14.4213 18.1489 14.6762 18.294 14.9583C18.379 15.1234 18.4439 15.1948 18.593 14.9792C18.9674 14.4374 19.3386 13.8899 19.7739 13.3922C20.4995 12.5627 21.3846 12.1347 22.4917 12.44C23.5371 12.7286 24.0855 13.6695 23.9452 14.7459C23.8089 15.7935 23.3167 16.696 22.8332 17.6017C22.3105 18.5811 21.759 19.5445 21.2106 20.5103C21.1056 20.6946 21.1272 20.7419 21.3389 20.8004C22.1117 21.0128 22.7451 21.4336 23.1627 22.1365C23.2573 22.2952 23.4008 22.296 23.5556 22.312C24.3589 22.3954 25.1109 22.591 25.6753 23.2362C25.9823 23.5864 26.1531 23.9944 26.2301 24.4384C26.2653 24.6412 26.3359 24.7141 26.5307 24.7358C27.2835 24.8199 27.8848 25.1646 28.284 25.821C28.5037 26.1817 28.6039 26.5904 28.636 27.0032C28.8316 29.5023 28.3842 31.9252 27.6908 34.308C27.3597 35.447 26.6814 36.3847 25.8068 37.1902C25.2199 37.7304 24.6363 38.2658 23.9051 38.6097C23.3624 38.8645 22.7948 39.0056 22.1911 39.0008L22.1927 38.9992ZM12.1281 29.4967C12.1385 30.5362 12.3005 31.5373 12.9346 32.4069C13.5792 33.2893 14.3793 34.0187 15.2451 34.6695C16.9928 35.9824 18.9402 36.9201 20.9925 37.6519C21.9337 37.9877 22.8461 37.9877 23.7263 37.4651C24.0446 37.2768 24.3108 37.0227 24.5906 36.7871C25.4757 36.0401 26.222 35.1913 26.5756 34.0564C27.2723 31.8234 27.6378 29.5439 27.5336 27.2004C27.5 26.4381 27.1817 26.0318 26.562 25.8523C26.3166 25.7809 26.2228 25.8499 26.1844 26.0767C26.0328 26.9647 25.7218 27.8007 25.3177 28.6006C24.9529 29.3219 24.5288 30.004 23.8706 30.5041C23.5981 30.7109 23.3407 30.6909 23.1138 30.4488C22.907 30.2292 22.9038 29.8998 23.1435 29.6826C24.1031 28.8138 24.5753 27.6741 24.9409 26.4774C25.1173 25.9011 25.1742 25.3064 25.1421 24.7021C25.1045 24.0104 24.1095 23.2522 23.4417 23.4085C23.3215 23.4365 23.3135 23.5247 23.295 23.6121C22.903 25.4723 21.9546 27.0745 20.9452 28.6455C20.7616 28.9316 20.4233 28.9909 20.1732 28.8298C19.9086 28.6583 19.8413 28.3617 20.0217 28.0548C20.4329 27.3511 20.8699 26.6626 21.2354 25.9324C21.6275 25.1501 21.9971 24.3559 22.1678 23.4919C22.2352 23.1528 22.3306 22.7801 22.046 22.4715C21.8279 22.2351 21.5698 22.046 21.2619 21.9554C20.5259 21.7374 20.4049 21.7189 20.1395 22.3401C20.1155 22.3954 20.0762 22.4435 20.0449 22.4956C19.1197 24.0441 18.197 25.595 17.2662 27.1411C17.0995 27.4176 16.7659 27.4841 16.4926 27.323C16.2657 27.1892 16.1783 26.8565 16.3066 26.5936C16.3643 26.475 16.43 26.3596 16.4974 26.2458C18.217 23.3316 19.9776 20.4414 21.6074 17.4758C22.1173 16.5485 22.6761 15.6404 22.8421 14.5656C22.9086 14.1368 22.7346 13.7761 22.3458 13.587C21.8399 13.3409 21.387 13.4828 20.9757 13.7994C20.457 14.1985 20.1363 14.7644 19.7699 15.2901C17.5476 18.4769 15.4063 21.7157 13.479 25.0916C12.6973 26.4606 12.0984 27.88 12.1281 29.4959V29.4967ZM15.359 19.716C15.4343 19.7264 15.4383 19.6775 15.4592 19.6455C16.0244 18.7871 16.588 17.9279 17.1556 17.0711C17.7416 16.187 17.7472 16.1614 17.1708 15.2613C16.8036 14.6882 16.3555 14.2234 15.6307 14.1224C15.1601 14.0566 14.8018 14.2586 14.6759 14.7059C14.5332 15.2124 14.6238 15.7222 14.7096 16.2207C14.91 17.3861 15.1401 18.5474 15.359 19.7152V19.716Z" fill="#4E4E4E"></path> </g> <path d="M22.0245 4.70955C21.6965 7.27241 19.8914 9.15563 18.3105 11.0741C16.8719 9.29677 15.1002 7.72646 14.2593 5.55153C13.829 4.43889 13.5394 2.85786 14.3694 1.85332C14.7452 1.39846 15.4443 1.62454 15.8818 1.89038C16.3914 2.20032 16.7773 2.68071 17.0656 3.19898C17.7273 4.38831 17.8703 5.78749 18.0026 7.1195C18.0169 7.26418 18.9261 6.80426 18.972 6.60217C19.3016 5.15159 19.6323 3.6402 20.4194 2.35971C20.6162 2.03976 20.7872 1.69958 21.2176 1.8305C21.5718 1.93813 21.7294 2.25337 21.8418 2.57932C22.0768 3.26026 22.1155 3.99861 22.0245 4.70955ZM23.0213 3.05865C22.9727 2.4958 22.8615 1.66688 22.3504 1.33141C21.3455 0.671638 19.9953 1.91955 19.5087 2.71294C19.1642 3.27426 18.9026 3.87393 18.6888 4.49265C18.5446 3.7997 18.327 3.12734 17.9637 2.51709C17.3009 1.40293 16.1432 0.645053 14.859 1.17014C13.5366 1.71087 12.8089 2.88938 12.8888 4.32067C12.9679 5.73773 13.6313 7.04539 14.4424 8.17579C15.403 9.51558 16.598 10.6612 17.6031 11.9646C17.598 11.9717 17.5926 11.9775 17.5873 11.9846C17.4945 12.1081 17.599 12.1175 17.7072 12.1022C17.7439 12.1504 17.7807 12.1986 17.8168 12.2469C17.964 12.448 18.8956 11.8375 18.7835 11.6846C18.7304 11.6128 18.6764 11.5411 18.6219 11.4693C20.2156 9.39909 22.266 7.51355 22.8815 4.87223C23.0202 4.27762 23.0741 3.66784 23.0213 3.05865Z" fill="#4E4E4E"></path> <defs> <clipPath id="clip0_544_1518"> <rect width="17.6832" height="34.9901" fill="white" transform="translate(11 4.00989)"></rect> </clipPath> </defs> </svg> 