<?xml version="1.0" standalone="no"?>
<!DOCTYPE svg PUBLIC "-//W3C//DTD SVG 20010904//EN"
 "http://www.w3.org/TR/2001/REC-SVG-20010904/DTD/svg10.dtd">
<svg version="1.0" xmlns="http://www.w3.org/2000/svg"
 width="656.000000pt" height="656.000000pt" viewBox="0 0 656.000000 656.000000"
 preserveAspectRatio="xMidYMid meet">
<metadata>
Created by potrace 1.14, written by Peter Selinger 2001-2017
</metadata>
<g transform="translate(0.000000,656.000000) scale(0.100000,-0.100000)"
fill="#000000" stroke="none">
<path d="M3647 6334 c-2 -2 -23 -6 -48 -8 -24 -3 -71 -8 -104 -11 -207 -22
-535 -112 -800 -220 -124 -50 -407 -192 -413 -207 -2 -5 -9 -8 -15 -8 -6 0
-27 -10 -46 -23 -20 -13 -81 -53 -136 -88 -86 -56 -341 -241 -355 -258 -5 -6
-97 -84 -150 -126 -36 -30 -368 -361 -425 -426 -111 -125 -213 -251 -263 -326
-19 -29 -39 -53 -43 -53 -5 0 -9 -5 -9 -10 0 -6 -12 -28 -27 -49 -16 -21 -33
-47 -40 -57 -7 -11 -28 -43 -47 -71 -19 -29 -32 -53 -28 -53 4 0 2 -4 -4 -8
-6 -4 -26 -34 -45 -67 -19 -33 -39 -69 -46 -80 -20 -34 -203 -403 -203 -410 0
-4 -7 -23 -16 -43 -31 -70 -34 -77 -55 -132 -21 -55 -66 -181 -74 -210 -2 -8
-14 -49 -25 -90 -25 -85 -24 -82 -35 -133 -4 -20 -11 -40 -16 -43 -5 -3 -7 -9
-4 -13 2 -5 0 -23 -6 -42 -5 -19 -12 -50 -15 -69 -3 -19 -7 -42 -10 -50 -8
-22 -18 -91 -19 -122 0 -16 -2 -28 -6 -28 -3 0 -6 -19 -8 -42 -1 -23 -4 -44
-6 -48 -4 -7 -19 -154 -31 -300 -8 -110 -4 -585 6 -585 1 0 3 -16 6 -35 12
-99 19 -139 38 -235 10 -45 65 -226 80 -260 8 -16 26 -59 42 -95 16 -36 41
-87 56 -113 15 -26 28 -52 28 -57 0 -6 5 -10 10 -10 6 0 10 -5 10 -10 0 -10
82 -128 125 -179 53 -64 168 -173 240 -227 87 -65 226 -154 241 -154 6 0 16
-6 22 -13 7 -6 16 -12 20 -13 4 0 30 -11 57 -24 109 -50 166 -72 220 -87 6 -1
44 -12 85 -24 41 -11 84 -23 95 -25 11 -2 31 -6 45 -9 25 -6 46 -8 165 -23
123 -15 478 -8 595 12 14 2 48 8 75 12 28 4 55 8 60 10 6 1 26 4 45 8 19 3 82
17 140 32 58 14 112 27 120 29 80 20 341 117 445 166 39 18 72 33 75 34 54 14
489 273 498 296 2 5 8 9 13 9 9 0 66 37 79 50 3 3 36 28 74 54 38 27 131 97
207 157 142 110 145 113 190 152 14 12 50 42 79 67 29 25 63 54 76 65 12 11
53 47 90 80 90 78 522 511 644 645 52 57 112 121 133 142 20 21 37 40 37 42 0
3 19 24 43 48 53 56 204 221 253 277 20 23 53 59 73 79 20 21 56 61 81 91 25
29 56 65 70 80 63 69 110 121 165 186 33 39 69 79 80 90 11 11 42 47 70 80 27
33 64 76 82 95 57 63 133 161 150 193 9 18 21 35 27 39 6 4 8 8 4 8 -4 0 2 20
13 45 46 103 57 295 24 397 -67 204 -249 309 -455 263 -105 -23 -187 -87 -337
-265 -40 -47 -84 -98 -98 -115 -15 -16 -50 -57 -78 -89 -46 -52 -77 -87 -187
-207 -334 -365 -667 -701 -1064 -1074 -68 -63 -199 -180 -266 -235 -23 -19
-47 -40 -53 -45 -20 -17 -133 -108 -163 -132 -16 -12 -56 -44 -90 -70 -33 -27
-89 -68 -123 -93 -35 -25 -75 -54 -90 -66 -27 -22 -264 -181 -341 -230 -101
-64 -359 -185 -423 -199 -12 -2 -47 -11 -77 -19 -157 -43 -313 -34 -402 25
-31 20 -92 91 -93 107 -1 4 -8 21 -18 39 -21 39 -44 107 -52 152 -3 19 -8 37
-10 41 -9 14 -18 150 -18 250 1 133 11 258 28 340 3 14 7 42 10 62 6 45 71
302 86 341 11 26 42 37 53 18 5 -8 75 -30 116 -37 77 -13 129 -17 210 -17 105
0 249 10 271 17 8 3 32 8 54 10 64 9 106 16 175 33 36 8 74 17 85 19 51 9 237
67 338 105 197 73 567 236 587 258 3 3 32 20 64 36 85 43 310 194 361 243 8 6
18 12 23 12 6 0 12 3 14 8 2 4 30 29 63 56 100 82 296 285 373 386 40 52 76
100 80 105 11 15 89 140 114 183 64 111 171 349 182 406 3 12 12 44 20 71 9
28 19 70 22 95 3 25 8 48 10 51 7 13 18 146 18 224 -1 389 -144 691 -449 947
-89 75 -93 78 -99 78 -3 0 -22 12 -43 26 -90 61 -348 161 -463 179 -19 3 -42
8 -50 10 -8 2 -37 7 -65 11 -27 3 -61 8 -75 11 -29 5 -498 12 -503 7z m573
-1259 c13 -4 33 -17 44 -29 23 -23 59 -76 52 -76 -2 0 0 -16 4 -35 4 -19 5
-35 1 -35 -3 0 -7 -21 -7 -48 -5 -148 -155 -403 -333 -567 -30 -27 -63 -58
-73 -67 -63 -62 -349 -258 -376 -258 -5 0 -12 -5 -14 -11 -2 -5 -10 -11 -18
-12 -8 -2 -37 -16 -65 -32 -27 -17 -52 -30 -55 -30 -3 0 -33 -15 -67 -33 -35
-17 -63 -28 -63 -24 0 4 -4 2 -8 -4 -8 -12 -277 -121 -312 -126 -3 0 -29 -9
-59 -19 -67 -23 -230 -63 -303 -74 -31 -5 -30 5 9 67 13 21 23 42 23 48 0 6 7
13 15 16 8 4 15 10 15 15 0 12 52 93 63 97 4 2 7 8 7 12 0 12 185 276 210 300
3 3 28 33 55 68 28 35 61 76 75 92 14 16 48 55 75 86 53 62 245 255 311 314
82 74 233 188 299 227 83 49 233 116 295 132 74 18 153 21 200 6z"/>
</g>
</svg>
