<svg width="35" height="32" viewBox="0 0 35 32" fill="none" xmlns="http://www.w3.org/2000/svg">
<path d="M19.0741 10.9533C19.0521 10.6785 22.4582 10.2841 22.7998 10.2611C24.7366 10.1074 26.6847 10.4041 28.4938 11.1285C30.303 11.8528 31.9249 12.9854 33.2346 14.439C34.0235 15.2704 34.5706 16.304 34.8159 17.4259C35.0612 18.5478 34.9951 19.7148 34.6249 20.7984C33.2528 24.5315 28.4256 26.3955 24.8652 27.0886C21.7066 27.704 18.4648 27.7738 15.3657 28.6395C13.1151 29.1285 10.957 29.9732 8.9712 31.1424C8.48874 31.5029 7.94631 31.7741 7.36908 31.9433C6.34437 32.1298 5.35273 30.8336 5.06801 29.9697C4.69296 28.831 5.14815 27.4496 5.07688 26.26C4.99167 25.0589 4.75856 23.8724 4.38291 22.7279C2.89474 17.7062 -1.58236 12.9308 0.854503 7.48066C2.9263 2.23343 7.5642 -0.872168 13.1233 1.28228C16.8976 2.77604 18.7244 7.1249 19.0741 10.9533ZM9.31038 26.1262C14.7268 22.7884 21.4966 24.4531 27.2756 22.2067C28.604 21.6906 30.5143 20.7188 30.6336 19.0713C30.7542 17.4004 28.9808 15.8296 27.6894 15.0768C25.6885 14.0257 23.3654 13.7934 21.2064 14.4287C19.7375 14.8128 18.4944 15.6599 16.9659 15.9038C16.7042 15.9705 16.4306 15.9765 16.1657 15.9212C15.9008 15.8659 15.6516 15.7509 15.4367 15.5847C14.3633 14.8256 14.2993 13.6284 14.4347 12.4206C14.5252 10.8737 14.4304 9.32049 14.1526 7.79462C13.5586 4.93327 10.4275 4.23898 8.04494 5.24714C6.86624 5.74687 5.86822 6.59735 5.18376 7.68535C4.4993 8.77336 4.16087 10.0473 4.21355 11.3374C4.33881 12.5055 4.68402 13.6397 5.23066 14.6793C6.16665 16.4909 7.00838 18.3501 7.75242 20.2493C8.11834 21.2126 8.4295 22.1959 8.68436 23.1943C8.92951 24.1646 8.97924 25.1769 9.31038 26.1262Z" fill="#FF4BAC"/>
</svg>
