<?xml version="1.0" encoding="UTF-8"?> <svg xmlns="http://www.w3.org/2000/svg" width="40" height="40" viewBox="0 0 40 40" fill="none"> <path d="M29.732 36.1686L28.4766 32H29.5153L30.274 34.8414L31.0327 32H31.9811L30.7256 36.1686V38.2351H29.732V36.1686Z" fill="#4E4E4E"></path> <path d="M26.2949 32H27.2885V37.3443H28.9233V38.2351H26.2949V32Z" fill="#4E4E4E"></path> <path d="M22.6074 32H24.179C25.1666 32 25.6603 32.5136 25.6603 33.5409V36.6941C25.6603 37.7214 25.1666 38.2351 24.179 38.2351H22.6074V32ZM23.601 32.8907V37.3443H24.161C24.4982 37.3443 24.6668 37.1424 24.6668 36.7386V33.4964C24.6668 33.0926 24.4982 32.8907 24.161 32.8907H23.601Z" fill="#4E4E4E"></path> <path d="M19.6383 33.7191V38.2351H18.7441V32H19.9906L21.0112 35.7321V32H21.8964V38.2351H20.8758L19.6383 33.7191Z" fill="#4E4E4E"></path> <path d="M16.4213 34.6276H17.7852V35.5184H16.4213V37.3443H18.1374V38.2351H15.4277V32H18.1374V32.8907H16.4213V34.6276Z" fill="#4E4E4E"></path> <path d="M13.709 32H14.7025V38.2351H13.709V32Z" fill="#4E4E4E"></path> <path d="M12.1497 38.2351C12.0895 38.0569 12.0594 37.8016 12.0594 37.469V36.4892C12.0594 35.9607 11.8426 35.6965 11.409 35.6965H11.0658V38.2351H10.0723V32H11.5716C12.5531 32 13.0439 32.478 13.0439 33.4341V33.924C13.0439 34.5653 12.8271 34.9869 12.3936 35.1888C12.8331 35.3729 13.0529 35.8153 13.0529 36.516V37.4779C13.0529 37.8164 13.089 38.0688 13.1613 38.2351H12.1497ZM11.0658 32.8907V34.8058H11.4542C11.8516 34.8058 12.0503 34.5861 12.0503 34.1466V33.532C12.0503 33.1045 11.8817 32.8907 11.5445 32.8907H11.0658Z" fill="#4E4E4E"></path> <path d="M7.9623 34.7701H9.24488V35.6609H7.9623V38.2351H6.96875V32H9.59714V32.8907H7.9623V34.7701Z" fill="#4E4E4E"></path> <g clip-path="url(#clip0_544_1453)"> <path d="M19.2966 6.02577C19.2639 5.83409 19.2107 5.64241 19.1351 5.45074C19.0594 5.25906 18.9673 5.08958 18.8589 4.94027C18.7301 4.79096 18.6114 4.71631 18.503 4.71631C18.3946 4.71631 18.2432 4.74254 18.0489 4.79701C17.8546 4.84947 17.5519 4.93018 17.1428 5.03712C16.2366 5.29336 15.3878 5.54758 14.6003 5.80383C13.8127 6.06007 13.0457 6.33044 12.3011 6.61896C11.5566 6.90749 10.812 7.21619 10.0675 7.54507C9.32295 7.87596 8.52931 8.24318 7.68657 8.64671C6.58611 9.17937 5.6902 9.65352 4.99883 10.0692C4.30746 10.4848 3.80018 10.8742 3.477 11.2354C3.15382 11.5985 2.99018 11.9537 2.99018 12.3047C2.99018 12.6558 3.13132 13.0351 3.41154 13.4387C3.49745 13.5456 3.60996 13.6566 3.75109 13.7736C3.89223 13.8906 4.01496 13.9491 4.12337 13.9491C4.27473 13.9491 4.36064 13.8543 4.38314 13.6626C4.4261 13.4931 4.59792 13.2793 4.90065 13.023C5.20338 12.7668 5.5327 12.5226 5.88861 12.2886C6.24452 12.0545 6.56975 11.8568 6.8602 11.6974C7.15066 11.538 7.30816 11.4694 7.33066 11.4896C7.11384 12.5751 6.91952 13.5294 6.7477 14.3486C6.57384 15.1678 6.38566 16.0697 6.18111 17.0482C5.97656 18.0288 5.77611 18.965 5.58179 19.8588C5.17065 20.1353 4.83724 20.3754 4.57746 20.5771C4.31769 20.7789 4.18882 21.0513 4.18882 21.3923C4.18882 21.6263 4.22564 21.8402 4.30132 22.0319C4.37701 22.2235 4.46905 22.395 4.57746 22.5423C4.68587 22.7138 4.81474 22.8732 4.9661 23.0225C4.90065 23.299 4.8311 23.6399 4.75542 24.0455C4.67974 24.451 4.61019 24.8344 4.54473 25.1956C4.47928 25.5587 4.39337 25.9945 4.28496 26.505C3.93928 26.6967 3.65291 26.8521 3.42586 26.9691C3.19882 27.0861 2.97177 27.2092 2.74472 27.3363C2.51768 27.4634 2.34995 27.5804 2.24358 27.6874C2.09222 27.8145 2.01244 27.9638 2.00017 28.1353C1.98994 28.3048 2.01654 28.4763 2.08199 28.6458C2.14745 28.8152 2.23336 28.9807 2.34177 29.1401C2.45018 29.2995 2.54631 29.4326 2.63222 29.5396C2.80404 29.7091 2.94518 29.8261 3.05359 29.8906C3.13745 29.9411 3.26018 29.9693 3.42177 29.9814C4.50178 29.3196 5.56133 28.6054 6.6577 27.9799C7.39407 27.5602 8.19385 27.2576 9.00999 27.0114C9.50499 26.8137 9.98159 26.6341 10.4377 26.4727C11.4093 26.1317 12.2623 25.8493 12.9966 25.6253C13.7309 25.4014 14.3139 25.2319 14.7455 25.1148C15.1771 24.9978 15.4144 24.907 15.4573 24.8425C15.5432 24.7577 15.5657 24.5983 15.5228 24.3623C15.4798 24.1282 15.4041 23.8942 15.2957 23.6601C15.1873 23.4261 15.0625 23.2122 14.9234 23.0205C14.7823 22.8288 14.6473 22.734 14.5184 22.734C14.4755 22.734 14.3139 22.7723 14.0316 22.845C13.7514 22.9196 13.4262 23.0104 13.06 23.1174C12.6918 23.2243 12.2991 23.3474 11.8777 23.4846C11.4564 23.6238 11.0841 23.7449 10.7609 23.8518C9.48659 24.2775 8.52112 24.6286 7.86248 24.907C7.20384 25.1834 6.87452 25.3005 6.87452 25.2581C6.87452 25.2379 6.91134 25.0341 6.98702 24.6508C7.06271 24.2674 7.14248 23.8518 7.23043 23.4059C7.31634 22.958 7.39816 22.5443 7.47384 22.161C7.54953 21.7776 7.58634 21.5759 7.58634 21.5537C7.67225 21.4266 8.36362 21.0856 9.6584 20.5307C10.3068 20.2543 10.9164 20.0142 11.4891 19.8124C12.0618 19.6107 12.5691 19.4291 13.0109 19.2697C13.4527 19.1103 13.8087 18.9711 14.0787 18.854C14.3487 18.737 14.5041 18.6261 14.5491 18.5191C14.6146 18.3073 14.5859 18.0127 14.4673 17.6414C14.3487 17.2682 14.1809 16.9756 13.9662 16.7638C13.8373 16.6144 13.7187 16.5398 13.6102 16.5398C13.5243 16.5398 13.238 16.6245 12.7512 16.796C12.2643 16.9675 11.7264 17.1632 11.1311 17.3872C10.538 17.6112 9.95909 17.8351 9.39863 18.0591C8.83613 18.2831 8.44749 18.4384 8.23271 18.5232C8.38408 17.7141 8.51908 16.9998 8.63772 16.3824C8.75635 15.765 8.88522 15.1052 9.02635 14.4011C9.16749 13.6989 9.30249 13.0392 9.43136 12.4197C9.56022 11.8023 9.67477 11.2798 9.77091 10.854C9.86909 10.4283 9.92636 10.2043 9.94886 10.1821C9.97136 10.16 10.1759 10.0591 10.5645 9.8795C10.9532 9.69791 11.4871 9.47597 12.1682 9.20762C12.8493 8.94129 13.6634 8.64469 14.6125 8.3138C15.5616 7.9829 16.5987 7.65806 17.7216 7.33927C18.0878 7.23233 18.413 7.1375 18.6932 7.05276C18.9735 6.96802 19.1248 6.91354 19.1473 6.89336C19.2332 6.8288 19.2885 6.71783 19.3089 6.55843C19.3294 6.39904 19.3253 6.2235 19.2926 6.03182L19.2966 6.02577Z" fill="#4E4E4E"></path> <path d="M24.3407 22.4798C24.1566 22.3628 23.9562 22.2619 23.7414 22.1772C23.5246 22.0924 23.3302 22.05 23.1584 22.05C23.05 22.05 22.9743 22.0601 22.9314 22.0823C22.8659 22.1045 22.7473 22.2478 22.5755 22.5141C22.4016 22.7804 22.1909 23.0952 21.9434 23.4563C21.6959 23.8195 21.4198 24.2069 21.1171 24.6226C20.8143 25.0382 20.5014 25.4155 20.1782 25.7565C19.9614 25.9905 19.7364 26.2145 19.4991 26.4263C19.2618 26.6382 19.1309 26.725 19.1104 26.6826C19.0675 26.6402 19.0082 26.4425 18.9325 26.0914C18.8568 25.7403 18.7975 25.3408 18.7545 24.8929C18.6686 23.9144 18.6461 22.8167 18.6891 21.6021C18.732 20.3875 18.8445 19.1426 19.0286 17.8654C19.2127 16.5882 19.45 15.3151 19.7405 14.048C20.033 12.7809 20.3725 11.5986 20.7611 10.501C21.1498 9.40537 21.5711 8.44093 22.0232 7.60965C22.4773 6.77837 22.9621 6.15088 23.4796 5.72516C23.5225 5.74735 23.5777 5.90069 23.6412 6.18922C23.7066 6.47573 23.77 6.8611 23.8355 7.33928C23.9009 7.81747 23.9643 8.37233 24.0298 8.99982C24.0953 9.62933 24.1382 10.283 24.1587 10.965C24.2016 12.0081 24.2671 12.8455 24.353 13.473C24.4246 13.9935 24.4962 14.4152 24.5678 14.738C24.9237 15.2223 25.2714 15.9385 25.9648 15.9567C26.5539 15.9728 26.513 15.3191 26.5457 14.8652C26.5416 14.7945 26.5375 14.7259 26.5335 14.6614C26.5171 14.6029 26.4966 14.4778 26.4741 14.2881C26.4414 14.0117 26.4087 13.6445 26.3759 13.1865C26.3432 12.7285 26.3105 12.218 26.2798 11.653C26.2471 11.0881 26.2103 10.5292 26.1673 9.97636C26.1244 9.42353 26.0691 8.8949 26.0057 8.39452C25.9403 7.89414 25.8646 7.48456 25.7787 7.16375C25.6703 6.80259 25.525 6.43537 25.3409 6.06211C25.1568 5.69086 24.9298 5.35391 24.6618 5.05529C24.3918 4.75668 24.0891 4.50649 23.7557 4.30472C23.4202 4.10296 23.0602 4.00208 22.6716 4.00208C22.5857 4.00208 22.5039 4.00813 22.4282 4.01822C22.3525 4.0283 22.2605 4.04445 22.1521 4.06664C21.655 4.19375 21.1702 4.57307 20.6957 5.20056C20.2211 5.82806 19.7732 6.61696 19.3518 7.56526C18.9304 8.51356 18.5479 9.58897 18.2023 10.7915C17.8566 11.994 17.5538 13.2349 17.2961 14.5141C17.0363 15.7913 16.8318 17.0745 16.6804 18.3638C16.5291 19.6531 16.4432 20.8556 16.4207 21.9734C16.3982 23.0912 16.4575 24.0919 16.5986 24.9756C16.7397 25.8594 16.9607 26.5353 17.2634 27.0034C17.5007 27.3646 17.8627 27.6632 18.3475 27.8972C18.8343 28.1313 19.2925 28.2483 19.7241 28.2483C20.2641 28.2483 20.7939 28.0606 21.3114 27.6894C21.8289 27.3161 22.4241 26.7048 23.093 25.8533C23.2648 25.6395 23.455 25.3893 23.6596 25.1028C23.8641 24.8162 24.0523 24.5439 24.2262 24.2876C24.398 24.0314 24.5493 23.8034 24.6803 23.6016C24.8091 23.3999 24.8848 23.2667 24.9073 23.2021C24.9503 23.0952 24.9114 22.9782 24.7948 22.851C24.6762 22.7239 24.5248 22.6009 24.3407 22.4838V22.4798Z" fill="#4E4E4E"></path> <path d="M36.3605 6.24571C35.9576 5.48304 35.2826 4.91002 34.3375 4.52263C34.1514 4.43991 33.9632 4.37332 33.7771 4.31885C33.3905 4.30674 33.0039 4.29262 32.6173 4.28858C32.5723 4.28858 32.5273 4.28858 32.4823 4.28455C32.425 4.3027 32.3637 4.31481 32.2982 4.3249C31.1446 4.81519 30.173 5.59804 29.6637 6.85908C29.6268 6.95189 29.5777 7.03462 29.5246 7.10927C29.5143 7.13348 29.5062 7.15769 29.4939 7.18392C29.1707 7.86589 28.8598 8.76577 28.5591 9.87951C28.2584 10.9933 28.0007 12.1938 27.7818 13.479C27.563 14.7643 27.4014 16.0879 27.297 17.4538C27.1927 18.8177 27.158 20.0929 27.1927 21.2753C27.2275 22.4576 27.3605 23.5048 27.5895 24.4147C27.8207 25.3247 28.1541 25.9845 28.5918 26.3941C28.8455 26.6442 29.1564 26.8319 29.5266 26.957C29.8948 27.0821 30.265 27.1446 30.6332 27.1446C31.0259 27.1446 31.3246 27.0881 31.5332 26.9731C31.9259 26.7693 32.3289 26.3194 32.7441 25.6253C33.1594 24.9313 33.5685 24.0838 33.9714 23.0831C34.3744 22.0823 34.761 20.9746 35.1291 19.756C35.4973 18.5393 35.8205 17.3166 36.0966 16.0879C36.3728 14.8591 36.5917 13.6707 36.7532 12.5226C36.9148 11.3746 36.9946 10.3678 36.9946 9.50423C36.9721 8.09389 36.7573 7.00839 36.3544 6.24571H36.3605ZM34.493 11.3968C34.3437 12.5691 34.1187 13.7918 33.818 15.0649C33.5173 16.338 33.1839 17.5668 32.8157 18.7491C32.4475 19.9315 32.0671 21.023 31.6743 22.0238C31.2816 23.0246 30.9012 23.8437 30.533 24.4793C30.3018 24.9111 30.1648 25.127 30.1177 25.127C30.0707 25.127 30.0421 25.0765 30.0318 24.9736C30.0196 24.8707 29.9909 24.7295 29.9459 24.5479C29.7843 23.7065 29.6923 22.7522 29.6698 21.6828C29.6473 20.6135 29.6698 19.5159 29.7393 18.39C29.8089 17.2641 29.9234 16.1443 30.085 15.0286C30.2466 13.9148 30.4246 12.8919 30.6209 11.9577C30.7805 11.195 30.9503 10.5191 31.1262 9.9239C31.2305 9.42151 31.3389 8.91911 31.4862 8.4268C31.6437 7.66614 31.8953 6.93777 32.3125 6.31028C32.3084 6.30422 32.3023 6.29817 32.3003 6.29413C32.3187 6.28001 32.333 6.2679 32.3493 6.2558C32.4844 6.06412 32.65 5.93701 32.83 5.86437C32.9609 5.75945 33.1737 5.66261 33.4764 5.57787C33.5685 5.55567 33.6728 5.54357 33.7873 5.54357C33.9489 5.54357 34.0757 5.63436 34.1678 5.81595C34.4664 6.40712 34.6341 7.19199 34.6689 8.17056C34.7037 9.14912 34.6464 10.2225 34.495 11.3948L34.493 11.3968Z" fill="#4E4E4E"></path> </g> <defs> <clipPath id="clip0_544_1453"> <rect width="35" height="25.9794" fill="white" transform="translate(2 4)"></rect> </clipPath> </defs> </svg> 