<?xml version="1.0" encoding="UTF-8"?> <svg xmlns="http://www.w3.org/2000/svg" width="40" height="40" viewBox="0 0 40 40" fill="none"> <path d="M9.43122 19.4465C9.42562 19.4352 9.42001 19.4254 9.4144 19.4141C9.4074 19.4099 9.40179 19.4043 9.39899 19.3973L9.40179 19.3832C9.38497 19.3663 9.36675 19.348 9.34993 19.3312L9.31068 19.3818C9.28826 19.3916 9.26723 19.4015 9.24481 19.4113C9.2378 19.417 9.23079 19.4184 9.22238 19.4184C9.02895 19.4296 8.83413 19.4535 8.6421 19.4479C8.35337 19.438 8.06603 19.4057 7.7787 19.3832C7.77029 19.341 7.75627 19.3115 7.71702 19.3621C7.68759 19.3593 7.65815 19.3565 7.62872 19.3537C7.62031 19.3115 7.6077 19.2819 7.56705 19.3312C7.55724 19.3284 7.54743 19.3283 7.53902 19.334C7.52079 19.3312 7.50257 19.3283 7.48435 19.3255C7.46333 19.3199 7.4423 19.3129 7.41988 19.3073L7.36101 19.296C7.33998 19.289 7.32036 19.2819 7.29934 19.2749C7.28952 19.2707 7.27831 19.2665 7.2685 19.2623C7.25729 19.2538 7.24467 19.2468 7.23346 19.2383C7.22505 19.2369 7.21664 19.2383 7.20963 19.244C7.16898 19.2299 7.12834 19.2144 7.08909 19.2004C7.07788 19.1933 7.06666 19.1849 7.05545 19.1779C6.7555 19.0865 6.53124 18.898 6.36865 18.6322C6.36164 18.6224 6.35323 18.6139 6.34622 18.6041C6.34342 18.5844 6.34062 18.5661 6.33641 18.5464C6.3294 18.5352 6.3224 18.5239 6.31539 18.5127C6.31258 18.493 6.30978 18.4747 6.30698 18.455C6.29857 18.4437 6.29156 18.4325 6.28315 18.4226C6.23409 18.1456 6.21167 17.8685 6.25932 17.5901C6.27054 17.5268 6.27614 17.4621 6.28315 17.3974C6.29156 17.3862 6.29857 17.3749 6.30698 17.3622C6.30838 17.3538 6.30698 17.3454 6.30137 17.3383C6.30558 17.3172 6.30978 17.2975 6.31399 17.2765C6.32099 17.2652 6.3294 17.2525 6.33641 17.2413C6.33922 17.2132 6.34202 17.185 6.34342 17.1569C6.35183 17.1457 6.35884 17.1358 6.36725 17.1246C6.37005 17.1049 6.37286 17.0852 6.37566 17.0669L6.39668 17.0332C6.39949 17.0135 6.40229 16.9952 6.40509 16.9755C6.4121 16.9656 6.41911 16.9544 6.42752 16.9446C6.44013 16.9052 6.45135 16.8644 6.46396 16.825C6.47097 16.8138 6.47938 16.8025 6.48639 16.7927C6.51863 16.7125 6.55086 16.6337 6.5831 16.5536C6.59151 16.5437 6.59852 16.5325 6.60693 16.5226C6.62935 16.472 6.65178 16.4228 6.67281 16.3722C6.68122 16.3623 6.68822 16.3525 6.69663 16.3426C6.72887 16.2821 6.75971 16.2217 6.79194 16.1612C6.80035 16.1514 6.80876 16.1429 6.81717 16.1331C6.86343 16.0613 6.90828 15.9896 6.95734 15.9193C7.29653 15.4215 7.70161 14.9798 8.1221 14.5523C8.36318 14.3062 8.60146 14.0573 8.84814 13.8168C8.99391 13.6747 9.1537 13.5468 9.30788 13.4132C9.31629 13.4033 9.3247 13.3935 9.33311 13.3822C9.33031 13.3302 9.3289 13.2767 9.3261 13.2092C9.25041 13.2177 9.19154 13.2233 9.13408 13.2317C9.06259 13.243 8.99111 13.257 8.91822 13.2697C8.8972 13.2767 8.87618 13.2838 8.85655 13.2908C8.83693 13.2964 8.81731 13.3006 8.79768 13.3063C8.78787 13.3133 8.77806 13.3189 8.76685 13.326C8.70658 13.3386 8.64771 13.3499 8.58744 13.3625C8.57623 13.3696 8.56501 13.378 8.5524 13.385L8.49633 13.3991C8.48512 13.4047 8.47391 13.4103 8.4641 13.416C8.44447 13.4202 8.42625 13.4258 8.40663 13.43C8.39682 13.4357 8.38701 13.4413 8.37579 13.4469C8.1221 13.5243 7.88382 13.6311 7.65255 13.7633C7.13254 14.0615 6.6714 14.4286 6.27054 14.8758C5.92714 15.2583 5.64821 15.6844 5.40433 16.1359C5.39732 16.1443 5.38891 16.1528 5.3819 16.1612C5.34826 16.24 5.31602 16.3201 5.28238 16.3989C5.27397 16.4101 5.26697 16.4214 5.25856 16.4326C5.22632 16.5114 5.19408 16.5916 5.16184 16.6703L5.13942 16.7041C5.13381 16.7153 5.1282 16.7252 5.1226 16.7364L5.10578 16.7702C5.10578 16.7898 5.10578 16.8081 5.10578 16.8278L5.05251 16.9474C5.04971 16.9656 5.04691 16.9839 5.0427 17.0008C5.0371 17.0121 5.03289 17.0233 5.02729 17.036L5.00906 17.0964C5.00486 17.1175 4.99925 17.1386 4.99505 17.1597C4.99084 17.1794 4.98524 17.1991 4.98103 17.2188C4.97542 17.2497 4.97122 17.2807 4.96561 17.3116C4.96001 17.3313 4.9558 17.351 4.9502 17.3693C4.93338 17.4705 4.8661 17.5634 4.90815 17.6731C4.89834 17.742 4.88993 17.8109 4.88011 17.8798C4.87591 17.891 4.8703 17.9037 4.8661 17.9149C4.8661 17.9346 4.8661 17.9543 4.8675 17.974C4.85488 18.3369 4.83666 18.6997 4.90534 19.0583C4.87591 19.1385 4.91796 19.2046 4.94879 19.2721C4.9558 19.2918 4.96281 19.3115 4.96842 19.3326C4.97262 19.3438 4.97823 19.3551 4.98243 19.3663C4.99505 19.4254 5.00766 19.4845 5.02028 19.5421C5.02869 19.552 5.0357 19.5632 5.04411 19.5731C5.08615 19.6631 5.1282 19.7531 5.17025 19.8431C5.17866 19.8515 5.18707 19.86 5.19548 19.8698C5.22772 19.9106 5.26136 19.9528 5.2936 19.9936C5.3006 20.0625 5.33565 20.1033 5.40573 20.1131C5.44357 20.1511 5.47721 20.1975 5.52066 20.2242C5.6412 20.3002 5.76595 20.3677 5.88929 20.438C5.8949 20.445 5.90191 20.4478 5.90891 20.4478C6.00703 20.5252 6.13037 20.5055 6.2411 20.5308C6.25372 20.5266 6.26493 20.5224 6.27754 20.5181C6.26633 20.5139 6.25512 20.5097 6.2439 20.5055C6.13037 20.4788 6.01544 20.4506 5.90191 20.4239L6.2439 20.5055C6.25512 20.5097 6.26633 20.5139 6.27754 20.5181C6.51722 20.5561 6.7555 20.5252 6.99518 20.5027C7.01621 20.4956 7.03723 20.49 7.05825 20.483C7.21804 20.4464 7.37783 20.4084 7.53761 20.3719C7.54743 20.3663 7.55864 20.362 7.56845 20.3564C7.62732 20.3452 7.68479 20.3353 7.74365 20.3241C7.75347 20.3184 7.76328 20.3142 7.77449 20.3086C7.79411 20.3044 7.81514 20.2987 7.83476 20.2945C7.84457 20.2903 7.85438 20.2847 7.8642 20.2805C7.87401 20.2748 7.88382 20.2692 7.89503 20.2636C7.90624 20.2551 7.91606 20.2467 7.92727 20.2383C7.97352 20.2242 8.02258 20.213 8.06743 20.1947C8.32253 20.0878 8.57763 19.9809 8.83273 19.8726C8.84114 19.8656 8.85095 19.8586 8.85936 19.8529C8.87057 19.8445 8.88038 19.836 8.89159 19.8276C8.8972 19.8178 8.90421 19.8121 8.91402 19.8107L8.95046 19.7967C8.95887 19.791 8.96728 19.7854 8.97569 19.7798C8.98691 19.7756 8.99952 19.7699 9.01073 19.7657C9.01914 19.7601 9.02755 19.7545 9.03596 19.7489C9.16772 19.6856 9.29947 19.6237 9.42982 19.5604C9.43683 19.5534 9.44384 19.5463 9.45085 19.5393C9.45085 19.5182 9.44804 19.4985 9.44804 19.4774C9.44244 19.4676 9.43683 19.4577 9.42982 19.4479L9.43122 19.4465Z" fill="#4E4E4E"></path> <path d="M12.6421 20.7743C12.6365 20.7532 12.6309 20.7335 12.6267 20.7124C12.6225 20.6941 12.6183 20.6758 12.6141 20.6575C12.6071 20.6463 12.5987 20.635 12.5917 20.6224C12.5889 20.6041 12.5861 20.5858 12.5833 20.5675C12.5748 20.5563 12.5678 20.5436 12.5594 20.5324C12.5482 20.5014 12.537 20.4719 12.5244 20.441L12.5006 20.4114C12.3366 20.0528 12.0717 19.7983 11.7114 19.6421C11.6231 19.6042 11.532 19.569 11.4437 19.5324C11.3835 19.4537 11.347 19.4424 11.2629 19.479C11.2433 19.4762 11.2237 19.4734 11.204 19.4692C11.1858 19.4031 11.1536 19.4002 11.1115 19.4509C11.0821 19.4481 11.0527 19.4453 11.0232 19.4424C11.0148 19.4002 11.0008 19.3721 10.9616 19.4213C10.9518 19.4242 10.9419 19.4256 10.9321 19.4284C10.7836 19.4284 10.6336 19.4284 10.485 19.4284C10.4752 19.4256 10.4654 19.4242 10.4556 19.4213C10.4149 19.3721 10.4023 19.4017 10.3939 19.4438C10.3645 19.4467 10.335 19.4495 10.3056 19.4523C10.2607 19.4002 10.2313 19.4087 10.2145 19.4734L10.1262 19.4818C10.0911 19.434 10.0743 19.4551 10.0645 19.4987C9.92295 19.5395 9.77157 19.5521 9.63281 19.6421C9.66645 19.6618 9.68607 19.6787 9.7085 19.6843C10.0477 19.7715 10.3476 19.9445 10.6504 20.1133C10.8606 20.23 11.0415 20.3847 11.1956 20.5633C11.34 20.7307 11.4465 20.9191 11.4872 21.1498C11.511 21.2848 11.5376 21.4156 11.4998 21.5436C11.4171 21.8291 11.3022 22.1033 11.1017 22.3297C10.9588 22.49 10.8032 22.6391 10.6532 22.7938C10.6224 22.8248 10.5929 22.8557 10.5607 22.888C10.5957 22.9331 10.6336 22.964 10.649 23.0048C10.6756 23.0765 10.7261 23.0681 10.7822 23.0596C10.8144 23.0596 10.8452 23.0568 10.8775 23.0568C10.8691 23.0484 10.8606 23.0427 10.8536 23.0385C10.862 23.0427 10.8705 23.0484 10.8775 23.0568C10.9251 23.0568 10.9742 23.0568 11.0218 23.0568C11.0527 23.0512 11.0835 23.0442 11.1143 23.0385C11.1942 23.0273 11.2741 23.016 11.354 23.0048C11.3638 23.0006 11.3736 22.9963 11.3835 22.9921C11.4031 22.9865 11.4227 22.9795 11.4409 22.9738L11.476 22.9513C11.8124 22.8248 12.0871 22.6138 12.2931 22.3213C12.3744 22.206 12.4347 22.0738 12.5034 21.95C12.5118 21.9402 12.5188 21.9289 12.5272 21.9191L12.5636 21.7995C12.5706 21.7883 12.579 21.777 12.5861 21.7672C12.5861 21.7573 12.5889 21.7489 12.5959 21.7405C12.6393 21.7306 12.6617 21.7151 12.6141 21.6786C12.6197 21.6589 12.6253 21.6392 12.6309 21.6195C12.6744 21.6068 12.6898 21.59 12.6449 21.5576C12.6477 21.5295 12.6505 21.5028 12.6533 21.4746C12.6561 21.462 12.6603 21.4493 12.6631 21.4381C12.666 21.2679 12.6702 21.0977 12.673 20.9276C12.7234 20.891 12.701 20.8755 12.6561 20.8643C12.6519 20.8347 12.6491 20.8052 12.6449 20.7757L12.6421 20.7743Z" fill="#4E4E4E"></path> <path d="M27.3319 26.082C27.3431 26.044 27.3543 26.006 27.3655 25.9695C27.2927 25.9807 27.2856 26.0032 27.3319 26.082Z" fill="#4E4E4E"></path> <path d="M35.1104 21.0989C35.1104 21.089 35.1076 21.0806 35.1006 21.0736C35.1132 20.8823 35.1357 20.691 35.1371 20.4998C35.1385 20.3577 35.116 20.2143 35.1034 20.0708C35.1062 20.0174 35.1427 19.9541 35.0586 19.9274C35.0558 19.9091 35.053 19.8894 35.0502 19.8711L35.0263 19.8374L34.9899 19.6588C34.9815 19.6475 34.9745 19.6363 34.9661 19.6264C34.9436 19.5631 34.9268 19.497 34.9002 19.4366C34.7614 19.1272 34.5722 18.8585 34.2709 18.687C34.261 18.6785 34.2526 18.6701 34.2428 18.6617C34.1924 18.6406 34.1419 18.6181 34.09 18.597C34.0788 18.5885 34.069 18.5801 34.0578 18.573C33.9989 18.5604 33.9387 18.5491 33.8798 18.5365C33.8728 18.4971 33.8616 18.4662 33.8195 18.5112C33.7368 18.5013 33.6555 18.4859 33.5728 18.4816C33.3766 18.4746 33.1804 18.4591 32.9841 18.5084C32.886 18.5323 32.7823 18.5323 32.68 18.5421C32.6688 18.5505 32.659 18.5576 32.6478 18.566C32.5679 18.5815 32.488 18.5956 32.4067 18.611C32.4025 18.5899 32.3983 18.5674 32.3941 18.5463C32.4908 18.334 32.5861 18.1202 32.6828 17.9078C32.6898 17.8966 32.6982 17.8853 32.7052 17.8741C32.708 17.8558 32.7108 17.8361 32.7136 17.8178C32.7206 17.8066 32.7277 17.7953 32.7347 17.7841C32.7571 17.6955 32.7795 17.6069 32.8019 17.5169C32.8117 17.4972 32.8216 17.4775 32.8314 17.4578C32.844 17.417 32.8566 17.3762 32.8692 17.3354C32.9351 17.2623 32.9477 17.2004 32.9113 17.1217C32.9253 17.0514 32.9407 16.9824 32.9547 16.9121C33.043 16.8531 33.0136 16.7771 32.9827 16.7012C32.9827 16.6913 32.9827 16.6801 32.9827 16.6702C33.0486 16.6519 33.0556 16.621 33.0024 16.5774C33.0444 16.0135 33.0318 15.4509 32.9659 14.8898C32.9715 14.8813 32.9743 14.8729 32.9715 14.863C33.0248 14.8194 33.0192 14.7885 32.9519 14.7702C32.9519 14.7604 32.9519 14.7505 32.9519 14.7393C32.9785 14.6732 33.0178 14.6057 32.9239 14.5593C32.9211 14.5396 32.9183 14.5199 32.9141 14.5002C32.9547 14.406 32.9393 14.33 32.865 14.2569C32.8314 14.1177 32.7991 13.9784 32.7655 13.8392C32.7585 13.828 32.7515 13.8167 32.7445 13.8055C32.7417 13.7858 32.7389 13.7675 32.7361 13.7478C32.7276 13.7365 32.7206 13.7253 32.7122 13.7154C32.6996 13.6662 32.6884 13.617 32.6758 13.5678C32.6688 13.5565 32.6604 13.5453 32.6534 13.534L32.5132 13.2007C32.5076 13.1909 32.502 13.1824 32.4964 13.1726C32.4992 13.1627 32.4978 13.1529 32.4964 13.1445C32.488 13.1332 32.481 13.1234 32.4726 13.1121C32.4305 13.0305 32.3885 12.949 32.3464 12.8674C32.338 12.859 32.331 12.8505 32.3226 12.8407C32.3128 12.8182 32.3058 12.7929 32.2931 12.7718C32.0815 12.4117 31.8278 12.0826 31.5293 11.7915C31.2167 11.4863 30.8761 11.2205 30.4836 11.0251C30.4752 11.0166 30.4682 11.0096 30.4598 11.0011C30.3182 10.9294 30.1753 10.8563 30.0337 10.7846C30.0253 10.7424 30.0127 10.7142 29.972 10.7621C29.9412 10.7438 29.9104 10.7269 29.8795 10.7086C29.8711 10.7044 29.8641 10.7016 29.8557 10.6974C29.8151 10.6847 29.773 10.6735 29.7324 10.6608C29.7211 10.6538 29.7099 10.6467 29.6987 10.6397C29.6889 10.6383 29.6805 10.6397 29.6735 10.6453C29.438 10.5525 29.1927 10.4934 28.9516 10.4217C28.9404 10.4133 28.9278 10.4063 28.9166 10.3978C28.897 10.3922 28.8788 10.3866 28.8591 10.3795C28.8269 10.35 28.7919 10.3008 28.7708 10.3894C28.6713 10.3598 28.5704 10.3303 28.4709 10.3008C28.4527 10.2347 28.4232 10.2262 28.3784 10.2797C28.3489 10.2755 28.3195 10.2712 28.2901 10.267C28.2522 10.2023 28.234 10.1981 28.1681 10.2473C28.1583 10.2473 28.1485 10.2445 28.1387 10.2403C28.1121 10.1573 28.0672 10.1714 28.0168 10.2178C27.9873 10.215 27.9579 10.2108 27.9285 10.208C27.9102 10.1419 27.878 10.139 27.8359 10.1897C27.7869 10.1869 27.7364 10.184 27.6874 10.1798C27.6706 10.1151 27.6397 10.1067 27.5963 10.1587C27.5865 10.1559 27.5766 10.1573 27.5682 10.1629C27.4799 10.1503 27.3902 10.1334 27.3005 10.1278C26.7427 10.0954 26.1834 10.0603 25.6256 10.0392C24.7916 10.0068 23.9562 10.0265 23.1236 10.0758C23.1138 10.0729 23.104 10.0715 23.0942 10.0687C23.0494 10.0181 23.0199 10.0251 23.0031 10.0898C22.584 10.1137 22.1649 10.1376 21.7458 10.1615L21.708 10.1644C21.3898 10.1967 21.0717 10.2276 20.7521 10.26C20.7409 10.2642 20.7297 10.2698 20.7184 10.2741C20.6596 10.2769 20.6007 10.2783 20.5418 10.2811C20.4928 10.2333 20.4493 10.2178 20.4199 10.2994C20.3708 10.3036 20.3218 10.3078 20.2727 10.312C20.2307 10.26 20.1998 10.2628 20.1802 10.3289C20.1606 10.3317 20.141 10.3359 20.1213 10.3387C20.0541 10.2909 20.0358 10.2951 19.9994 10.3612C19.8494 10.3809 19.6981 10.3978 19.5481 10.4217C19.4079 10.4428 19.2677 10.4709 19.129 10.4949C19.1192 10.4949 19.1094 10.4934 19.0996 10.492C19.0491 10.5033 18.9986 10.5131 18.9482 10.5244C18.9412 10.5174 18.9328 10.5159 18.9229 10.5174C18.9117 10.5258 18.8991 10.5328 18.8879 10.5413C18.7898 10.5525 18.6931 10.5638 18.595 10.575C18.5908 10.5511 18.5866 10.5258 18.5823 10.5019C18.8501 10.2839 19.1276 10.0772 19.3841 9.84651C19.9756 9.31631 20.5264 8.74673 20.9147 8.04073C20.9203 8.0323 20.9259 8.02386 20.9301 8.01401C20.9609 7.93385 20.9904 7.85369 21.0212 7.77493C21.0282 7.76368 21.0352 7.75243 21.0436 7.74118C21.0773 7.63007 21.1109 7.51897 21.1459 7.40927C21.1544 7.39802 21.1614 7.38677 21.1698 7.37411C21.1754 7.32489 21.1698 7.27286 21.1866 7.22926C21.2342 7.10128 21.2413 6.97049 21.2272 6.83688C21.2384 6.82704 21.2483 6.8186 21.2595 6.80875C21.2427 6.78766 21.2244 6.76656 21.2076 6.74547C21.2076 6.73562 21.2104 6.72437 21.2118 6.71453C21.2146 6.71171 21.2202 6.71031 21.2202 6.70749C21.2202 6.70046 21.2188 6.69343 21.2174 6.6864C21.1936 6.63858 21.1628 6.59358 21.1473 6.54435C21.0927 6.37278 20.9651 6.27293 20.8124 6.19839C20.8011 6.18995 20.7913 6.18151 20.7801 6.17307C20.7465 6.16463 20.7142 6.1576 20.6806 6.14916C20.532 6.11541 20.3863 6.06619 20.2363 6.05072C19.8116 6.00712 19.3967 6.09291 18.979 6.15198L18.9482 6.17026C18.808 6.19276 18.6693 6.21526 18.5291 6.23777C18.5011 6.24761 18.4716 6.25746 18.4436 6.2673C18.3216 6.29824 18.1997 6.32918 18.0778 6.35871C18.0665 6.36575 18.0553 6.37278 18.0441 6.37981C18.0259 6.38262 18.0063 6.38543 17.9881 6.38684C17.9768 6.39387 17.9656 6.40231 17.9544 6.40934C17.9264 6.40934 17.8984 6.41075 17.8703 6.41216C17.8605 6.41638 17.8507 6.422 17.8409 6.42622C17.8199 6.43606 17.7974 6.44732 17.7764 6.45716C17.7666 6.46138 17.7568 6.467 17.747 6.47122C17.4568 6.56404 17.1667 6.65546 16.8766 6.74828C16.8667 6.75672 16.8555 6.76516 16.8457 6.77359C16.8359 6.77641 16.8261 6.77781 16.8163 6.78063C16.8051 6.78766 16.7939 6.79469 16.7827 6.80313C16.7728 6.80313 16.763 6.80594 16.756 6.81297L16.7168 6.83125C16.7 6.83688 16.6817 6.84251 16.6649 6.84813C16.6551 6.85376 16.6453 6.85938 16.6355 6.86501C16.5948 6.88048 16.5556 6.89595 16.5149 6.91142L16.4883 6.92548C16.2122 7.02815 15.9473 7.15472 15.6978 7.31223C15.402 7.49787 15.1133 7.69336 14.8218 7.88463C14.8134 7.87338 14.8049 7.86212 14.7979 7.85228C14.8204 7.79462 14.8428 7.73555 14.8652 7.67789C14.8708 7.66945 14.8764 7.65961 14.882 7.65117C14.9185 7.5696 14.9549 7.48944 14.9914 7.40787C14.9984 7.39662 15.0068 7.38537 15.0138 7.37271C15.0362 7.3038 15.0586 7.23488 15.0811 7.16597C15.0881 7.15472 15.0965 7.14347 15.1035 7.13222C15.1063 7.11393 15.1091 7.09425 15.1119 7.07596C15.1189 7.06471 15.1259 7.05205 15.1329 7.0408C15.1469 6.98174 15.161 6.92408 15.175 6.86501C15.2114 6.85657 15.2409 6.84672 15.2002 6.80594L15.2338 6.65405C15.2465 6.64843 15.2703 6.64421 15.2717 6.63577C15.3067 6.48247 15.339 6.32777 15.3698 6.17307C15.3712 6.16463 15.3516 6.15057 15.3432 6.14073C15.346 6.11119 15.3502 6.08166 15.353 6.05212C15.4175 6.01415 15.4203 5.99587 15.3726 5.92977C15.4217 5.53036 15.4175 5.12814 15.3992 4.72732C15.4539 4.68373 15.4469 4.65279 15.381 4.6345C15.3754 4.56418 15.3698 4.49387 15.3642 4.42495C15.3572 4.40667 15.3502 4.38979 15.3432 4.37151C15.3432 4.33916 15.3432 4.30682 15.3432 4.27447C15.395 4.23087 15.388 4.19993 15.3235 4.18165C15.3207 4.16196 15.3165 4.14227 15.3137 4.12258C15.353 4.03961 15.3432 4.00445 15.2647 3.93975C15.2619 3.92147 15.2591 3.90178 15.2563 3.8835C15.2493 3.87225 15.2423 3.861 15.2352 3.84975C15.2324 3.83006 15.2296 3.81037 15.2268 3.79209C15.2198 3.78083 15.2128 3.77099 15.2058 3.75974C15.203 3.74005 15.2002 3.72036 15.1974 3.70067C15.1904 3.68942 15.1834 3.67958 15.1764 3.66833C15.1736 3.64864 15.1708 3.63035 15.168 3.61066C15.1596 3.59941 15.1511 3.58816 15.1441 3.57691C15.0586 3.37721 14.9605 3.18735 14.7489 3.0889C14.7391 3.08046 14.7293 3.07202 14.7194 3.06359C14.7082 3.05655 14.697 3.04952 14.6858 3.04249C14.676 3.03968 14.6676 3.03686 14.6578 3.03265C14.6381 3.03265 14.6199 3.02983 14.6003 3.02843C14.5793 3.0228 14.5597 3.01858 14.5386 3.01296L14.1476 3.00874C14.0957 2.99749 14.0439 2.98905 14.0018 3.03686C13.9191 3.05515 13.8364 3.07343 13.7537 3.09031C13.7467 3.09312 13.7397 3.09593 13.7327 3.09874C13.7103 3.10578 13.6864 3.11281 13.664 3.11984C13.6556 3.11984 13.6486 3.12125 13.643 3.12828C13.622 3.13672 13.6009 3.14516 13.5813 3.15219C13.5701 3.15781 13.5603 3.16484 13.5491 3.17047C13.5379 3.17328 13.5267 3.1775 13.5154 3.18031C13.507 3.18453 13.4986 3.19016 13.4902 3.19438C13.2323 3.32798 12.9898 3.4869 12.7964 3.70489C12.6282 3.89475 12.4768 4.10149 12.3184 4.30119C12.31 4.30963 12.3016 4.31807 12.2946 4.32651C12.1727 4.50934 12.0493 4.69216 11.9274 4.8764C11.9204 4.88484 11.912 4.89187 11.905 4.90031C11.7227 5.18299 11.5405 5.46567 11.3583 5.74835C11.3499 5.75679 11.3429 5.76522 11.3345 5.77366C11.3121 5.81585 11.291 5.85664 11.2686 5.89883C11.2602 5.90727 11.2532 5.91571 11.2448 5.92414C11.1579 6.08588 11.0696 6.24761 10.9827 6.40794C10.9771 6.41356 10.9715 6.42059 10.9659 6.42622L10.9687 6.44028C10.9603 6.44872 10.9532 6.45716 10.9448 6.4656C10.9126 6.54576 10.879 6.62452 10.8467 6.70468L10.8229 6.73703C10.7612 6.88751 10.6996 7.03799 10.6365 7.18707C10.6295 7.19832 10.6211 7.20816 10.6141 7.21941C10.6014 7.25879 10.5888 7.29817 10.5762 7.33755C10.5692 7.3488 10.5608 7.35864 10.5538 7.36989C10.5524 7.39099 10.5496 7.41068 10.5482 7.43178C10.544 7.44021 10.5398 7.44865 10.5356 7.4585C10.53 7.47959 10.5243 7.49928 10.5173 7.52038C10.5117 7.53022 10.5061 7.54007 10.5005 7.54991C10.4963 7.55975 10.4907 7.5696 10.4865 7.57944C10.4795 7.59069 10.4711 7.60054 10.4641 7.61179L10.4557 7.66805C10.429 7.73977 10.401 7.8115 10.3744 7.88463C10.3716 7.90291 10.3688 7.9226 10.366 7.94088C10.3477 7.98307 10.3309 8.02386 10.3127 8.06605C10.3127 8.07589 10.3127 8.08574 10.3127 8.09699C10.3029 8.12652 10.2931 8.15746 10.2833 8.187C10.2735 8.22919 10.2636 8.27138 10.2538 8.31357C10.244 8.3417 10.2342 8.36982 10.2244 8.39936C10.2216 8.41905 10.2202 8.44014 10.2174 8.45983C10.209 8.47952 10.202 8.49921 10.1936 8.52031C10.1908 8.54 10.188 8.55968 10.1852 8.58078C10.1767 8.60047 10.1683 8.62156 10.1599 8.64125V8.67219C10.1515 8.70173 10.1431 8.73267 10.1333 8.7622C10.1291 8.79174 10.1263 8.82127 10.1221 8.85221C10.1151 8.87331 10.1081 8.89299 10.1011 8.91409C10.0983 8.93378 10.0969 8.95488 10.094 8.97456C10.087 9.0055 10.0814 9.03504 10.0744 9.06598C10.059 9.1363 10.0422 9.20662 10.0268 9.27693C10.0198 9.28819 10.0114 9.29803 10.0043 9.30928C10.0029 9.36835 10.0001 9.42742 9.99874 9.48508C9.98332 9.56665 9.9665 9.64681 9.95108 9.72838C9.94688 9.7776 9.94127 9.82683 9.93706 9.87605C9.93006 9.90699 9.92305 9.93793 9.91744 9.96887C9.91324 10.0181 9.91043 10.0673 9.90623 10.1165C9.90062 10.1376 9.89361 10.1587 9.88801 10.1798C9.8824 10.2501 9.87679 10.3191 9.87119 10.3894C9.86558 10.4006 9.85997 10.4119 9.85437 10.4245C9.84035 10.6341 9.82634 10.8422 9.81232 11.0518C9.80671 11.0729 9.80251 11.094 9.7969 11.1165C9.7969 11.1263 9.7969 11.1376 9.7969 11.1474C9.78709 11.198 9.77588 11.2473 9.76606 11.2979C9.75766 11.3626 9.75345 11.4273 9.74224 11.4906C9.67916 11.8562 9.64833 12.2233 9.7072 12.5946C9.71561 12.6143 9.72402 12.6353 9.73243 12.655C9.83615 12.7338 9.91324 12.7127 9.95529 12.596C10.0142 12.5763 10.0156 12.5453 9.97351 12.5046C9.97771 12.4849 9.98192 12.4652 9.98612 12.4441C10.0268 12.4328 10.0464 12.416 10.0015 12.3822C10.0128 12.3034 10.0226 12.2233 10.0338 12.1445C10.0408 12.1333 10.0492 12.1234 10.0562 12.1122L10.1277 11.8393C10.1361 11.8281 10.1431 11.8168 10.1515 11.8056C10.1795 11.5946 10.2636 11.402 10.3393 11.2051L10.3618 11.1699C10.3646 11.1516 10.3674 11.1333 10.3688 11.1151C10.3758 11.1038 10.3842 11.0926 10.3912 11.0813C10.394 11.063 10.3968 11.0433 10.3996 11.0251C10.4066 11.0138 10.415 11.0026 10.422 10.9927C10.4248 10.973 10.4276 10.9547 10.4304 10.935L10.4529 10.9041C10.4557 10.8943 10.4557 10.8844 10.4529 10.8746C10.4571 10.8661 10.4627 10.8563 10.4669 10.8479C10.4739 10.8268 10.4823 10.8057 10.4893 10.7846C10.4963 10.7733 10.5047 10.7635 10.5117 10.7522C10.5215 10.7128 10.5328 10.6735 10.5426 10.6341C10.5468 10.6242 10.5524 10.6158 10.5566 10.606C10.5734 10.5652 10.5916 10.5244 10.6084 10.4822C10.6155 10.4709 10.6239 10.4597 10.6309 10.447C10.6337 10.4288 10.6365 10.4105 10.6393 10.3908C10.6463 10.3795 10.6533 10.3683 10.6603 10.357C10.6603 10.3472 10.6603 10.3387 10.6673 10.3303C10.6757 10.3191 10.6827 10.3078 10.6911 10.2966C10.6939 10.2783 10.6968 10.2586 10.6996 10.2403C10.7066 10.229 10.7136 10.2178 10.7206 10.2065C10.7332 10.1672 10.7472 10.1278 10.7598 10.0898C10.7668 10.0786 10.7738 10.0673 10.7808 10.0561C10.8033 9.997 10.8257 9.93793 10.8481 9.87886C10.8565 9.86902 10.8635 9.85777 10.872 9.84792C10.8846 9.81839 10.8972 9.78885 10.9098 9.75932C10.9841 9.74385 10.9561 9.68338 10.9617 9.63837C10.9715 9.60743 10.9813 9.57649 10.9911 9.54696C10.9953 9.53852 11.0009 9.53008 11.0051 9.52164C11.0149 9.51039 11.0233 9.49914 11.0331 9.48789C11.0387 9.47805 11.0458 9.46679 11.0514 9.45695C11.064 9.41757 11.0752 9.37679 11.0878 9.33741C11.0962 9.32616 11.1032 9.31631 11.1116 9.30506C11.2041 9.09411 11.2967 8.88456 11.3878 8.6736C11.3962 8.66376 11.4032 8.65251 11.4116 8.64266C11.441 8.57094 11.4719 8.50062 11.5013 8.42889C11.5027 8.41764 11.5083 8.41061 11.5167 8.40498C11.5209 8.39373 11.5265 8.38108 11.5307 8.36982C11.5307 8.35998 11.5377 8.35154 11.5461 8.34592C11.556 8.33467 11.5644 8.32341 11.5742 8.31216C11.5798 8.30232 11.5854 8.29247 11.5924 8.28263C11.7452 7.96057 11.8966 7.63992 12.0493 7.31786C12.0577 7.30801 12.0661 7.29817 12.0746 7.28973C12.0844 7.27848 12.0928 7.26723 12.1026 7.25598C12.2357 6.98455 12.3675 6.71453 12.5007 6.4431L12.5245 6.41778H12.5301C12.5385 6.40512 12.5455 6.39528 12.5539 6.38543C12.5539 6.37278 12.5539 6.36153 12.5525 6.34887C12.5539 6.33902 12.5581 6.33059 12.5665 6.32496C12.5918 6.28277 12.6198 6.24058 12.6422 6.19698C12.7165 6.05775 12.788 5.91852 12.8609 5.77788C12.8693 5.76944 12.8763 5.76101 12.8847 5.75257C12.987 5.62599 13.0837 5.4938 13.1931 5.37285C13.3024 5.25331 13.4131 5.13095 13.5729 5.07329C13.6136 5.07329 13.6528 5.07329 13.6934 5.07329C13.7257 5.12673 13.7579 5.18017 13.7916 5.23362C13.7888 5.25331 13.7874 5.27299 13.7846 5.29268C13.7916 5.30253 13.7986 5.31378 13.8056 5.32362C13.8112 5.51348 13.8168 5.70334 13.8224 5.8932C13.8252 5.90727 13.8294 5.92133 13.8322 5.9354C13.8322 5.99165 13.8322 6.04791 13.8322 6.10557C13.8266 6.11822 13.821 6.12948 13.8154 6.14213C13.8154 6.16182 13.8168 6.1801 13.8182 6.19979C13.8154 6.25746 13.814 6.31652 13.8112 6.37418C13.807 6.38543 13.8042 6.39528 13.8 6.40653C13.793 6.42763 13.7874 6.44872 13.7803 6.46982L13.7593 6.56123C13.7565 6.58092 13.7523 6.60061 13.7495 6.6203C13.7439 6.65124 13.7383 6.68218 13.7341 6.71171C13.7285 6.7314 13.7229 6.74969 13.7173 6.76937C13.692 6.86079 13.6654 6.9522 13.6402 7.04362C13.6304 7.08581 13.6206 7.128 13.6107 7.16878C13.6009 7.19691 13.5911 7.22504 13.5813 7.25457L13.5112 7.52038C13.5042 7.53163 13.4972 7.54428 13.4902 7.55554C13.4874 7.57522 13.4846 7.59351 13.4818 7.6132C13.4748 7.62445 13.4678 7.6357 13.4608 7.64695C13.4327 7.72852 13.4061 7.81009 13.3781 7.89166C13.3739 7.9015 13.3683 7.91135 13.3641 7.9226L13.35 7.98167C13.3444 7.99151 13.3388 8.00276 13.3346 8.01261C13.3346 8.03089 13.3332 8.04917 13.3318 8.06745C13.3248 8.07871 13.3164 8.08996 13.3094 8.0998L13.2842 8.16449C13.28 8.17293 13.2758 8.18137 13.273 8.18981C13.2673 8.2109 13.2603 8.23341 13.2547 8.2545C13.2477 8.26013 13.2435 8.26857 13.2435 8.27841C13.2365 8.30935 13.2295 8.34029 13.2225 8.37123C13.2169 8.37967 13.2127 8.38811 13.2127 8.39795C13.158 8.45843 13.1342 8.53015 13.1356 8.61172C13.1314 8.62157 13.1272 8.63141 13.123 8.63985C13.116 8.64969 13.109 8.65954 13.1006 8.67079C13.0978 8.69048 13.0949 8.70876 13.0921 8.72845C13.0851 8.7397 13.0767 8.75095 13.0697 8.7608C13.0473 8.82971 13.0249 8.90003 13.0024 8.96894C12.9954 8.98019 12.9884 8.99144 12.98 9.00129C12.9674 9.04207 12.9548 9.08145 12.9422 9.12223C12.9352 9.13208 12.9282 9.14192 12.9197 9.15177C12.8973 9.22209 12.8735 9.291 12.8511 9.36132C12.8441 9.37257 12.8356 9.38241 12.8286 9.39366C12.816 9.43304 12.8034 9.47383 12.7908 9.5132L12.7684 9.54415C12.767 9.56524 12.7642 9.58493 12.7628 9.60603C12.7586 9.61446 12.7529 9.62431 12.7487 9.63275C12.7431 9.64259 12.7375 9.65244 12.7319 9.66369C12.7151 9.70447 12.6983 9.74526 12.6815 9.78604C12.6759 9.79448 12.6731 9.80292 12.6717 9.81276L12.6212 9.93652C12.6086 9.96606 12.5946 9.997 12.5819 10.0265C12.5749 10.0364 12.5679 10.0462 12.5595 10.0561C12.5567 10.0743 12.5539 10.094 12.5497 10.1123C12.5413 10.1236 12.5343 10.1348 12.5259 10.1461C12.5203 10.1545 12.5189 10.1629 12.5189 10.1728C12.5119 10.184 12.5049 10.1953 12.4979 10.2051C12.4852 10.2459 12.4726 10.2853 12.46 10.3261C12.453 10.3359 12.4446 10.3458 12.4376 10.357C12.425 10.3964 12.4124 10.4372 12.3997 10.4766C12.3913 10.4864 12.3829 10.4977 12.3759 10.5075C12.3745 10.5174 12.3717 10.5272 12.3703 10.537C12.3675 10.5469 12.3647 10.5567 12.3633 10.5666C12.303 10.7072 12.2428 10.8493 12.1825 10.9899C12.1755 10.9997 12.1685 11.011 12.1615 11.0208C12.1573 11.0307 12.153 11.0405 12.1488 11.0504C12.1432 11.0588 12.1362 11.0687 12.1306 11.0771L12.0437 11.3499C12.0521 11.3584 12.0619 11.3654 12.0704 11.3738C12.1124 11.3907 12.1545 11.409 12.1951 11.4245C12.2315 11.3598 12.2596 11.3105 12.2876 11.2599C12.3409 11.2557 12.3451 11.2191 12.3451 11.1783L12.3479 11.1727C12.3969 11.1685 12.4053 11.1333 12.4053 11.0926C12.4152 11.0785 12.4236 11.0644 12.4334 11.049C12.4796 11.049 12.495 11.0208 12.4964 10.9801C12.596 10.883 12.6941 10.7846 12.7936 10.6875C12.8497 10.6833 12.8791 10.6552 12.8833 10.5989C12.8931 10.5863 12.9015 10.5764 12.9113 10.5652C12.973 10.5174 13.0347 10.4709 13.0978 10.4231C13.7033 9.96746 14.3102 9.51602 14.9563 9.11942C14.9647 9.1152 14.9731 9.11098 14.9815 9.10676C15.0727 9.05051 15.1624 8.99425 15.2535 8.938C15.2633 8.93237 15.2731 8.92534 15.2829 8.91972C15.4777 8.80439 15.6698 8.68485 15.8674 8.57656C16.2136 8.38811 16.5612 8.20247 16.9312 8.06324C16.9424 8.0548 16.9536 8.04636 16.9649 8.03933C16.9747 8.0337 16.9859 8.02948 16.9957 8.02386C17.0069 8.01823 17.0181 8.01261 17.0293 8.00557C17.049 7.99854 17.0686 7.99292 17.0882 7.98589L17.1148 7.97323L17.2382 7.93104C17.248 7.92541 17.2578 7.91979 17.2676 7.91416C17.3755 7.88322 17.4849 7.85228 17.5928 7.82134C17.604 7.8129 17.6152 7.80587 17.6264 7.79743C17.7764 7.76508 17.9264 7.73414 18.075 7.7018C18.0848 7.69617 18.096 7.68914 18.1058 7.68352C18.1366 7.67789 18.1661 7.67367 18.1969 7.66805C18.2081 7.65961 18.2207 7.65258 18.2319 7.64414C18.2698 7.64132 18.309 7.63992 18.3469 7.6371C18.3679 7.63007 18.3875 7.62163 18.4085 7.6146C18.4786 7.60476 18.5487 7.59351 18.6174 7.58366C18.637 7.58085 18.658 7.57944 18.6777 7.57663L19.1654 7.56257C19.1935 7.57804 19.2215 7.5921 19.2495 7.60757C19.3953 7.65258 19.4219 7.69055 19.4205 7.84947C19.4163 7.86212 19.4107 7.87619 19.4065 7.88885C19.3995 7.90854 19.3911 7.92682 19.3841 7.94651C19.3785 7.95495 19.3729 7.96479 19.3687 7.97323C19.2888 8.08714 19.2103 8.19965 19.1304 8.31357C19.0911 8.31076 19.0687 8.32482 19.0715 8.36701C18.9005 8.51046 18.7309 8.65251 18.5599 8.79596C18.5333 8.81424 18.5053 8.83111 18.4786 8.8494C18.1801 9.12364 17.8913 9.40913 17.5802 9.66791C16.9803 10.1658 16.3383 10.6102 15.6852 11.0363C15.3292 11.2684 14.9577 11.4751 14.5933 11.6931C14.5835 11.7001 14.5751 11.7071 14.5653 11.7142C14.5456 11.7254 14.5274 11.7353 14.5078 11.7451V11.7493C14.4966 11.7578 14.4868 11.7662 14.477 11.7747C14.4657 11.7789 14.4545 11.7831 14.4433 11.7873C14.4349 11.7929 14.4265 11.7986 14.4167 11.8042L14.3816 11.8225C14.3732 11.8267 14.3634 11.8295 14.355 11.8337C14.3438 11.8337 14.3326 11.8337 14.3214 11.8337C14.313 11.8393 14.3046 11.8464 14.2947 11.852C14.2835 11.8562 14.2723 11.859 14.2597 11.8633C14.2163 11.8633 14.1742 11.8661 14.1728 11.9251C14.163 11.935 14.1546 11.9476 14.142 11.9519C13.9626 12.0348 13.7817 12.1178 13.6009 12.2008C13.5897 12.2092 13.5785 12.2163 13.5673 12.2247C13.5084 12.2458 13.4482 12.2655 13.3893 12.2866C13.3809 12.2922 13.3725 12.2964 13.3627 12.302C13.3528 12.3077 13.3416 12.3119 13.3318 12.3175C13.315 12.3288 13.2982 12.34 13.2828 12.3513C13.2968 12.3597 13.3108 12.3695 13.3248 12.378C13.3276 12.3977 13.3318 12.4174 13.3346 12.4385C13.3234 12.4863 13.3444 12.5144 13.3907 12.5228C13.5 12.5031 13.6107 12.4835 13.7201 12.4624C13.7495 12.4539 13.7803 12.4441 13.8098 12.4356C13.8294 12.4356 13.8504 12.4342 13.8701 12.4328C13.8897 12.4244 13.9107 12.416 13.9303 12.4075C13.9401 12.4061 13.9499 12.4047 13.9598 12.4033C14.006 12.4145 14.0481 12.4117 14.0761 12.3667C14.1574 12.3597 14.2387 12.3513 14.32 12.3442C14.341 12.3372 14.3606 12.3302 14.3816 12.3231C14.4419 12.3077 14.5008 12.2922 14.5611 12.2781C14.5807 12.2711 14.6003 12.2655 14.6199 12.2584C14.6494 12.2542 14.6788 12.2528 14.7082 12.2472C14.8484 12.2191 14.99 12.1909 15.1301 12.1628C15.1694 12.2134 15.1834 12.1867 15.1918 12.1431L15.2801 12.1333C15.3193 12.1839 15.3334 12.1572 15.3418 12.1122C15.3516 12.1122 15.3614 12.1122 15.3726 12.1122C15.4231 12.1445 15.4707 12.16 15.4917 12.0812L15.7903 12.0461L15.8211 12.0264C15.9122 12.0109 16.0019 11.9955 16.093 11.9814C16.1043 11.9744 16.1169 11.9659 16.1281 11.9589C16.1659 11.9561 16.2038 11.9547 16.243 11.9519C16.264 11.9448 16.2837 11.9364 16.3047 11.9294C16.3341 11.9265 16.3636 11.9237 16.393 11.9209C16.4322 11.9097 16.4729 11.8998 16.5121 11.8886C16.5219 11.8886 16.5332 11.89 16.543 11.8914C16.5822 11.8815 16.6229 11.8703 16.6621 11.8604C16.6719 11.8604 16.6831 11.8604 16.6929 11.8618C16.7238 11.8548 16.7546 11.8478 16.7855 11.8407C16.8051 11.8365 16.8247 11.8337 16.8429 11.8295C16.8962 11.8407 16.948 11.8464 16.9887 11.7972C17.0504 11.7873 17.112 11.7789 17.1737 11.769C17.1947 11.7634 17.2158 11.7564 17.2368 11.7507C17.2872 11.7479 17.3363 11.7493 17.3868 11.7437C17.6489 11.7142 17.9096 11.6762 18.1717 11.6551C18.5501 11.6242 18.9286 11.6031 19.3084 11.5834C20.012 11.5482 20.7142 11.5131 21.4179 11.4878C22.0318 11.4667 22.6457 11.4596 23.261 11.4442C23.3956 11.4413 23.5287 11.4287 23.6633 11.4217C23.8147 11.4217 23.9646 11.4188 24.116 11.4188C24.3459 11.4188 24.5743 11.4188 24.8042 11.4188C24.9247 11.4188 25.0453 11.4217 25.1658 11.4231C25.1798 11.4273 25.1939 11.4357 25.2079 11.4371C25.6648 11.4695 26.1217 11.5018 26.5773 11.5342L26.646 11.5454C26.6936 11.5539 26.7399 11.5637 26.7875 11.5721C26.8184 11.5792 26.8492 11.5862 26.88 11.5932C26.9375 11.6031 26.995 11.6143 27.0538 11.6242C27.2515 11.6579 27.4519 11.679 27.6453 11.7268C27.92 11.7943 28.1934 11.8717 28.4611 11.9603C28.6979 12.039 28.9292 12.1333 29.1577 12.2303C29.2824 12.2838 29.4002 12.3527 29.5179 12.4216C29.6581 12.5032 29.7996 12.5819 29.93 12.6775C30.5944 13.1613 31.1228 13.759 31.4424 14.5269C31.4424 14.534 31.4452 14.541 31.4508 14.5466C31.4732 14.6099 31.5026 14.6718 31.518 14.7365C31.5573 14.8954 31.5895 15.0543 31.6246 15.2146C31.6344 15.2357 31.6442 15.2554 31.6554 15.2765C31.6624 15.3271 31.6694 15.3778 31.6764 15.427C31.6792 15.4467 31.682 15.4678 31.6834 15.4875C31.7241 15.87 31.7157 16.2511 31.6834 16.6337L31.6764 16.7026C31.6694 16.7602 31.6638 16.8179 31.6568 16.8742C31.6484 16.8952 31.64 16.9178 31.6302 16.9388L31.6274 16.9951C31.6246 17.0345 31.6218 17.0753 31.6204 17.1146C31.6134 17.1456 31.6063 17.1751 31.5993 17.2061C31.5965 17.2356 31.5923 17.2651 31.5895 17.2947C31.5825 17.3158 31.5755 17.3354 31.5671 17.3565C31.5671 17.3664 31.5671 17.3776 31.5685 17.3875L31.5559 17.417C31.5489 17.4283 31.5405 17.4395 31.5335 17.4494L31.5391 17.507C31.5335 17.5267 31.5293 17.5478 31.5236 17.5675C31.5166 17.5773 31.5096 17.5886 31.5026 17.5984C31.4998 17.628 31.497 17.6575 31.4942 17.6884C31.4872 17.6997 31.4802 17.7095 31.4732 17.7208C31.4732 17.7588 31.4718 17.7967 31.4704 17.8347C31.4634 17.846 31.4564 17.8572 31.4494 17.8685C31.4466 17.8966 31.4424 17.9247 31.4395 17.9528C31.4325 17.9655 31.4255 17.9767 31.4171 17.9894L31.4045 18.0203C31.3975 18.0302 31.3905 18.0414 31.3835 18.0513C31.3821 18.0611 31.3835 18.071 31.3891 18.0794C31.3765 18.13 31.3625 18.1793 31.3498 18.2299C31.3134 18.341 31.2756 18.4521 31.2391 18.5632C31.1662 18.7826 31.0933 19.002 31.0219 19.2214C30.9868 19.3241 30.9504 19.4253 30.9153 19.528C30.9111 19.5575 30.9069 19.587 30.9027 19.6166C30.8985 19.6264 30.8943 19.6349 30.8915 19.6447C30.8845 19.6644 30.8789 19.6841 30.8719 19.7038L30.8495 19.7375L30.8102 19.881C30.7275 19.9485 30.7359 20.0033 30.8439 20.0919C30.8761 20.0877 30.9097 20.0863 30.9406 20.0779C31.0191 20.0554 31.0961 20.0301 31.1732 20.0047C31.1929 19.9963 31.2139 19.9879 31.2335 19.9794C31.2433 19.978 31.2531 19.9752 31.2629 19.9738C31.2938 19.9555 31.326 19.9386 31.3569 19.9204C31.4466 19.8993 31.5349 19.8796 31.6246 19.8585C31.633 19.8557 31.64 19.8528 31.6484 19.8514C31.7199 19.8318 31.7914 19.8135 31.8628 19.7938C31.9035 19.843 31.9161 19.8135 31.9245 19.7713C31.9638 19.7671 32.0044 19.7628 32.0437 19.7586C32.0745 19.7516 32.1039 19.746 32.1348 19.7389C32.3044 19.7389 32.474 19.7403 32.6422 19.7417C32.673 19.7474 32.7038 19.7516 32.7347 19.7572C32.7543 19.7614 32.7739 19.7657 32.7935 19.7699C32.844 19.7867 32.8944 19.8036 32.9449 19.8205C32.9561 19.8289 32.9673 19.843 32.9799 19.8472C33.3149 19.9625 33.4831 20.2129 33.5462 20.549C33.5448 20.5532 33.5392 20.5574 33.5406 20.5603C33.5434 20.5673 33.549 20.5743 33.5532 20.5813C33.5574 20.7445 33.5616 20.9076 33.5658 21.0694C33.5518 21.082 33.528 21.0933 33.5252 21.1101C33.5014 21.2142 33.4817 21.3197 33.4621 21.4238C33.4579 21.4322 33.4551 21.442 33.4551 21.4519C33.4481 21.4617 33.4425 21.473 33.4355 21.4828C33.4327 21.5025 33.4285 21.5222 33.4257 21.5433C33.4187 21.5532 33.4102 21.5644 33.4032 21.5742C33.3612 21.6657 33.3191 21.7571 33.2771 21.8499C33.2687 21.8583 33.2603 21.8682 33.2533 21.8766C33.1622 22.0102 33.0697 22.1438 32.9785 22.2774C32.9043 22.2999 32.858 22.3492 32.8342 22.4223C32.701 22.5123 32.5665 22.6009 32.4333 22.6909C32.4249 22.6965 32.4165 22.7022 32.4067 22.7078L32.0745 22.8794C32.0633 22.8864 32.0535 22.8948 32.0423 22.9019C32.003 22.9131 31.9638 22.9258 31.9245 22.937L31.8909 22.9623C31.8727 22.9637 31.853 22.9666 31.8348 22.968C31.8236 22.9764 31.8124 22.9848 31.8026 22.9919C31.7829 22.9933 31.7647 22.9961 31.7451 22.9975C31.7339 23.0059 31.7227 23.013 31.7115 23.0214C31.7017 23.0214 31.6918 23.0242 31.6848 23.0312C31.6638 23.0383 31.6428 23.0439 31.6218 23.0509C31.6021 23.0566 31.5839 23.0622 31.5643 23.0664C31.5531 23.0706 31.5419 23.0763 31.5307 23.0805C31.5012 23.0875 31.4718 23.0945 31.4424 23.1016C31.4325 23.1044 31.4227 23.1086 31.4143 23.1114C31.3765 23.117 31.3372 23.1198 31.2994 23.1269C31.1382 23.155 30.9784 23.1831 30.8186 23.2099C30.7794 23.1578 30.7654 23.1831 30.7556 23.2295C30.3729 23.2703 29.9889 23.3097 29.5922 23.3519C29.5964 23.4082 29.6006 23.4546 29.6048 23.5024C29.6034 23.5825 29.6581 23.5629 29.7043 23.5586C29.7548 23.5643 29.8052 23.5699 29.8557 23.5755C29.8655 23.5811 29.8753 23.5868 29.8837 23.5938C29.9034 23.5924 29.9244 23.591 29.944 23.5896C29.9538 23.5896 29.9636 23.5896 29.9748 23.5896C29.9945 23.5938 30.0155 23.5994 30.0351 23.6036C30.0449 23.6107 30.0561 23.6177 30.0659 23.6247C30.0954 23.6233 30.1248 23.6219 30.1542 23.6191C30.1837 23.6233 30.2131 23.6275 30.2412 23.6318C30.2622 23.6374 30.2832 23.6444 30.3042 23.6501C30.3337 23.6543 30.3631 23.6585 30.3911 23.6613C30.4121 23.6669 30.4332 23.674 30.4542 23.6796C30.4738 23.6824 30.4934 23.6866 30.5131 23.6894C30.5439 23.6965 30.5747 23.7035 30.6056 23.7091C30.6252 23.7119 30.6448 23.7162 30.663 23.719C30.6939 23.726 30.7247 23.7316 30.7556 23.7387C30.785 23.7429 30.813 23.7471 30.8425 23.7513C30.8635 23.7569 30.8845 23.764 30.9055 23.7696C30.9251 23.7724 30.9448 23.7752 30.9644 23.778C30.9952 23.7851 31.0261 23.7921 31.0555 23.7991C31.0653 23.7991 31.0765 23.7977 31.0863 23.7963C31.1256 23.8076 31.1662 23.8174 31.2055 23.8287C31.525 23.8554 31.8432 23.8934 32.1656 23.868C32.1936 23.9074 32.2133 23.9046 32.2259 23.8568C32.2679 23.854 32.3114 23.854 32.352 23.8469C32.4403 23.8329 32.5286 23.8146 32.6169 23.7977C32.6267 23.7893 32.6365 23.7808 32.6464 23.7738C32.6562 23.7696 32.6674 23.7668 32.6772 23.7626C32.687 23.7555 32.6968 23.7499 32.708 23.7429C32.7879 23.7232 32.8664 23.7021 32.9463 23.6824C32.9561 23.6782 32.9645 23.674 32.9743 23.6697C33.4299 23.4574 33.8391 23.1803 34.1839 22.8119C34.4068 22.5742 34.61 22.3224 34.7488 22.0243C34.7544 22.0144 34.76 22.0046 34.7656 21.9948C34.875 21.7824 34.9591 21.5602 35.0235 21.3295C35.0319 21.3183 35.0389 21.307 35.0474 21.2958C35.0502 21.2775 35.053 21.2578 35.0558 21.2395C35.1469 21.2114 35.0978 21.1369 35.1062 21.082L35.1104 21.0989ZM13.8168 12.4188C13.8364 12.4089 13.8574 12.3991 13.8771 12.3906C13.8574 12.4005 13.8364 12.4103 13.8168 12.4188Z" fill="#4E4E4E"></path> <path d="M28.9344 15.285C28.9218 15.2639 28.9077 15.2428 28.8951 15.2217C28.8881 15.2132 28.8797 15.2048 28.8727 15.1964C28.8068 15.0262 28.6975 14.887 28.5643 14.7646C28.3877 14.6015 28.1985 14.4566 27.9785 14.3539C27.8719 14.3033 27.7682 14.2485 27.6631 14.1964C27.6519 14.188 27.6421 14.1795 27.6309 14.1711C27.572 14.15 27.5117 14.1275 27.4528 14.1064C27.387 14.0178 27.2566 13.9686 27.1263 13.9841C27.0842 13.9742 27.0436 13.963 27.0015 13.9531C26.9931 13.9123 26.9791 13.8856 26.9412 13.932C26.8754 13.9222 26.8095 13.9137 26.7436 13.9039C26.731 13.8955 26.717 13.8884 26.7044 13.88C26.6735 13.8744 26.6427 13.8673 26.6105 13.8617C26.595 13.7998 26.5642 13.7942 26.5208 13.8364C26.4899 13.8336 26.4605 13.8322 26.4297 13.8294C26.4086 13.759 26.361 13.7787 26.3133 13.7942C26.2292 13.7872 26.1451 13.7815 26.061 13.7717C25.6125 13.7225 25.164 13.7365 24.7169 13.7759C24.672 13.7323 24.6412 13.7394 24.6272 13.8026C24.5669 13.8083 24.5066 13.8153 24.4449 13.8209C24.4351 13.8265 24.4253 13.8322 24.4169 13.8378C24.3664 13.8378 24.3174 13.8406 24.2669 13.842C24.2459 13.849 24.2249 13.8561 24.2039 13.8617C24.1338 13.8772 24.0651 13.8912 23.995 13.9067C23.9754 13.9137 23.9558 13.9208 23.9361 13.9278C23.9067 13.9306 23.8759 13.932 23.8464 13.9348C23.8352 13.9419 23.8226 13.9489 23.8114 13.9559C23.7834 13.9587 23.7553 13.9616 23.7259 13.9644C23.7147 13.9714 23.7035 13.9784 23.6923 13.9869C23.6446 13.9967 23.5941 14.0037 23.5479 14.0192C23.3671 14.0797 23.1863 14.1416 23.0055 14.2035C22.9942 14.2119 22.983 14.2203 22.9718 14.2274C22.8933 14.2597 22.8134 14.2921 22.7349 14.3244C22.7237 14.3328 22.7139 14.3399 22.7027 14.3483C22.6705 14.3582 22.6354 14.3638 22.6074 14.3793C22.3775 14.5058 22.1491 14.6352 21.9192 14.7632C21.915 14.7674 21.9108 14.7702 21.9052 14.7702C21.8982 14.7773 21.894 14.7871 21.8856 14.7927C21.231 15.2118 20.6815 15.7364 20.2723 16.403C20.2653 16.4115 20.2569 16.4199 20.2498 16.4283C20.2064 16.5183 20.1643 16.6069 20.1209 16.697C20.1125 16.7082 20.1055 16.7195 20.0971 16.7307C20.0648 16.8109 20.0326 16.891 20.0018 16.9712C19.9947 16.981 19.9863 16.9923 19.9793 17.0021C19.9765 17.0218 19.9737 17.0401 19.9709 17.0598C19.9639 17.071 19.9555 17.0809 19.9485 17.0921C19.9457 17.1118 19.9429 17.1301 19.9401 17.1498C19.9331 17.1611 19.9247 17.1723 19.9177 17.1821C19.9149 17.2018 19.9106 17.2215 19.9078 17.2412C19.9022 17.2623 19.8952 17.282 19.8896 17.3031C19.9106 17.2989 19.9275 17.2918 19.9331 17.282C19.9275 17.2918 19.912 17.2975 19.8896 17.3031C19.8854 17.3228 19.8798 17.3411 19.8756 17.3608C19.8686 17.3819 19.863 17.403 19.856 17.4226C19.8532 17.4423 19.849 17.462 19.8462 17.4803C19.8195 17.5492 19.7915 17.6181 19.7677 17.687C19.7663 17.6927 19.7929 17.7095 19.8069 17.7208C19.7957 17.9402 19.7733 18.1582 19.7761 18.3776C19.7775 18.552 19.8097 18.7249 19.828 18.8993C19.8336 18.9204 19.8406 18.9415 19.8462 18.9626C19.8504 18.9921 19.8546 19.0217 19.8574 19.0498C19.8644 19.0709 19.87 19.092 19.877 19.1131C19.8812 19.1328 19.8868 19.1511 19.891 19.1708C19.8966 19.1919 19.9022 19.2129 19.9078 19.2326C19.9106 19.2523 19.9149 19.272 19.9177 19.2917L19.912 19.3212C19.9191 19.3311 19.9261 19.3409 19.9331 19.3508C19.9387 19.3719 19.9443 19.3916 19.9499 19.4127C19.9569 19.4239 19.9639 19.4352 19.9709 19.445C19.9933 19.5139 20.0158 19.5842 20.0382 19.6531C20.0452 19.6644 20.0536 19.6756 20.0606 19.6883C20.0732 19.7277 20.0859 19.7657 20.0985 19.805C20.1055 19.8163 20.1139 19.8275 20.1209 19.8374C20.1643 19.9372 20.2078 20.0371 20.2512 20.1369C20.2583 20.1454 20.2653 20.1524 20.2723 20.1608C20.2947 20.203 20.3171 20.2452 20.3381 20.2874C20.3466 20.2973 20.355 20.3057 20.3634 20.3155H20.3648C20.3746 20.3268 20.383 20.3366 20.3928 20.3465C20.5498 20.5757 20.6998 20.812 20.8652 21.0342C21.0193 21.2409 21.1903 21.4364 21.3557 21.6361C21.437 21.7346 21.5323 21.826 21.601 21.9329C21.6837 22.0623 21.737 22.2071 21.7075 22.3674C21.7005 22.3787 21.6921 22.3885 21.6851 22.3998C21.6851 22.4195 21.6879 22.4378 21.6893 22.4574L21.6837 22.5165C21.6781 22.5264 21.6739 22.5362 21.6683 22.546C21.6038 22.6389 21.5393 22.7317 21.4749 22.8245C21.4216 22.8287 21.388 22.854 21.3852 22.9103C21.032 23.1831 20.6409 23.3913 20.2414 23.5854C20.2302 23.591 20.2204 23.5966 20.2092 23.6022C20.1896 23.6022 20.1699 23.6022 20.1517 23.6022C20.1433 23.6065 20.1349 23.6107 20.1265 23.6149C20.1055 23.6205 20.083 23.6276 20.062 23.6332C20.0536 23.6374 20.0452 23.6416 20.0368 23.6458C20.0158 23.6543 19.9947 23.6627 19.9737 23.6711C19.9625 23.6782 19.9513 23.6866 19.9415 23.6936C19.8504 23.7218 19.7593 23.7499 19.6682 23.778C19.6626 23.7837 19.6555 23.7865 19.6471 23.7865C19.5855 23.7977 19.5238 23.809 19.4635 23.8202C19.4523 23.8287 19.4397 23.8357 19.4285 23.8441C19.2757 23.861 19.1229 23.8793 18.9519 23.8976C18.9281 23.9313 18.8945 23.9777 18.8496 24.0424C18.9323 24.0818 19.0024 24.1156 19.0725 24.1479C19.1159 24.2126 19.1818 24.2281 19.2533 24.2337C19.5897 24.3139 19.9317 24.3195 20.2737 24.2956C20.3802 24.3096 20.4797 24.2843 20.5764 24.2435L20.7853 24.2028C20.8063 24.1957 20.8273 24.1901 20.8469 24.1831C20.8988 24.1718 20.9507 24.1606 21.0039 24.1493C21.06 24.1381 21.1175 24.1282 21.1749 24.117C21.1847 24.1127 21.1945 24.1085 21.2044 24.1043C21.5225 23.996 21.8393 23.8807 22.1322 23.7147C22.5667 23.4672 22.9578 23.1719 23.1765 22.6979C23.1807 22.6895 23.1849 22.6797 23.1905 22.6712C23.1933 22.6515 23.1975 22.6304 23.2003 22.6107C23.2423 22.6009 23.2634 22.5854 23.2185 22.5489C23.2676 22.3224 23.2578 22.1002 23.1737 21.8836C23.1694 21.8738 23.1652 21.864 23.1596 21.8541C23.1596 21.8344 23.1596 21.8161 23.1596 21.7965C23.154 21.7866 23.1484 21.7754 23.1428 21.7655C23.1288 21.736 23.1148 21.705 23.1008 21.6755C23.0924 21.6657 23.0854 21.6544 23.0769 21.6446C23.0559 21.5925 23.0335 21.5419 23.0125 21.4899C23.0041 21.48 22.9956 21.4716 22.9858 21.4617H22.9816C22.9732 21.4533 22.9648 21.4435 22.9564 21.435C22.8611 21.2958 22.7742 21.1495 22.6705 21.0173C22.407 20.6798 22.1364 20.3493 21.8687 20.0146C21.8603 20.0047 21.8519 19.9963 21.8435 19.9865C21.8323 19.9654 21.8211 19.9443 21.8085 19.9232C21.8001 19.9133 21.7916 19.9049 21.7832 19.895L21.6865 19.6883C21.6781 19.6771 21.6697 19.6658 21.6627 19.6545C21.6206 19.5449 21.58 19.4352 21.5379 19.3255C21.5309 19.3142 21.5239 19.3044 21.5155 19.2931C21.5127 19.2636 21.5099 19.2355 21.5071 19.2059C21.5015 19.1947 21.4973 19.1848 21.4917 19.1736C21.4861 19.1553 21.4805 19.1356 21.4763 19.1173C21.4693 19.1061 21.4623 19.0934 21.4552 19.0822C21.451 19.0526 21.4468 19.0231 21.4426 18.9936C21.4931 18.9556 21.4679 18.9401 21.423 18.9303C21.4188 18.9007 21.416 18.8712 21.4118 18.8417C21.4651 18.7967 21.4567 18.7671 21.3908 18.7488C21.3908 18.528 21.3908 18.3072 21.3908 18.0864C21.4552 18.0682 21.4651 18.0372 21.4104 17.9936L21.4314 17.8755C21.4987 17.7855 21.5267 17.6856 21.5057 17.5731C21.5183 17.5323 21.5295 17.493 21.5422 17.4522C21.5492 17.4409 21.5576 17.4283 21.5646 17.417C21.5674 17.3987 21.5702 17.3804 21.573 17.3622C21.58 17.3509 21.5884 17.3411 21.5954 17.3298C21.6487 17.2103 21.7019 17.0893 21.7552 16.9698C21.7622 16.9628 21.7692 16.9543 21.7762 16.9473C21.7874 16.9248 21.8001 16.9023 21.8113 16.8798C21.8197 16.8699 21.8281 16.8615 21.8365 16.8517C22.1575 16.3383 22.5766 15.9192 23.0769 15.5831C23.4119 15.3581 23.7581 15.1528 24.1506 15.0402C24.159 15.036 24.1674 15.0304 24.1772 15.0262C24.1968 15.0206 24.2165 15.0135 24.2361 15.0079C24.2473 15.0009 24.2585 14.9938 24.2683 14.9854C24.288 14.9826 24.3062 14.9798 24.3258 14.977C24.337 14.9699 24.3482 14.9629 24.358 14.9545C24.4169 14.9418 24.4772 14.9291 24.536 14.9165C24.5459 14.9123 24.5557 14.908 24.5655 14.9038C24.6159 14.8884 24.6678 14.8729 24.7183 14.8574C24.7673 14.8968 24.8122 14.9109 24.8388 14.8335C24.8865 14.8293 24.9355 14.8251 24.9832 14.8194C25.0056 14.811 25.0266 14.8026 25.049 14.7941C25.4695 14.7294 25.8886 14.7463 26.3091 14.7998C26.3399 14.8068 26.3708 14.8138 26.4016 14.8209L26.5236 14.8349C26.5334 14.8419 26.5432 14.8476 26.553 14.8546C26.5824 14.8546 26.6119 14.8518 26.6413 14.8504C26.6511 14.8504 26.6609 14.8504 26.6721 14.849C26.7226 14.8588 26.7717 14.8701 26.8221 14.8799C26.8319 14.8799 26.8417 14.8799 26.8529 14.8799C26.8936 14.8898 26.9328 14.8982 26.9735 14.908C27.0043 14.9137 27.0338 14.9193 27.0646 14.9249C27.0744 14.932 27.0842 14.939 27.094 14.946C27.1038 14.9474 27.1137 14.946 27.1221 14.939C27.1599 14.9418 27.1992 14.946 27.237 14.9488C27.2482 14.9559 27.2608 14.9629 27.272 14.9699C27.2931 14.9741 27.3127 14.9798 27.3337 14.984L27.3645 15.0065C27.5341 15.0459 27.7037 15.0853 27.8733 15.1232C27.8817 15.1288 27.8916 15.1303 27.9028 15.1303C27.9238 15.1373 27.9434 15.1443 27.9644 15.1499C27.9827 15.1528 28.0023 15.1556 28.0205 15.1584C28.0317 15.1654 28.0415 15.1724 28.0527 15.1795C28.0724 15.1823 28.092 15.1851 28.1116 15.1879C28.1228 15.1964 28.1326 15.2034 28.1439 15.2118C28.2448 15.2442 28.3443 15.2751 28.4452 15.3075C28.455 15.3145 28.4648 15.3215 28.4746 15.33C28.6064 15.3848 28.7381 15.4397 28.8685 15.4931C28.8951 15.4439 28.9148 15.4059 28.9344 15.3679C29.0045 15.3286 29.0045 15.3187 28.9344 15.2765V15.285Z" fill="#4E4E4E"></path> <path d="M12.623 20.7123L12.6387 20.775C12.6856 20.7408 12.6657 20.7237 12.623 20.7123Z" fill="#4E4E4E"></path> <path d="M32.8326 17.458C32.8226 17.478 32.8127 17.4979 32.8027 17.5179C32.8383 17.5108 32.8738 17.5037 32.8326 17.458Z" fill="#4E4E4E"></path> <path d="M25.1776 25.9891C25.1577 26.0362 25.1933 26.0505 25.2246 26.0676C25.2345 26.0262 25.2246 25.9963 25.1776 25.9891Z" fill="#4E4E4E"></path> <path d="M37.1528 32.9441L36.2892 35.4974L37.2129 38.201H36.3418L35.6659 36.1208L34.9825 38.201H34.209L35.1327 35.4974L34.2691 32.9441H35.1252L35.7485 34.8816L36.3868 32.9441H37.1528Z" fill="#4E4E4E"></path> <path d="M30.0488 38.201V32.9441H30.8749V34.9192H31.2654C32.0865 34.9192 32.497 35.3522 32.497 36.2184V36.9018C32.497 37.7679 32.0865 38.201 31.2654 38.201H30.0488ZM31.2654 37.45C31.5358 37.45 31.671 37.2848 31.671 36.9543V36.1658C31.671 35.8354 31.5358 35.6702 31.2654 35.6702H30.8749V37.45H31.2654ZM32.9702 38.201V32.9441H33.7962V38.201H32.9702Z" fill="#4E4E4E"></path> <path d="M27.6718 38.201H26.8457V32.9441H27.6718V35.197H28.6105V32.9441H29.4516V38.201H28.6105V35.948H27.6718V38.201Z" fill="#4E4E4E"></path> <path d="M23.9277 32.9441H26.4811V33.6951H25.6174V38.201H24.7914V33.6951H23.9277V32.9441Z" fill="#4E4E4E"></path> <path d="M21.9472 36.9919C21.9472 37.3374 22.0899 37.5101 22.3752 37.5101C22.6606 37.5101 22.8033 37.3374 22.8033 36.9919V34.1532C22.8033 33.8077 22.6606 33.635 22.3752 33.635C22.0899 33.635 21.9472 33.8077 21.9472 34.1532V36.9919ZM21.1211 34.2058C21.1211 33.7852 21.2287 33.4598 21.444 33.2295C21.6593 32.9992 21.9697 32.884 22.3752 32.884C22.7808 32.884 23.0912 32.9992 23.3065 33.2295C23.5217 33.4598 23.6294 33.7852 23.6294 34.2058V36.9393C23.6294 37.3599 23.5217 37.6853 23.3065 37.9156C23.0912 38.1459 22.7808 38.2611 22.3752 38.2611C21.9697 38.2611 21.6593 38.1459 21.444 37.9156C21.2287 37.6853 21.1211 37.3599 21.1211 36.9393V34.2058Z" fill="#4E4E4E"></path> <path d="M19.3853 32.9441C20.2014 32.9441 20.6094 33.3471 20.6094 34.1532V34.3409C20.6094 34.8816 20.4317 35.2346 20.0762 35.3998C20.4868 35.56 20.692 35.9355 20.692 36.5263V36.9543C20.692 37.7854 20.274 38.201 19.4379 38.201H18.1387V32.9441H19.3853ZM18.9648 35.8354V37.45H19.4379C19.7232 37.45 19.8659 37.2773 19.8659 36.9318V36.4737C19.8659 36.2334 19.8234 36.0657 19.7383 35.9706C19.6582 35.8804 19.523 35.8354 19.3327 35.8354H18.9648ZM18.9648 33.6951V35.0844H19.2877C19.6181 35.0844 19.7833 34.8992 19.7833 34.5287V34.2358C19.7833 33.8753 19.6431 33.6951 19.3628 33.6951H18.9648Z" fill="#4E4E4E"></path> <path d="M15.7822 38.201H14.9336V32.9441H15.6696V36.271L15.97 35.1144L16.6458 32.9441H17.5545V38.201H16.8111V34.4986L16.4731 35.7903L15.7822 38.201Z" fill="#4E4E4E"></path> <path d="M12.7811 35.0694L13.7574 32.9441H14.5835L13.5696 35.0769L14.5835 38.201H13.7348L12.9839 35.8729L12.7811 36.271V38.201H11.9625V36.271L11.7598 35.8654L11.0088 38.201H10.1602L11.1815 35.0994L10.1602 32.9441H10.9862L11.9625 35.0694V32.9441H12.7811V35.0694Z" fill="#4E4E4E"></path> <path d="M8.85027 38.201H8.01668L7.87399 37.2472H6.86017L6.71748 38.201H5.95898L6.80009 32.9441H8.00917L8.85027 38.201ZM6.9653 36.5338H7.76135L7.36333 33.8753L6.9653 36.5338Z" fill="#4E4E4E"></path> <path d="M3.79874 38.201H2.97266V32.9441H3.79874V35.197H4.73747V32.9441H5.57857V38.201H4.73747V35.948H3.79874V38.201Z" fill="#4E4E4E"></path> <path d="M36.4336 31.3169C36.4937 31.1768 36.5237 30.964 36.5237 30.6786V29.8675C36.5237 29.2768 36.7064 28.9038 37.0719 28.7486C36.7115 28.5784 36.5312 28.2229 36.5312 27.6822V27.2691C36.5312 26.4631 36.9393 26.0601 37.7553 26.0601H39.002V31.3169H38.1759V29.1766H37.8905C37.53 29.1766 37.3498 29.3994 37.3498 29.845V30.6711C37.3498 30.9515 37.3248 31.1668 37.2747 31.3169H36.4336ZM37.7779 26.811C37.4975 26.811 37.3573 26.9913 37.3573 27.3518V27.8699C37.3573 28.2404 37.5225 28.4257 37.853 28.4257H38.1759V26.811H37.7779Z" fill="#4E4E4E"></path> <path d="M36.0804 29.3569V30.0553C36.0804 30.9365 35.6699 31.377 34.8488 31.377C34.0277 31.377 33.6172 30.9365 33.6172 30.0553V27.3217C33.6172 26.4406 34.0277 26 34.8488 26C35.6699 26 36.0804 26.4406 36.0804 27.3217V27.8324H35.2994V27.2692C35.2994 26.9237 35.1567 26.751 34.8713 26.751C34.586 26.751 34.4433 26.9237 34.4433 27.2692V30.1079C34.4433 30.4483 34.586 30.6186 34.8713 30.6186C35.1567 30.6186 35.2994 30.4483 35.2994 30.1079V29.3569H36.0804Z" fill="#4E4E4E"></path> <path d="M30.7695 26.0601H33.3229V26.811H32.4592V31.3169H31.6332V26.811H30.7695V26.0601Z" fill="#4E4E4E"></path> <path d="M29.0702 28.2755H30.2042V29.0264H29.0702V30.566H30.4971V31.3169H28.2441V26.0601H30.4971V26.811H29.0702V28.2755Z" fill="#4E4E4E"></path> <path d="M27.0122 29.9802C26.907 30.4909 26.7493 30.8413 26.539 31.0316C26.2887 31.2619 25.8907 31.3595 25.345 31.3245V30.5885C25.5703 30.6035 25.7355 30.5835 25.8406 30.5284C25.9658 30.4633 26.0434 30.3407 26.0734 30.1604L26.081 30.1154L24.9395 26.0601H25.758L26.2086 27.8549L26.464 29.0865L26.6592 27.8624L27.0347 26.0601H27.8983L27.0122 29.9802Z" fill="#4E4E4E"></path> <path d="M23.5643 26.0601C24.3853 26.0601 24.7959 26.4931 24.7959 27.3593V28.0427C24.7959 28.9088 24.3853 29.3419 23.5643 29.3419H23.1737V31.3169H22.3477V26.0601H23.5643ZM23.1737 26.811V28.5909H23.5643C23.8346 28.5909 23.9698 28.4257 23.9698 28.0952V27.3067C23.9698 26.9763 23.8346 26.811 23.5643 26.811H23.1737Z" fill="#4E4E4E"></path> <path d="M19.9931 31.3169H19.1445V26.0601H19.8805V29.3869L20.1809 28.2304L20.8568 26.0601H21.7655V31.3169H21.022V27.6146L20.684 28.9063L19.9931 31.3169Z" fill="#4E4E4E"></path> <path d="M16.2266 26.0601H18.7799V26.811H17.9163V31.3169H17.0902V26.811H16.2266V26.0601Z" fill="#4E4E4E"></path> <path d="M15.9632 29.3569V30.0553C15.9632 30.9365 15.5527 31.377 14.7316 31.377C13.9105 31.377 13.5 30.9365 13.5 30.0553V27.3217C13.5 26.4406 13.9105 26 14.7316 26C15.5527 26 15.9632 26.4406 15.9632 27.3217V27.8324H15.1822V27.2692C15.1822 26.9237 15.0395 26.751 14.7541 26.751C14.4688 26.751 14.3261 26.9237 14.3261 27.2692V30.1079C14.3261 30.4483 14.4688 30.6186 14.7541 30.6186C15.0395 30.6186 15.1822 30.4483 15.1822 30.1079V29.3569H15.9632Z" fill="#4E4E4E"></path> <path d="M11.6308 28.2755H12.7648V29.0264H11.6308V30.566H13.0576V31.3169H10.8047V26.0601H13.0576V26.811H11.6308V28.2755Z" fill="#4E4E4E"></path> <path d="M7.88672 26.0601H10.4401V26.811H9.57643V31.3169H8.75035V26.811H7.88672V26.0601Z" fill="#4E4E4E"></path> <path d="M5.02335 28.2755H6.15733V29.0264H5.02335V30.566H6.45022V31.3169H4.19727V26.0601H6.45022V26.811H5.02335V28.2755Z" fill="#4E4E4E"></path> <path d="M1.81827 31.3169H0.992187L0.992188 26.0601H1.81827V28.313H2.757V26.0601H3.5981V31.3169H2.757V29.064H1.81827V31.3169Z" fill="#4E4E4E"></path> </svg> 