<?xml version="1.0" encoding="UTF-8"?> <svg xmlns="http://www.w3.org/2000/svg" width="40" height="40" viewBox="0 0 40 40" fill="none"> <path d="M20.4629 32.0697H21.4216V37.2988H22.999V38.1703H20.4629V32.0697Z" fill="#4E4E4E"></path> <path d="M18.5067 34.7714H19.8488V36.7061C19.8488 37.7287 19.3724 38.24 18.4195 38.24C17.4667 38.24 16.9902 37.7287 16.9902 36.7061V33.5339C16.9902 32.5113 17.4667 32 18.4195 32C19.3724 32 19.8488 32.5113 19.8488 33.5339V34.1265H18.9424V33.4728C18.9424 33.072 18.7768 32.8715 18.4457 32.8715C18.1145 32.8715 17.9489 33.072 17.9489 33.4728V36.7672C17.9489 37.1622 18.1145 37.3598 18.4457 37.3598C18.7768 37.3598 18.9424 37.1622 18.9424 36.7672V35.6429H18.5067V34.7714Z" fill="#4E4E4E"></path> <path fill-rule="evenodd" clip-rule="evenodd" d="M22.4505 3.43254C21.4069 1.71324 18.9341 1.65111 17.8055 3.31583L15.2299 7.1148C15.0588 7.3672 14.7155 7.4331 14.4631 7.26198C14.2107 7.09086 14.1448 6.74753 14.3159 6.49513L16.8914 2.69616C18.4715 0.365544 21.9335 0.452526 23.3945 2.85955L28.5761 11.3962L30.8292 10.0286L30.9691 16.4027L25.379 13.3368L27.6321 11.9692L22.4505 3.43254Z" fill="#4E4E4E"></path> <path fill-rule="evenodd" clip-rule="evenodd" d="M30.7922 26.6414C32.8066 26.6002 34.0998 24.4847 33.218 22.673L31.2379 18.6049C31.1044 18.3307 31.2185 18.0003 31.4927 17.8668C31.7669 17.7334 32.0973 17.8474 32.2308 18.1216L34.2109 22.1898C35.4455 24.7261 33.635 27.6878 30.8147 27.7455L20.9464 27.9472L21.0002 30.5823L15.4148 27.5081L20.8699 24.2081L20.9238 26.8432L30.7922 26.6414Z" fill="#4E4E4E"></path> <path fill-rule="evenodd" clip-rule="evenodd" d="M6.59237 22.5057C5.5986 24.3451 6.93058 26.5787 9.02126 26.5787L13.9223 26.5787C14.2272 26.5787 14.4744 26.8259 14.4744 27.1308C14.4744 27.4358 14.2272 27.683 13.9223 27.683L9.02126 27.683C6.09432 27.683 4.22954 24.5559 5.62082 21.9808L8.021 17.5383L10.6489 13.0661L8.37652 11.7308L13.9222 8.5854L13.8734 14.9608L11.601 13.6255L8.98314 18.0806L6.59237 22.5057Z" fill="#4E4E4E"></path> <path d="M22.4682 15.5864C22.4682 15.1164 22.3008 14.8814 21.9659 14.8814C21.6309 14.8814 21.4635 15.0841 21.4635 15.4895V16.1505H20.5469V15.5512C20.5469 14.5171 21.0287 14 21.9923 14C22.9559 14 23.4377 14.5171 23.4377 15.5512C23.4377 16.2739 23.1175 17.0025 22.477 17.7369L22.2919 17.9396L22.1157 18.1335C21.9864 18.2804 21.8836 18.4009 21.8072 18.4949C21.6074 18.7652 21.5075 19.009 21.5075 19.2264C21.5075 19.2852 21.5105 19.3292 21.5164 19.3586H23.3496V20.24H20.5469V19.482C20.5469 19.0766 20.6468 18.7005 20.8465 18.3539C20.9699 18.1482 21.1903 17.8691 21.5075 17.5166L21.6838 17.3227L21.8601 17.12C21.9835 16.9672 22.0863 16.8233 22.1686 16.6881C22.3683 16.3473 22.4682 15.9801 22.4682 15.5864Z" fill="#4E4E4E"></path> <path d="M19.8987 14.0706V14.9167L18.4709 20.24H17.5014L18.9204 14.9519H16.9902V14.0706H19.8987Z" fill="#4E4E4E"></path> </svg> 