<svg width="32" height="32" viewBox="0 0 32 32" fill="none" xmlns="http://www.w3.org/2000/svg">
<path d="M17.0952 5.33469C17.8736 5.3317 18.6519 5.33952 19.4301 5.35815L19.637 5.36562C19.8759 5.37415 20.1116 5.38482 20.3964 5.39762C21.5313 5.45095 22.3056 5.63014 22.9851 5.8936C23.689 6.16452 24.2821 6.53145 24.8751 7.12449C25.4173 7.65739 25.837 8.30199 26.1049 9.01349C26.3684 9.69294 26.5476 10.4684 26.6009 11.6033C26.6137 11.887 26.6244 12.1238 26.6329 12.3627L26.6393 12.5696C26.6582 13.3474 26.6664 14.1254 26.6638 14.9034L26.6649 15.6991V17.0964C26.6675 17.8748 26.6593 18.6531 26.6404 19.4313L26.634 19.6382C26.6254 19.8771 26.6148 20.1128 26.602 20.3976C26.5486 21.5325 26.3673 22.3069 26.1049 22.9863C25.8379 23.6986 25.4181 24.3437 24.8751 24.8764C24.3418 25.4186 23.6968 25.8383 22.9851 26.1062C22.3056 26.3697 21.5313 26.5489 20.3964 26.6022C20.1116 26.615 19.8759 26.6257 19.637 26.6342L19.4301 26.6406C18.6519 26.6596 17.8736 26.6678 17.0952 26.6652L16.2995 26.6662H14.9034C14.125 26.6689 13.3467 26.6607 12.5685 26.6417L12.3616 26.6353C12.1084 26.6261 11.8553 26.6154 11.6022 26.6033C10.4673 26.55 9.69296 26.3686 9.01246 26.1062C8.30069 25.8389 7.65598 25.4191 7.12349 24.8764C6.58063 24.3434 6.16058 23.6984 5.89262 22.9863C5.62916 22.3069 5.44997 21.5325 5.39664 20.3976C5.38476 20.1445 5.3741 19.8914 5.36465 19.6382L5.35931 19.4313C5.33965 18.6531 5.33076 17.8748 5.33265 17.0964V14.9034C5.32967 14.1254 5.33749 13.3474 5.35611 12.5696L5.36358 12.3627C5.37211 12.1238 5.38278 11.887 5.39558 11.6033C5.44891 10.4673 5.6281 9.694 5.89155 9.01349C6.15967 8.30165 6.58054 7.65722 7.12455 7.12556C7.65668 6.58238 8.30099 6.16194 9.01246 5.8936C9.69296 5.63014 10.4662 5.45095 11.6022 5.39762L12.3616 5.36562L12.5685 5.36029C13.3463 5.34063 14.1243 5.33174 14.9023 5.33362L17.0952 5.33469ZM15.9988 10.6678C15.2921 10.6578 14.5906 10.7884 13.9348 11.0519C13.2791 11.3154 12.6823 11.7066 12.1791 12.2028C11.6758 12.6989 11.2762 13.2902 11.0035 13.9421C10.7307 14.5941 10.5903 15.2937 10.5903 16.0005C10.5903 16.7072 10.7307 17.4068 11.0035 18.0588C11.2762 18.7107 11.6758 19.302 12.1791 19.7981C12.6823 20.2943 13.2791 20.6855 13.9348 20.949C14.5906 21.2125 15.2921 21.3431 15.9988 21.3331C17.4132 21.3331 18.7697 20.7712 19.7698 19.771C20.77 18.7709 21.3318 17.4144 21.3318 15.9999C21.3318 14.5855 20.77 13.229 19.7698 12.2288C18.7697 11.2287 17.4132 10.6678 15.9988 10.6678ZM15.9988 12.8011C16.4238 12.7933 16.8462 12.8702 17.2412 13.0274C17.6361 13.1847 17.9958 13.419 18.2992 13.7168C18.6026 14.0147 18.8436 14.3699 19.0082 14.7619C19.1727 15.1539 19.2575 15.5748 19.2575 15.9999C19.2576 16.425 19.173 16.8459 19.0086 17.238C18.8442 17.63 18.6033 17.9854 18.3 18.2833C17.9967 18.5812 17.6371 18.8157 17.2421 18.9731C16.8472 19.1304 16.4249 19.2075 15.9998 19.1998C15.1512 19.1998 14.3373 18.8627 13.7372 18.2626C13.1371 17.6625 12.8 16.8486 12.8 15.9999C12.8 15.1513 13.1371 14.3374 13.7372 13.7373C14.3373 13.1372 15.1512 12.8 15.9998 12.8L15.9988 12.8011ZM21.5985 9.06789C21.2544 9.08166 20.929 9.22805 20.6904 9.47638C20.4518 9.72471 20.3185 10.0557 20.3185 10.4001C20.3185 10.7445 20.4518 11.0755 20.6904 11.3238C20.929 11.5722 21.2544 11.7186 21.5985 11.7323C21.9521 11.7323 22.2912 11.5919 22.5412 11.3418C22.7913 11.0918 22.9317 10.7527 22.9317 10.399C22.9317 10.0454 22.7913 9.70631 22.5412 9.45627C22.2912 9.20623 21.9521 9.06576 21.5985 9.06576V9.06789Z" fill="#595959"/>
</svg>
