<svg width="64" height="64" viewBox="0 0 64 64" fill="none" xmlns="http://www.w3.org/2000/svg">
<g clip-path="url(#clip0_893_108673)">
<rect width="64" height="64" rx="32" fill="#0B21FC"/>
<path d="M13.1868 37.3542C12.9658 37.3442 12.4936 37.314 12.1319 37.2838C11.7752 37.2586 11.1874 37.2133 10.8257 37.1832C10.1526 37.1328 9.83108 37.1027 8.23862 36.9316C5.41538 36.6297 4.86782 36.5744 4.04396 36.5039C2.97394 36.4133 1.24082 36.3278 0.517425 36.3278H0V31.4976V26.6674H0.919309C2.36609 26.6674 5.3752 26.9039 8.01256 27.2209C12.5086 27.7643 17.0901 27.8599 20.9733 27.4926C22.7115 27.3316 23.7162 27.2259 24.8163 27.1001C27.2829 26.8083 29.5736 26.6674 31.8744 26.6674C34.3711 26.6674 35.9334 26.7681 39.2339 27.1454C40.1432 27.2461 42.3184 27.4574 43.4035 27.5479C43.8857 27.5882 45.1316 27.6486 46.1664 27.6838C49.2559 27.7794 52.3202 27.6184 56.2889 27.1454C57.1629 27.0398 58.2933 26.9291 59.1272 26.8687C59.529 26.8385 60.0816 26.7882 60.3579 26.763C60.6342 26.7379 61.5686 26.7027 62.4327 26.6825L64 26.6523V31.4926V36.3278H63.3871C62.719 36.3278 59.9209 36.4586 59.6295 36.5039C59.5341 36.519 59.2176 36.5492 58.9262 36.5794C57.8763 36.67 56.2889 36.831 56.1884 36.8511C55.9724 36.9014 53.7922 37.1178 52.044 37.2637C50.125 37.4247 45.1567 37.4096 43.3532 37.2335C43.0619 37.2083 42.3083 37.1379 41.6703 37.0825C41.0374 37.0222 40.1331 36.9316 39.6609 36.8813C39.1937 36.8259 38.4603 36.7454 38.0433 36.7052C37.6214 36.6649 36.9432 36.5945 36.5363 36.5542C33.8587 36.2876 30.1061 36.2775 27.5039 36.5291C26.1827 36.6599 24.4747 36.836 23.6358 36.9266C20.3052 37.2939 19.5818 37.3391 16.4521 37.3542C14.8797 37.3643 13.4078 37.3643 13.1868 37.3542ZM31.6534 34.9341C31.8292 34.6624 32.6681 33.3895 33.5171 32.1064C34.3711 30.8284 35.0644 29.7668 35.0644 29.7567C35.0644 29.7467 34.7529 29.7366 34.3761 29.7417H33.6829L32.8791 30.9744C32.437 31.6486 32.0402 32.2372 32 32.2725C31.9347 32.3328 31.8192 32.1819 31.0706 31.0398L30.2166 29.7417L29.5485 29.7366H28.8854L29.3777 30.4813C30.1664 31.6586 31.2465 33.3089 31.2615 33.3542C31.2666 33.3744 30.9953 33.8121 30.6537 34.3303C30.3171 34.8435 30.0257 35.3014 30.0107 35.3467C29.9856 35.4121 30.0659 35.4222 30.6537 35.4222H31.3319L31.6534 34.9341ZM19.627 33.9178C20.5262 33.7266 21.2898 33.2234 21.5862 32.6146C21.7118 32.358 21.7268 32.2775 21.7268 31.7995C21.7268 31.3215 21.7118 31.241 21.5862 30.9844C21.4154 30.6322 20.9532 30.1945 20.5312 29.9832C19.5617 29.4901 17.7582 29.3945 16.5626 29.7668C16.1758 29.8926 15.6735 30.1291 15.6735 30.1945C15.6735 30.2196 16.1808 30.914 16.2462 30.9794C16.2562 30.9945 16.432 30.924 16.638 30.8234C17.1052 30.592 17.6025 30.4913 18.2656 30.4913C19.205 30.4913 19.9133 30.7077 20.3002 31.1102C20.4107 31.2209 20.4961 31.3266 20.4961 31.3517C20.4961 31.3769 19.9837 31.402 19.3557 31.4071L18.2204 31.4222L18.2254 31.875L18.2305 32.3278L19.3206 32.353L20.4107 32.3781L20.2399 32.5442C19.5466 33.2234 17.4066 33.2989 16.4672 32.68L16.2863 32.5593L16 32.9366C15.8493 33.1429 15.7086 33.3391 15.6936 33.3794C15.6383 33.5303 16.6581 33.9077 17.4066 34.0083C17.924 34.0788 19.0845 34.0335 19.627 33.9178ZM8.83642 33.2788C9.24333 32.0913 9.76578 31.3417 10.3887 31.0347C10.7052 30.8788 10.7504 30.8687 11.2779 30.8687C11.8104 30.8687 11.8405 30.8737 12.1469 31.0398C12.795 31.392 13.2973 32.1316 13.6841 33.2989L13.875 33.8624H14.4477C14.93 33.8624 15.0204 33.8523 15.0204 33.7869C15.0204 33.5857 14.5733 32.3731 14.3121 31.8498C13.8349 30.9089 13.3224 30.3656 12.589 30.0184C12.1369 29.802 11.8204 29.7366 11.2377 29.7366C9.82104 29.7366 8.77111 30.5316 8.05777 32.1517C7.86688 32.5945 7.48509 33.6913 7.48509 33.8121C7.48509 33.8473 7.68603 33.8624 8.06279 33.8523L8.6405 33.8372L8.83642 33.2788ZM25.7206 32.2775V30.6926H26.9513H28.1821V30.2146V29.7366H25.1479H22.1187L22.0835 29.8926C22.0534 30.0435 22.0383 30.6322 22.0684 30.6523C22.0735 30.6574 22.6311 30.6725 23.3093 30.6876L24.54 30.7178L24.5551 32.2926L24.5651 33.8624H25.1429H25.7206V32.2775ZM41.394 32.4284C41.394 31.1102 41.384 30.9643 41.2885 30.6775C41.163 30.3001 40.9319 30.0385 40.5702 29.8775C40.314 29.7618 40.2939 29.7618 38.0383 29.7467L35.7626 29.7316L35.7777 30.1995L35.7928 30.6674L37.8374 30.6926L39.8769 30.7178L40.0075 30.8385C40.1432 30.9643 40.2637 31.2913 40.1984 31.3567C40.1783 31.3718 39.2841 31.397 38.2041 31.4071C36.0038 31.4322 35.9234 31.4423 35.5717 31.7945C35.0794 32.2876 35.195 33.3391 35.7777 33.641C36.1444 33.8322 36.471 33.8523 38.9727 33.8574L41.394 33.8624V32.4284ZM43.4487 33.3542C43.8305 32.1769 44.4232 31.3165 45.0512 31.0096C45.3124 30.8838 45.3928 30.8687 45.8901 30.8687C46.3975 30.8687 46.4678 30.8788 46.7441 31.0146C47.3871 31.3316 47.8794 32.0259 48.3014 33.2234L48.5174 33.8372L49.1002 33.8523L49.6879 33.8674L49.6527 33.7266C49.4568 32.9366 48.9595 31.7542 48.5878 31.2159C48.1608 30.5869 47.568 30.1089 46.9199 29.8725C46.5281 29.7316 45.6088 29.6964 45.1416 29.8071C44.4383 29.9731 43.7451 30.4611 43.2779 31.1152C42.9011 31.6586 42.4641 32.6146 42.2279 33.4196C42.0923 33.8876 42.0672 33.8624 42.7152 33.8624H43.2829L43.4487 33.3542ZM55.4851 33.8071C56.2035 33.6762 56.5149 33.314 56.5149 32.6297C56.5149 32.0611 56.3039 31.7341 55.8166 31.5379C55.5454 31.4272 55.465 31.4222 53.5661 31.4071L51.5918 31.392V30.5618V29.7316L51.0041 29.7467L50.4113 29.7618L50.3962 31.8146L50.3862 33.8624H52.7874C54.3096 33.8624 55.2992 33.8423 55.4851 33.8071Z" fill="#FDFCF9"/>
<path d="M36.6904 32.8651C36.5597 32.8299 36.4141 32.6993 36.4141 32.6139C36.4141 32.5787 36.4894 32.5034 36.5798 32.4481C36.7305 32.3527 36.836 32.3477 38.4888 32.3477H40.237L40.2219 32.6139L40.2068 32.8751L38.4988 32.8802C37.5594 32.8852 36.7456 32.8802 36.6904 32.8651Z" fill="#FDFCF9"/>
<path d="M51.5938 32.624V32.3477H53.2967C54.3718 32.3477 55.05 32.3678 55.1504 32.4029C55.4217 32.4933 55.4217 32.7495 55.1504 32.845C55.05 32.8802 54.3868 32.9002 53.2967 32.9002H51.5938V32.624Z" fill="#FDFCF9"/>
<path d="M0.445312 37.0251C0.445312 36.9397 0.490524 36.9297 0.947667 36.9297C1.41988 36.9297 1.45002 36.9347 1.45002 37.0302C1.45002 37.1306 1.4249 37.1357 0.947667 37.1256C0.490524 37.1206 0.445312 37.1105 0.445312 37.0251Z" fill="#FDFCF9"/>
<path d="M36.2656 26.163C36.2656 26.0776 36.3008 26.0625 36.4666 26.0625C36.6323 26.0625 36.6675 26.0776 36.6675 26.163C36.6675 26.2484 36.6323 26.2634 36.4666 26.2634C36.3008 26.2634 36.2656 26.2484 36.2656 26.163Z" fill="#FDFCF9"/>
<path d="M0.366719 26.0754C0.0401884 26.0603 0 26.0452 0 25.9598C0 25.8644 0.0401884 25.8594 0.77865 25.8594C1.50204 25.8594 1.5573 25.8644 1.5573 25.9548C1.5573 26.0302 1.50204 26.0503 1.25086 26.0804C1.08006 26.0955 0.894192 26.1055 0.833909 26.1005C0.773626 26.0955 0.562637 26.0804 0.366719 26.0754Z" fill="#FDFCF9"/>
<path d="M13.8901 38.1531C11.4135 38.0374 10.1827 37.9368 7.45997 37.6349C5.69168 37.4387 3.50141 37.2424 2.71272 37.2072C2.36609 37.1921 1.91397 37.1619 1.70801 37.1418C1.50204 37.1217 1.02983 37.1116 0.668132 37.1167L0 37.1318V36.6538V36.1758H0.592779C1.38148 36.1758 3.08446 36.2613 4.19466 36.3519C5.01852 36.4223 5.56609 36.4777 8.38933 36.7796C9.98179 36.9506 10.3033 36.9808 10.9765 37.0311C11.3381 37.0613 11.9259 37.1116 12.2826 37.1418C13.1969 37.2274 18.7077 37.2274 19.6923 37.1418C21.1994 37.011 22.611 36.8701 23.4851 36.7745C24.319 36.684 26.017 36.5079 27.3532 36.377C28.6995 36.2462 29.8148 36.206 31.9246 36.206C34.13 36.206 35.0845 36.2462 36.687 36.4022C37.0939 36.4424 37.7721 36.5129 38.194 36.5531C38.611 36.5934 39.3444 36.6739 39.8116 36.7292C40.2838 36.7796 41.1881 36.8701 41.821 36.9305C42.459 36.9858 43.2126 37.0563 43.5039 37.0814C45.2973 37.2575 49.9743 37.2726 51.8932 37.1116C53.6163 36.9657 55.8217 36.7494 56.0377 36.6991C56.1381 36.6789 57.7256 36.5179 58.7755 36.4274C59.0669 36.3972 59.3834 36.367 59.4788 36.3519C59.7852 36.3066 62.5884 36.1758 63.3118 36.1758H64V36.6538V37.1318L63.2364 37.1267C61.5586 37.1267 59.6848 37.2626 56.1884 37.6349C52.7623 38.0022 52.3956 38.0324 50.3862 38.138C48.417 38.2387 45.0261 38.1733 42.9262 37.9921C42.0471 37.9167 40.2286 37.7406 40.0377 37.7104C39.0028 37.5594 35.5265 37.2424 34.1852 37.1821C32.3516 37.0965 29.6942 37.1267 28.157 37.2575C27.2427 37.333 25.4794 37.5041 24.314 37.6349C20.3906 38.0726 18.4917 38.1934 15.8493 38.1783C14.94 38.1733 14.0559 38.1632 13.8901 38.1531Z" fill="#E9C166"/>
<path d="M13.3636 27.8248C11.8866 27.7594 9.32966 27.5481 7.86279 27.372C5.32589 27.065 2.21632 26.8185 0.844889 26.8185H0.000933318V26.3657L0 25.8515L0.673155 25.8565C1.0449 25.8616 1.35838 25.8667 1.38405 25.8722C1.56035 25.8485 4.74316 26.0587 7.78743 26.3908C14.2226 27.0952 17.8396 27.1003 23.7623 26.416C24.7017 26.3103 27.0377 26.0789 27.2034 26.0789C27.2587 26.0789 27.5651 26.0487 27.8816 26.0185C28.7105 25.938 30.4336 25.8625 30.8606 25.8877C31.0565 25.9028 31.6543 25.9128 32.1768 25.9128C34.2012 25.9128 34.6282 25.9229 35.4973 25.9933C35.9947 26.0336 36.4417 26.0688 36.497 26.0738C36.6979 26.0839 39.059 26.3204 39.903 26.416C40.9428 26.5317 43.2838 26.7481 44.3589 26.8185C46.4788 26.9694 49.9651 26.9342 52.2709 26.7481C52.713 26.7128 53.1199 26.6826 53.1752 26.6776C53.3209 26.6776 54.622 26.5367 56.1391 26.3707C56.8574 26.2902 57.7265 26.1946 58.0731 26.1644C58.4198 26.1342 58.7513 26.104 58.8116 26.094C58.8258 26.0916 58.8388 26.0906 58.8503 26.0908C58.8877 26.0913 58.9085 26.1037 58.897 26.1191C58.8819 26.1443 58.9422 26.1644 59.0226 26.1644C59.108 26.1644 59.1783 26.1443 59.1783 26.1191C59.1783 26.0891 59.2565 26.065 59.4898 26.0381C59.6868 26.0152 59.9946 25.9904 60.4593 25.9581C61.3083 25.9028 63.7397 25.8877 63.9055 25.938C63.9909 25.9682 64.0009 26.0185 64.0009 26.3858V26.8034L62.5089 26.8336C61.6851 26.8537 60.7859 26.8889 60.5096 26.9141C60.2333 26.9392 59.6807 26.9896 59.2788 27.0197C58.4449 27.0801 57.3146 27.1908 56.4405 27.2965C52.4317 27.7745 49.3221 27.9355 46.0769 27.8348C45.0069 27.7996 43.7359 27.7392 43.2537 27.699C42.1585 27.6084 39.9834 27.3971 39.0841 27.2965C35.8439 26.9292 34.2113 26.8185 31.8753 26.8185C29.7253 26.8185 27.3742 26.9644 24.968 27.2512C23.1243 27.4675 20.7381 27.694 19.4672 27.7745C18.3268 27.8499 14.5893 27.8801 13.3636 27.8248Z" fill="#E9C166"/>
<path d="M58.8503 26.0908C58.8877 26.0913 58.9085 26.1037 58.897 26.1191C58.8819 26.1443 58.9422 26.1644 59.0226 26.1644C59.108 26.1644 59.1783 26.1443 59.1783 26.1191C59.1783 26.0891 59.2565 26.065 59.4898 26.0381L58.8503 26.0908Z" fill="#E9C166"/>
</g>
<defs>
<clipPath id="clip0_893_108673">
<rect width="64" height="64" rx="32" fill="white"/>
</clipPath>
</defs>
</svg>
