<?xml version="1.0" encoding="UTF-8"?> <svg xmlns="http://www.w3.org/2000/svg" width="64" height="64" viewBox="0 0 64 64" fill="none"> <rect y="0.000488281" width="64" height="64" rx="32" fill="#005BFF"></rect> <path d="M28.3778 33.6115H24.5826L29.4278 27.3798C29.5334 27.243 29.5041 27.0434 29.3633 26.9408C29.3105 26.9009 29.2401 26.8781 29.1697 26.8781H22.16C21.5441 26.8781 21.0396 27.3684 21.0396 27.9671C21.0396 28.5657 21.5441 29.056 22.16 29.056H25.31L20.4471 35.2935C20.3357 35.4303 20.365 35.6241 20.5058 35.7325C20.5645 35.7781 20.6348 35.8009 20.7052 35.7952H28.372C28.9879 35.7667 29.463 35.2536 29.4337 34.6492C29.4043 34.0904 28.9468 33.6457 28.372 33.6172V33.6115H28.3778ZM52.8738 26.8781C52.2578 26.8781 51.7534 27.3684 51.7534 27.9671V31.6217L45.6998 26.9522C45.5649 26.8439 45.3596 26.861 45.2481 26.9978C45.2012 27.0548 45.1777 27.1232 45.1777 27.1974V34.7062C45.1777 35.3049 45.6822 35.7952 46.2981 35.7952C46.914 35.7952 47.4185 35.3106 47.4185 34.7062V31.0516L53.4721 35.7268C53.6129 35.8351 53.8182 35.8123 53.9296 35.6755C53.9765 35.6184 54 35.55 54 35.4816V27.9671C53.9941 27.3627 53.4955 26.8781 52.8738 26.8781ZM36.854 33.8168C34.2906 33.8168 32.3784 32.5054 32.3784 31.3309C32.3784 30.1564 34.2965 28.8451 36.854 28.8451C39.4174 28.8451 41.3297 30.1564 41.3297 31.3309C41.3297 32.5054 39.4233 33.8168 36.854 33.8168ZM36.854 26.6671C33.1468 26.6671 30.1376 28.7539 30.1376 31.3309C30.1376 33.908 33.1468 35.9947 36.854 35.9947C40.5613 35.9947 43.5705 33.908 43.5705 31.3309C43.5705 28.7539 40.5613 26.6671 36.854 26.6671ZM14.8042 33.8225C13.3905 33.8225 12.2408 32.7107 12.2408 31.3366C12.2408 29.9626 13.3846 28.8451 14.7983 28.8451C16.212 28.8451 17.3617 29.9569 17.3617 31.3309V31.3366C17.3617 32.705 16.2178 33.8168 14.8042 33.8225ZM14.8042 26.6671C12.1528 26.6671 10.0059 28.7539 10 31.3309C10 33.908 12.1469 35.9947 14.7983 36.0004C17.4497 36.0004 19.5966 33.9137 19.6025 31.3366V31.3309C19.5966 28.7539 17.4497 26.6671 14.8042 26.6671Z" fill="white"></path> </svg> 