<svg width="32" height="32" viewBox="0 0 32 32" fill="none" xmlns="http://www.w3.org/2000/svg">
<path d="M28.2618 23.9987H25.3433C24.2391 23.9987 23.9064 23.0954 21.927 21.095C20.1971 19.4112 19.4665 19.2018 19.0289 19.2018C18.4237 19.2018 18.2587 19.3698 18.2587 20.2111V22.8628C18.2587 23.58 18.0284 24 16.1731 24C14.3732 23.8779 12.6278 23.3256 11.0806 22.3887C9.53348 21.4519 8.22884 20.1571 7.27417 18.6113C5.00739 15.7618 3.43018 12.4175 2.66797 8.84431C2.66797 8.40236 2.8343 8.00175 3.66854 8.00175H6.5858C7.33558 8.00175 7.60556 8.33904 7.89984 9.11827C9.31625 13.3285 11.7332 16.9908 12.7146 16.9908C13.0908 16.9908 13.2546 16.8228 13.2546 15.8755V11.5387C13.1304 9.56023 12.0902 9.39352 12.0902 8.67761C12.1034 8.48873 12.1889 8.31248 12.3287 8.18628C12.4684 8.06008 12.6514 7.99389 12.8387 8.00175H17.4244C18.0514 8.00175 18.2587 8.31707 18.2587 9.07433V14.9283C18.2587 15.5602 18.5274 15.7696 18.7167 15.7696C19.0929 15.7696 19.3821 15.5602 20.0717 14.865C21.55 13.0442 22.7577 11.0155 23.6569 8.84302C23.7489 8.58218 23.9229 8.3589 24.1523 8.20725C24.3817 8.05559 24.6539 7.98388 24.9274 8.00305H27.846C28.7211 8.00305 28.9067 8.445 28.7211 9.07563C27.6596 11.4772 26.3462 13.7569 24.8033 15.8755C24.4886 16.3601 24.3632 16.6121 24.8033 17.1807C25.0925 17.6227 26.1161 18.4859 26.8032 19.3065C27.8037 20.3145 28.6341 21.4801 29.2624 22.7568C29.5132 23.5787 29.0948 23.9987 28.2618 23.9987Z" fill="#595959"/>
</svg>
