<?xml version="1.0" encoding="UTF-8"?> <svg xmlns="http://www.w3.org/2000/svg" width="64" height="64" viewBox="0 0 64 64" fill="none"> <rect width="64" height="64" rx="32" fill="#BF11A6"></rect> <path d="M8.49552 34.6874L7 29.1001H7.98102L9.13027 33.3912L10.3618 29.0997L11.2763 29.1001L12.5121 33.4141L13.6665 29.1012L14.6475 29.0997L13.1511 34.6863L12.0139 34.6851L10.8196 30.5126L9.62354 34.6861L8.49552 34.6874ZM15.3241 29.103H16.2579V34.6834H15.3241V29.103ZM18.2547 33.8083H20.5281V34.6837H17.34V29.103H18.2547V33.8083ZM23.4007 29.1094C24.1672 29.1094 24.8048 29.3797 25.3072 29.9141C25.816 30.4483 26.0732 31.1112 26.0732 31.8966C26.0732 32.6753 25.8158 33.3384 25.3068 33.879C24.8046 34.4132 24.1669 34.6837 23.4005 34.6837H21.2045V29.103H23.4007V29.1092V29.1094ZM23.4007 33.8147C23.9289 33.8147 24.3603 33.6345 24.6825 33.2741C25.0173 32.9137 25.1847 32.45 25.1847 31.903C25.1847 31.3429 25.0173 30.8925 24.6825 30.5319C24.3538 30.1714 23.9224 29.9912 23.4007 29.9912H22.1255V33.8147H23.4007ZM31.0006 33.0895C31.0006 33.5468 30.8397 33.9266 30.5112 34.2293C30.1827 34.532 29.7962 34.6866 29.3197 34.6866H26.9301V29.103H29.1458C29.6031 29.103 29.9894 29.2576 30.305 29.5472C30.6272 29.8435 30.7817 30.2108 30.7817 30.6486C30.7817 31.1381 30.5884 31.5115 30.215 31.7886C30.7044 32.0461 31.0006 32.5098 31.0006 33.0895ZM27.8511 29.966V31.4343H29.1521C29.558 31.4343 29.8671 31.1122 29.8671 30.7001C29.8671 30.2879 29.558 29.966 29.1521 29.966H27.8511ZM29.326 33.8236C29.7511 33.8236 30.0861 33.4822 30.0861 33.0444C30.0861 32.6064 29.7511 32.265 29.326 32.265H27.8511V33.83H29.326V33.8236ZM32.7846 33.8108H35.2579V34.6866H31.8702V29.103H35.2193V29.9788H32.7846V31.4279H35.0196V32.2973H32.7846V33.8108ZM39.264 34.6866L38.0789 32.6515H36.9968V34.6866H36.0823V29.103H38.3171C38.8196 29.103 39.2447 29.2768 39.586 29.631C39.9337 29.9724 40.1142 30.3974 40.1142 30.8997C40.1142 31.6081 39.6697 32.2586 39.0064 32.5162L40.2751 34.6866H39.264ZM36.9968 29.966V31.8337H38.3108C38.8002 31.8337 39.1867 31.4213 39.1867 30.8997C39.1867 30.3846 38.7939 29.966 38.3108 29.966H36.9968ZM44.1524 34.6866L42.9738 32.6505H41.8917V34.6866H40.9772V29.1001H43.212C43.7145 29.1001 44.1396 29.2739 44.4809 29.6286C44.8286 29.9699 45.0091 30.3953 45.0091 30.8979C45.0091 31.6067 44.5646 32.2574 43.9013 32.5152L45.17 34.6866H44.1524ZM41.8917 29.9635V31.8322H43.2057C43.6951 31.8322 44.0816 31.4197 44.0816 30.8979C44.0816 30.3823 43.6887 29.9635 43.2057 29.9635H41.8917ZM45.8398 29.1008H46.7545V34.6866H45.8398V29.1008ZM48.7511 33.8108H51.2243V34.6866H47.8364V29.103H51.1855V29.9788H48.7511V31.4279H50.9859V32.2973H48.7511V33.8108ZM51.8619 33.4156L52.6541 32.9521C52.8795 33.5832 53.3368 33.8919 54.0388 33.8919C54.7344 33.8919 55.0757 33.596 55.0757 33.1582C55.0757 32.9265 54.9792 32.7589 54.7989 32.643C54.6184 32.521 54.2836 32.3857 53.807 32.2441C53.2723 32.0832 53.0083 31.9801 52.6347 31.7356C52.2742 31.4782 52.0937 31.1112 52.0937 30.6092C52.0937 30.1135 52.2676 29.7274 52.6219 29.4378C52.9698 29.1415 53.3948 29 53.8908 29C54.786 29 55.4751 29.4634 55.8358 30.2294L55.0629 30.6736C54.8309 30.1586 54.4381 29.8946 53.8908 29.8946C53.356 29.8946 53.0147 30.165 53.0147 30.5898C53.0147 31.0019 53.2852 31.195 54.1419 31.4588C54.3544 31.5297 54.509 31.5812 54.6055 31.6197C54.7086 31.652 54.8438 31.7099 55.0178 31.7807C55.1982 31.8514 55.3399 31.9352 55.4236 32.006C55.7199 32.2377 56.0353 32.6174 55.9967 33.1518C55.9967 33.6537 55.8165 34.0592 55.4494 34.3553C55.0886 34.6516 54.6121 34.7931 54.0196 34.7931C52.9375 34.7867 52.1517 34.2717 51.8619 33.4156Z" fill="white"></path> </svg> 