<?xml version="1.0" encoding="UTF-8"?> <svg xmlns="http://www.w3.org/2000/svg" width="64" height="64" viewBox="0 0 64 64" fill="none"> <g clip-path="url(#clip0_458_7419)"> <rect width="63.9994" height="64.0009" rx="31.9997" fill="#FED42B"></rect> <path d="M31.9986 63.9939C49.7128 63.9939 63.9958 49.711 63.9958 31.9969C63.9958 14.2829 49.7128 0 31.9986 0C14.2844 0 0.00130285 14.2829 0.00130285 31.9969C-0.158285 49.711 14.3642 63.9939 31.9986 63.9939Z" fill="#FED42B"></path> <path d="M16.2805 17.5599L-11.8867 54.4242L-4.38611 62.9621L16.5198 35.2739L14.3654 50.4346L26.0951 54.504L40.3782 31.6832C39.7398 35.9123 38.7025 45.7268 48.0384 48.7589C62.7204 53.2273 75.5672 26.8159 81.4719 13.4107L72.934 8.94226C66.3111 22.8262 56.0975 38.1465 52.028 37.1092C47.9586 36.0718 51.6291 23.0656 53.9431 14.6873V14.448L40.9367 9.97957L25.3769 35.3537L27.5314 21.4697L16.2805 17.5599Z" fill="black"></path> </g> <defs> <clipPath id="clip0_458_7419"> <rect width="63.9994" height="64.0009" rx="31.9997" fill="white"></rect> </clipPath> </defs> </svg> 