<svg width="101" height="100" viewBox="0 0 101 100" fill="none" xmlns="http://www.w3.org/2000/svg">
<g clip-path="url(#clip0_1659_2074)">
<path d="M100.5 50C100.5 22.3858 78.1142 0 50.5 0C22.8858 0 0.5 22.3858 0.5 50C0.5 77.6142 22.8858 100 50.5 100C78.1142 100 100.5 77.6142 100.5 50Z" fill="#DCFF00"/>
<path d="M62.0402 54.3418C62.0342 54.3435 62.0289 54.347 62.025 54.352C62.0211 54.3568 62.0187 54.3629 62.0184 54.3691C62.0181 54.3755 62.0197 54.3818 62.0231 54.3871C62.0266 54.3924 62.0314 54.3965 62.0372 54.3987L75.3892 59.2943C75.4305 59.3088 75.4509 59.3385 75.4509 59.383V63.3704C75.4509 63.4016 75.4372 63.4246 75.4098 63.4393C71.7895 65.2923 68.1664 67.1368 64.5402 68.9726C62.5402 69.9856 60.3009 70.4118 58.1509 69.6971C58.1189 69.6865 58.0925 69.6952 58.0716 69.723C56.0725 72.4479 53.898 74.449 50.9225 75.974C47.5003 77.7293 44.0778 79.4829 40.6548 81.2349C40.6203 81.2521 40.5847 81.2545 40.548 81.2418L25.5598 75.9241C25.52 75.9102 25.5 75.8818 25.5 75.8393V71.826C25.5 71.7901 25.5156 71.7641 25.547 71.7482C28.9477 70.0096 32.3461 68.2696 35.7422 66.5282C36.7255 66.0232 37.4686 65.5682 38.2452 64.9195C38.2778 64.8921 38.2742 64.8715 38.2344 64.8576L25.5745 60.3313C25.5413 60.3193 25.5245 60.2954 25.5245 60.2595V56.2781C25.5245 56.2415 25.5413 56.2159 25.5745 56.2012L28.3686 54.9646C28.4275 54.9387 28.4264 54.9151 28.3656 54.8938L25.5991 53.9066C25.5753 53.8984 25.5548 53.8824 25.5403 53.8613C25.5259 53.8401 25.5183 53.8148 25.5186 53.7888L25.5548 50.1479C25.5548 50.1329 25.5591 50.1182 25.5669 50.1056C25.5747 50.0929 25.5858 50.0826 25.5991 50.076C29.2984 48.1737 33.0006 46.2777 36.7059 44.388C37.3248 44.0727 38.1239 43.8168 39.103 43.6205C39.1356 43.6138 39.152 43.5935 39.152 43.5596V43.2243C39.152 43.1798 39.1314 43.1501 39.0902 43.1355L25.598 38.3138C25.5653 38.3018 25.5491 38.2782 25.5491 38.2429V34.607C25.5491 34.5777 25.5617 34.5563 25.5872 34.543C29.267 32.654 32.9484 30.7701 36.6314 28.891C38.4548 27.9609 40.8108 27.6045 42.8794 28.2712C42.9141 28.2824 42.9419 28.2732 42.9628 28.2432C44.7323 25.7162 46.9892 23.6073 49.6695 22.2029C53.1853 20.3618 56.7006 18.5207 60.2156 16.6796C60.2437 16.6649 60.2725 16.6626 60.302 16.6726L75.45 21.9145C75.4833 21.9257 75.5 21.9491 75.5 21.9843V25.8399C75.5 25.8685 75.4877 25.8891 75.4628 25.9018C71.985 27.6777 68.5078 29.4529 65.0314 31.2274C64.1602 31.672 63.3637 32.2096 62.6422 32.8404C62.6069 32.871 62.6111 32.8943 62.6548 32.9102L75.4353 37.4904C75.462 37.5004 75.4755 37.5199 75.4755 37.5493V41.3818C75.4755 41.4098 75.4634 41.4301 75.4392 41.4427L72.9952 42.6973C72.9892 42.7005 72.9844 42.7052 72.9811 42.7112C72.9778 42.717 72.9762 42.7237 72.9766 42.7304C72.9769 42.737 72.9791 42.7434 72.9828 42.7487C72.9867 42.754 72.9919 42.7579 72.998 42.7602L75.4225 43.6505C75.4578 43.663 75.4755 43.6887 75.4755 43.7273V47.8074C75.4755 47.8434 75.4598 47.8693 75.4284 47.8852C72.0197 49.6399 68.5805 51.3446 65.1961 53.1401C64.1908 53.6738 63.1389 54.0743 62.0402 54.3418ZM43.8363 28.6315L57.7598 33.544C57.7781 33.5504 57.7981 33.5505 57.8166 33.5445C57.8352 33.5384 57.8513 33.5263 57.8628 33.5101C59.6069 31.0459 61.852 28.898 64.5225 27.5226C67.7761 25.8473 71.0327 24.1777 74.2922 22.5143C74.2966 22.5123 74.3003 22.509 74.3028 22.5046C74.3053 22.5004 74.3064 22.4955 74.3061 22.4904C74.3058 22.4854 74.3041 22.4805 74.3011 22.4765C74.298 22.4724 74.2939 22.4691 74.2892 22.4674L60.3775 17.6627C60.3486 17.653 60.3169 17.6555 60.2892 17.6696C56.8656 19.4635 53.4408 21.2584 50.0147 23.0543C47.5491 24.3468 45.4372 26.3249 43.8255 28.5965C43.8131 28.6132 43.8167 28.6248 43.8363 28.6315ZM27.1745 34.7905L40.8872 39.5943C40.9048 39.601 40.9219 39.5999 40.9383 39.5913C44.3991 37.818 47.8422 36.0612 51.2677 34.3205C52.2095 33.8427 53.198 33.5048 54.2333 33.3065C54.2378 33.3054 54.2419 33.3029 54.245 33.2993C54.248 33.2957 54.2497 33.2913 54.25 33.2866C54.2505 33.282 54.2492 33.2773 54.2467 33.2732C54.2442 33.2693 54.2406 33.2662 54.2363 33.2646C50.4488 31.9324 46.6575 30.594 42.8628 29.2493C42.2575 29.0351 41.7631 28.9057 41.3794 28.861C39.8617 28.6874 38.1431 29.1365 36.8225 29.8112C33.6036 31.4574 30.388 33.1045 27.1755 34.7527C27.1719 34.7546 27.1689 34.7576 27.1667 34.761C27.1645 34.7645 27.1633 34.7685 27.1633 34.7724C27.1631 34.7765 27.1641 34.7802 27.1661 34.7835C27.1681 34.7866 27.1711 34.7891 27.1745 34.7905ZM74.2186 38.0224L61.8608 33.5929C61.8209 33.579 61.7877 33.5879 61.7608 33.6199L60.3775 35.2577C60.3681 35.2688 60.3628 35.2829 60.3627 35.2977C60.3625 35.3124 60.3673 35.327 60.3764 35.3385C62.397 37.8926 62.5853 41.301 62.1372 44.434C62.1248 44.5218 62.1536 44.5395 62.2236 44.4868C62.9833 43.9179 63.7323 43.4588 64.6422 42.9918C67.8441 41.3476 71.0377 39.7118 74.2225 38.0843C74.2689 38.0602 74.2677 38.0396 74.2186 38.0224ZM26.4559 37.6312C26.4559 37.6407 26.4589 37.6501 26.4642 37.6579C26.4697 37.6659 26.4773 37.6718 26.4863 37.6751L40.3892 42.6465C40.3961 42.649 40.4036 42.6498 40.4109 42.6488C40.4183 42.6479 40.4252 42.6451 40.4312 42.6407C40.4373 42.6365 40.4423 42.6307 40.4458 42.6241C40.4492 42.6174 40.4509 42.6101 40.4509 42.6026V40.4407C40.4511 40.4307 40.4481 40.4212 40.4425 40.413C40.4369 40.4049 40.4288 40.399 40.4195 40.3957L26.5167 35.5241C26.5097 35.5218 26.5023 35.5212 26.495 35.5223C26.4878 35.5234 26.4808 35.5263 26.4748 35.5307C26.4689 35.5351 26.4641 35.5409 26.4608 35.5476C26.4575 35.5541 26.4558 35.5616 26.4559 35.5691V37.6312ZM40.0833 43.6654L53.7805 48.5241C53.8092 48.534 53.8212 48.5237 53.8167 48.4931C53.2344 44.7115 53.9402 40.9607 55.5353 37.5234C55.5503 37.4921 55.5408 37.4718 55.5069 37.4624C54.2677 37.1401 52.8598 37.4834 51.7 38.0702C48.0144 39.9346 44.33 41.8021 40.647 43.6724C40.6177 43.6871 40.5872 43.6895 40.5559 43.6795C40.4159 43.6348 40.2784 43.5846 40.1431 43.5287C40.1117 43.516 40.0869 43.5127 40.0686 43.5187C40.0347 43.5307 40.0242 43.563 40.0372 43.6155C40.0403 43.627 40.0461 43.6374 40.0541 43.646C40.0622 43.6548 40.0722 43.6615 40.0833 43.6654ZM58.0108 39.6591C57.0941 42.1723 56.7216 45.3812 57.8392 47.7974C57.8409 47.801 57.8437 47.804 57.847 47.806C57.8505 47.808 57.8542 47.8091 57.8581 47.809C57.862 47.8088 57.8659 47.8077 57.8691 47.8054C57.8723 47.8032 57.8748 47.8001 57.8764 47.7965C58.8245 45.3343 59.2353 42.0576 58.0931 39.5834C58.0902 39.5762 58.0848 39.5702 58.0781 39.5665C58.0714 39.5629 58.0636 39.5615 58.0561 39.5627C58.0486 39.564 58.0416 39.5677 58.0364 39.5735C58.0312 39.5793 58.0281 39.5865 58.0275 39.5943C58.0261 39.6102 58.0206 39.632 58.0108 39.6591ZM61.1402 50.0441C62.1552 50.0748 63.1347 49.8509 64.0784 49.3724C67.4581 47.661 70.83 45.941 74.1941 44.2124C74.198 44.2104 74.2013 44.2073 74.2034 44.2035C74.2056 44.1996 74.2067 44.1952 74.2066 44.1909C74.2062 44.1863 74.2048 44.1821 74.2023 44.1785C74.1997 44.1749 74.1962 44.1721 74.1922 44.1705L71.8706 43.3162C71.838 43.3041 71.8062 43.3062 71.7755 43.3221C69.6892 44.3887 67.6039 45.4573 65.5197 46.5279C63.75 47.4362 62.3794 48.3963 61.0872 49.9204C61.02 50.0002 61.0377 50.0415 61.1402 50.0441ZM27.1402 50.3724L40.6941 55.1802C40.7198 55.1893 40.747 55.1932 40.7742 55.1915C40.8012 55.1898 40.8278 55.1826 40.852 55.1702C44.3814 53.3598 47.92 51.5585 51.4677 49.7666C51.9023 49.5471 52.3497 49.3577 52.8098 49.1988C52.8152 49.1968 52.8198 49.1932 52.8231 49.1885C52.8266 49.1838 52.8284 49.1782 52.8284 49.1724C52.8286 49.1668 52.827 49.1612 52.8238 49.1566C52.8206 49.1521 52.8161 49.1487 52.8108 49.1468C48.4656 47.6052 44.1159 46.0621 39.7617 44.5177C39.147 44.3002 37.2764 45.1157 36.7039 45.408C33.5189 47.0402 30.3294 48.6721 27.1353 50.3037C27.1288 50.3068 27.1234 50.3118 27.1198 50.3182C27.1162 50.3245 27.1147 50.3318 27.1152 50.3391C27.1156 50.3465 27.1183 50.3535 27.1228 50.3595C27.1272 50.3654 27.1333 50.3699 27.1402 50.3724ZM26.4314 53.199C26.4314 53.2098 26.4347 53.2202 26.4409 53.229C26.447 53.2379 26.4556 53.2445 26.4656 53.2479L40.3587 58.2013C40.3666 58.2041 40.3747 58.2049 40.3827 58.2037C40.3908 58.2026 40.3984 58.1995 40.405 58.1946C40.4116 58.1899 40.417 58.1835 40.4208 58.1762C40.4245 58.1688 40.4264 58.1607 40.4264 58.1524V56.0895C40.4264 56.0787 40.4231 56.0682 40.417 56.0595C40.4108 56.0507 40.4022 56.044 40.3922 56.0406L26.4991 51.113C26.4914 51.1104 26.4831 51.1096 26.4752 51.1107C26.467 51.112 26.4594 51.1151 26.4528 51.1198C26.4463 51.1246 26.4408 51.1309 26.437 51.1382C26.4333 51.1456 26.4314 51.1537 26.4314 51.162V53.199ZM27.1392 56.5496L40.6441 61.3213C40.6705 61.3306 40.6984 61.3343 40.7261 61.3324C40.7539 61.3305 40.7811 61.3231 40.8059 61.3104C43.9275 59.7154 47.0542 58.1152 50.1863 56.5096C52.0275 55.5665 53.5236 54.5784 54.8647 52.9485C54.8694 52.9431 54.8725 52.9362 54.8736 52.929C54.8745 52.9218 54.8734 52.9143 54.8705 52.9077C54.8675 52.901 54.8627 52.8954 54.8566 52.8915C54.8505 52.8876 54.8434 52.8856 54.8362 52.8857C53.3578 52.8596 52.3656 53.2659 50.9186 54.0065C47.5206 55.7431 44.1225 57.4807 40.7264 59.2213C40.6944 59.238 40.6611 59.2404 40.6264 59.2284L29.698 55.3688C29.6566 55.3541 29.6113 55.3563 29.5716 55.3748L27.1362 56.4866C27.0859 56.5099 27.0869 56.5309 27.1392 56.5496ZM57.9853 55.254C57.0677 57.7223 56.7255 60.7604 57.7913 63.3285C57.7941 63.3352 57.7989 63.341 57.8052 63.3451C57.8113 63.3491 57.8184 63.3512 57.8258 63.3512C57.8331 63.351 57.8403 63.3487 57.8462 63.3445C57.8523 63.3402 57.857 63.3343 57.8598 63.3274C58.8186 60.8423 59.1922 57.6884 58.0941 55.1732C58.0905 55.1646 58.0847 55.1571 58.0773 55.1513C58.07 55.1457 58.0613 55.142 58.052 55.1407C58.043 55.1395 58.0336 55.1405 58.025 55.144C58.0164 55.1474 58.0087 55.1529 58.003 55.1602C57.9952 55.1696 57.9916 55.1852 57.9922 55.2071C57.9928 55.2259 57.9905 55.2415 57.9853 55.254ZM60.55 65.5173C62.102 65.7737 63.3686 65.2916 64.7548 64.5821C67.8523 62.9977 70.9464 61.4148 74.0372 59.8332C74.0434 59.8302 74.0487 59.8254 74.0522 59.8195C74.0558 59.8134 74.0573 59.8065 74.057 59.7995C74.0566 59.7924 74.0541 59.7857 74.0498 59.7802C74.0456 59.7746 74.0398 59.7706 74.0333 59.7684L62.2206 55.4348C62.2175 55.4335 62.2141 55.433 62.2108 55.4337C62.2073 55.4341 62.2042 55.4355 62.2016 55.4376C62.1989 55.4398 62.1969 55.4424 62.1955 55.4457C62.1942 55.4488 62.1937 55.4523 62.1941 55.4557C62.5617 58.914 61.9089 62.2924 60.5089 65.4384C60.5052 65.4462 60.5034 65.4548 60.5038 65.4635C60.5039 65.4721 60.5061 65.4805 60.5102 65.4882C60.5141 65.4959 60.5198 65.5026 60.5267 65.5076C60.5336 65.5126 60.5416 65.5159 60.55 65.5173ZM26.4009 59.6346C26.4009 59.6423 26.4033 59.6498 26.4078 59.656C26.4122 59.6623 26.4183 59.6671 26.4255 59.6696L40.3784 64.652C40.3839 64.6538 40.3897 64.6543 40.3955 64.6535C40.4011 64.6527 40.4066 64.6504 40.4112 64.647C40.4159 64.6437 40.4198 64.6391 40.4225 64.6338C40.4252 64.6287 40.4264 64.6229 40.4264 64.617V62.2385C40.4264 62.2309 40.4241 62.2234 40.4197 62.2171C40.4153 62.2109 40.4091 62.2062 40.402 62.2037L26.4686 57.1863C26.4631 57.1845 26.4573 57.1838 26.4516 57.1848C26.4459 57.1856 26.4405 57.1877 26.4358 57.1912C26.4311 57.1946 26.4272 57.1991 26.4245 57.2043C26.422 57.2096 26.4206 57.2154 26.4206 57.2213L26.4009 59.6346ZM52.0128 71.0366C53.3078 70.1912 54.4598 69.0674 55.402 67.8148C55.4228 67.7868 55.4225 67.7588 55.4009 67.731C53.4784 65.2498 53.3383 61.7445 53.7805 58.7593C53.7814 58.7534 53.7808 58.7471 53.7783 58.7416C53.7758 58.736 53.7717 58.7315 53.7667 58.7284C53.7616 58.7252 53.7556 58.7237 53.7497 58.724C53.7437 58.7245 53.738 58.7266 53.7333 58.7304C52.8578 59.3851 52.0422 59.8662 50.9745 60.4121C47.5458 62.1693 44.1156 63.9266 40.6844 65.684C40.6672 65.6924 40.6487 65.6974 40.6298 65.6987C40.6111 65.6998 40.5922 65.6973 40.5745 65.6909L39.3195 65.2468C39.283 65.2341 39.2506 65.2407 39.2225 65.2666C38.3872 66.0305 37.5617 66.6212 36.7461 67.0384C33.5461 68.6771 30.3503 70.3143 27.1587 71.9498C27.1536 71.9524 27.1492 71.9565 27.1464 71.9615C27.1434 71.9666 27.1422 71.9726 27.1425 71.9785C27.143 71.9845 27.1452 71.9902 27.1488 71.9951C27.1523 71.9999 27.1572 72.0035 27.1628 72.0057L40.7569 76.8263C40.7916 76.8384 40.8252 76.836 40.8578 76.8195C44.003 75.2165 47.1473 73.6066 50.2912 71.9898C51.1159 71.5652 51.6898 71.2474 52.0128 71.0366ZM26.4069 75.2235C26.4069 75.2337 26.41 75.2435 26.4159 75.2516C26.4217 75.2599 26.4298 75.266 26.4392 75.2695L40.3383 80.1999C40.3455 80.2024 40.3531 80.2032 40.3606 80.2021C40.3683 80.201 40.3755 80.198 40.3817 80.1935C40.388 80.1891 40.393 80.1832 40.3966 80.1763C40.4 80.1693 40.4019 80.1618 40.402 80.154V77.7027C40.4019 77.6926 40.3987 77.6827 40.393 77.6745C40.3872 77.6663 40.3791 77.6601 40.3697 77.6568L26.4706 72.7273C26.4634 72.7248 26.4556 72.724 26.4481 72.7251C26.4406 72.7262 26.4334 72.7291 26.4272 72.7337C26.4209 72.738 26.4158 72.744 26.4123 72.7509C26.4088 72.7577 26.4069 72.7654 26.4069 72.7732V75.2235Z" fill="black"/>
<path d="M43.8345 28.6318C43.8148 28.6251 43.8112 28.6135 43.8237 28.5968C45.4354 26.3253 47.5471 24.347 50.0129 23.0545C53.439 21.2587 56.8638 19.4639 60.2874 17.6699C60.3151 17.6559 60.3468 17.6534 60.3756 17.6629L74.2874 22.4676C74.2921 22.4695 74.2962 22.4726 74.2992 22.4768C74.3021 22.4809 74.304 22.4857 74.3043 22.4907C74.3046 22.4957 74.3034 22.5007 74.301 22.505C74.2985 22.5092 74.2948 22.5126 74.2902 22.5146C71.0309 24.1781 67.7743 25.8474 64.5207 27.5229C61.8501 28.8982 59.6051 31.046 57.8609 33.5104C57.8495 33.5265 57.8334 33.5385 57.8148 33.5448C57.7962 33.5509 57.7763 33.5507 57.7579 33.5443L43.8345 28.6318Z" fill="#DCFF00"/>
<path d="M40.892 39.5945L27.1792 34.7907C27.1758 34.7893 27.1728 34.7868 27.171 34.7837C27.1689 34.7804 27.1678 34.7767 27.168 34.7726C27.1681 34.7687 27.1692 34.7646 27.1714 34.7612C27.1736 34.7577 27.1767 34.7548 27.1803 34.7529C30.3927 33.1046 33.6083 31.4576 36.8274 29.8113C38.148 29.1367 39.8666 28.6876 41.3842 28.8612C41.7678 28.9059 42.2624 29.0352 42.8675 29.2495C46.6624 30.5942 50.4535 31.9326 54.2411 33.2648C54.2453 33.2663 54.2491 33.2695 54.2516 33.2734C54.2541 33.2774 54.2552 33.2821 54.2549 33.2868C54.2545 33.2915 54.2527 33.296 54.2497 33.2995C54.2467 33.3031 54.2427 33.3056 54.2381 33.3067C53.2028 33.5049 52.2142 33.8429 51.2724 34.3207C47.8469 36.0613 44.4038 37.8182 40.943 39.5915C40.9267 39.6001 40.9097 39.6012 40.892 39.5945Z" fill="#DCFF00"/>
<path d="M74.2192 38.0225C74.2683 38.0398 74.2695 38.0604 74.2231 38.0843C71.0383 39.7118 67.8447 41.3478 64.6428 42.9918C63.733 43.459 62.9839 43.9181 62.2242 44.487C62.1542 44.5395 62.1255 44.522 62.1378 44.434C62.5859 41.3012 62.3977 37.8928 60.377 35.3387C60.368 35.327 60.3631 35.3126 60.3633 35.2978C60.3634 35.2831 60.3688 35.2689 60.3781 35.2578L61.7614 33.62C61.7883 33.5881 61.8216 33.579 61.8614 33.5931L74.2192 38.0225Z" fill="#DCFF00"/>
<path d="M26.457 37.6312V35.5691C26.4569 35.5616 26.4586 35.5543 26.4619 35.5476C26.4653 35.5408 26.47 35.5351 26.4759 35.5307C26.482 35.5263 26.4889 35.5235 26.4961 35.5222C26.5034 35.5212 26.5108 35.5218 26.5178 35.5243L40.4208 40.3958C40.43 40.399 40.438 40.4051 40.4436 40.413C40.4492 40.4212 40.4522 40.4308 40.452 40.4407V42.6026C40.452 42.6101 40.4503 42.6174 40.4469 42.6241C40.4434 42.6308 40.4384 42.6365 40.4324 42.6408C40.4264 42.6451 40.4194 42.6479 40.412 42.6488C40.4047 42.6499 40.3974 42.649 40.3903 42.6465L26.4874 37.6751C26.4786 37.6718 26.4708 37.6658 26.4655 37.658C26.46 37.6501 26.457 37.6407 26.457 37.6312Z" fill="#DCFF00"/>
<path d="M40.0828 43.6656C40.0716 43.6616 40.0616 43.6549 40.0536 43.6463C40.0455 43.6375 40.0397 43.627 40.0367 43.6156C40.0236 43.5631 40.0341 43.5308 40.068 43.5189C40.0864 43.5128 40.1113 43.5163 40.1425 43.5288C40.2778 43.5847 40.4155 43.635 40.5553 43.6795C40.5867 43.6895 40.617 43.6872 40.6464 43.6725C44.3295 41.8022 48.0138 39.9347 51.6994 38.0703C52.8592 37.4834 54.267 37.1402 55.5063 37.4625C55.5403 37.4719 55.5497 37.4922 55.5347 37.5234C53.9395 40.9608 53.2338 44.7116 53.8161 48.4933C53.8206 48.5239 53.8086 48.5342 53.7799 48.5242L40.0828 43.6656Z" fill="#DCFF00"/>
<path d="M58.0105 39.6593C58.0203 39.6319 58.0258 39.6104 58.0272 39.5944C58.0278 39.5866 58.0309 39.5793 58.0361 39.5735C58.0413 39.5679 58.0483 39.564 58.0558 39.5627C58.0633 39.5615 58.0711 39.5629 58.0778 39.5666C58.0845 39.5704 58.0899 39.5763 58.0928 39.5833C59.235 42.0575 58.8242 45.3343 57.8761 47.7965C57.8745 47.8002 57.872 47.8033 57.8688 47.8055C57.8656 47.8077 57.8617 47.809 57.8578 47.8091C57.8539 47.8091 57.8502 47.8082 57.8467 47.8061C57.8435 47.804 57.8406 47.801 57.8389 47.7975C56.7213 45.3811 57.0938 42.1724 58.0105 39.6593Z" fill="#DCFF00"/>
<path d="M61.1399 50.0441C61.0372 50.0415 61.0195 50.0002 61.0869 49.9204C62.3791 48.3963 63.7497 47.4362 65.5192 46.5279C67.6036 45.4573 69.6889 44.3887 71.7752 43.3221C71.8058 43.306 71.8375 43.3041 71.8702 43.316L74.1917 44.1704C74.1958 44.1719 74.1994 44.1748 74.2019 44.1783C74.2045 44.1819 74.206 44.1863 74.2061 44.1907C74.2064 44.1952 74.2053 44.1996 74.2031 44.2033C74.2009 44.2073 74.1977 44.2104 74.1938 44.2123C70.8297 45.941 67.4578 47.661 64.0781 49.3724C63.1342 49.8508 62.1549 50.0746 61.1399 50.0441Z" fill="#DCFF00"/>
<path d="M40.6962 55.1803L27.1423 50.3726C27.1354 50.3699 27.1293 50.3656 27.1249 50.3596C27.1205 50.3537 27.1179 50.3465 27.1173 50.3392C27.1168 50.3318 27.1184 50.3245 27.122 50.3182C27.1256 50.3118 27.1309 50.3068 27.1374 50.3037C30.3315 48.6721 33.521 47.0403 36.706 45.4081C37.2785 45.1157 39.1491 44.3003 39.7638 44.5179C44.1182 46.0621 48.4677 47.6053 52.8129 49.147C52.8182 49.1487 52.8227 49.1521 52.8259 49.1567C52.8291 49.1614 52.8307 49.1668 52.8305 49.1726C52.8305 49.1782 52.8287 49.1839 52.8252 49.1885C52.822 49.1932 52.8173 49.1968 52.812 49.1989C52.3518 49.3579 51.9045 49.5471 51.4698 49.7667C47.9221 51.5585 44.3835 53.3598 40.8541 55.1703C40.8299 55.1826 40.8034 55.1898 40.7763 55.1915C40.7491 55.1932 40.722 55.1895 40.6962 55.1803Z" fill="#DCFF00"/>
<path d="M26.4336 53.1991V51.1621C26.4336 51.1538 26.4355 51.1457 26.4392 51.1383C26.443 51.131 26.4484 51.1247 26.455 51.1199C26.4616 51.1151 26.4692 51.1121 26.4773 51.1108C26.4853 51.1097 26.4934 51.1105 26.5013 51.1132L40.3944 56.0407C40.4044 56.0441 40.413 56.0508 40.4191 56.0596C40.4253 56.0683 40.4286 56.0788 40.4286 56.0896V58.1526C40.4286 58.1608 40.4267 58.169 40.423 58.1763C40.4192 58.1836 40.4137 58.1899 40.4072 58.1947C40.4005 58.1996 40.393 58.2027 40.3848 58.2038C40.3769 58.2051 40.3686 58.2041 40.3609 58.2015L26.4678 53.248C26.4578 53.2446 26.4492 53.2379 26.443 53.2291C26.4369 53.2204 26.4336 53.2099 26.4336 53.1991Z" fill="#DCFF00"/>
<path d="M40.6426 61.3215L27.1376 56.5496C27.0854 56.531 27.0843 56.5101 27.1346 56.4868L29.5699 55.3749C29.6096 55.3563 29.6549 55.3543 29.6965 55.369L40.6249 59.2285C40.6595 59.2404 40.6929 59.2382 40.7249 59.2215C44.1209 57.4808 47.519 55.7432 50.917 54.0066C52.3642 53.266 53.3562 52.8598 54.8346 52.8857C54.8418 52.8857 54.8488 52.8877 54.8549 52.8916C54.861 52.8955 54.8659 52.9012 54.8688 52.9077C54.872 52.9144 54.8729 52.9218 54.872 52.9291C54.8709 52.9363 54.8679 52.943 54.8631 52.9487C53.522 54.5785 52.0259 55.5665 50.1846 56.5097C47.0526 58.1152 43.9259 59.7155 40.8043 61.3104C40.7795 61.323 40.7523 61.3305 40.7246 61.3324C40.6968 61.3343 40.6688 61.3305 40.6426 61.3215Z" fill="#DCFF00"/>
<path d="M57.9898 55.2074C57.9892 55.1854 57.9928 55.1698 58.0006 55.1606C58.0065 55.1532 58.0142 55.1476 58.0228 55.1442C58.0314 55.1407 58.0406 55.1396 58.0498 55.1409C58.0591 55.1423 58.0676 55.1459 58.075 55.1517C58.0823 55.1573 58.0881 55.1648 58.0919 55.1735C59.1898 57.6885 58.8164 60.8424 57.8575 63.3278C57.8548 63.3346 57.8501 63.3406 57.8441 63.3448C57.838 63.349 57.8309 63.3514 57.8236 63.3514C57.8162 63.3515 57.809 63.3495 57.803 63.3454C57.7967 63.3414 57.7919 63.3356 57.7889 63.3287C56.7233 60.7607 57.0655 57.7226 57.983 55.2543C57.9883 55.2417 57.9906 55.226 57.9898 55.2074Z" fill="#DCFF00"/>
<path d="M60.5502 65.5175C60.5418 65.5161 60.5338 65.5128 60.5269 65.5078C60.5199 65.5026 60.5143 65.4961 60.5103 65.4884C60.5063 65.4807 60.5041 65.4723 60.5039 65.4637C60.5036 65.455 60.5053 65.4464 60.5089 65.4386C61.9089 62.2926 62.5619 58.9142 62.1943 55.4559C62.1939 55.4525 62.1944 55.449 62.1957 55.4459C62.1971 55.4426 62.1991 55.44 62.2018 55.4378C62.2044 55.4357 62.2075 55.4343 62.2108 55.4339C62.2143 55.4332 62.2177 55.4337 62.2208 55.435L74.0335 59.7686C74.04 59.7707 74.0458 59.7748 74.05 59.7804C74.0543 59.7859 74.0568 59.7926 74.0572 59.7997C74.0575 59.8067 74.056 59.8136 74.0524 59.8197C74.0489 59.8256 74.0436 59.8304 74.0374 59.8334C70.9466 61.415 67.8525 62.9979 64.755 64.5822C63.3688 65.2918 62.1022 65.7739 60.5502 65.5175Z" fill="#DCFF00"/>
<path d="M26.4023 59.6346L26.422 57.2213C26.422 57.2154 26.4234 57.2096 26.4259 57.2043C26.4286 57.1991 26.4325 57.1946 26.4372 57.1912C26.4419 57.1877 26.4473 57.1855 26.453 57.1848C26.4588 57.1838 26.4645 57.1844 26.47 57.1863L40.4034 62.2037C40.4105 62.2062 40.4167 62.2108 40.4211 62.2171C40.4255 62.2233 40.4278 62.2308 40.4278 62.2385V64.6169C40.4278 64.6229 40.4266 64.6287 40.4239 64.6338C40.4213 64.6391 40.4173 64.6437 40.4127 64.6469C40.408 64.6504 40.4025 64.6527 40.3969 64.6535C40.3911 64.6543 40.3853 64.6538 40.3798 64.6519L26.4269 59.6694C26.4197 59.6671 26.4136 59.6623 26.4091 59.656C26.4047 59.6498 26.4023 59.6423 26.4023 59.6346Z" fill="#DCFF00"/>
<path d="M55.4 67.8149C54.458 69.0674 53.306 70.1914 52.0108 71.0367C51.688 71.2476 51.1141 71.5654 50.2893 71.9899C47.1455 73.6068 44.0011 75.2167 40.856 76.8195C40.8233 76.8362 40.7897 76.8385 40.755 76.8265L27.1608 72.0059C27.1554 72.0037 27.1505 71.9999 27.1469 71.9951C27.1433 71.9903 27.1411 71.9846 27.1407 71.9785C27.1404 71.9726 27.1416 71.9668 27.1446 71.9617C27.1474 71.9565 27.1518 71.9524 27.1569 71.9499C30.3485 70.3145 33.5443 68.6773 36.7443 67.0384C37.5599 66.6212 38.3854 66.0307 39.2207 65.2668C39.2488 65.2409 39.2811 65.2343 39.3177 65.2468L40.5727 65.691C40.5904 65.6973 40.6091 65.6999 40.628 65.6987C40.6469 65.6976 40.6654 65.6926 40.6824 65.684C44.1138 63.9268 47.544 62.1695 50.9727 60.4123C52.0404 59.8663 52.856 59.3853 53.7315 58.7304C53.7361 58.7267 53.7419 58.7245 53.7479 58.7242C53.7538 58.7239 53.7597 58.7253 53.7649 58.7284C53.7699 58.7315 53.774 58.7362 53.7765 58.7418C53.7788 58.7473 53.7796 58.7534 53.7785 58.7595C53.3365 61.7446 53.4766 65.2499 55.3991 67.731C55.4207 67.759 55.421 67.787 55.4 67.8149Z" fill="#DCFF00"/>
<path d="M26.4102 75.2235V72.7732C26.4103 72.7656 26.4122 72.7579 26.4156 72.7509C26.4192 72.744 26.4242 72.7381 26.4305 72.7337C26.4367 72.7291 26.4439 72.7262 26.4514 72.7251C26.4591 72.724 26.4667 72.7248 26.4739 72.7273L40.373 77.6568C40.3823 77.6601 40.3905 77.6663 40.3962 77.6745C40.402 77.6827 40.4053 77.6926 40.4053 77.7027V80.154C40.4053 80.1618 40.4034 80.1695 40.3998 80.1763C40.3964 80.1832 40.3912 80.1891 40.385 80.1935C40.3787 80.1981 40.3716 80.201 40.3641 80.2021C40.3566 80.2032 40.3487 80.2024 40.3416 80.1999L26.4425 75.2695C26.4331 75.2662 26.425 75.2599 26.4192 75.2516C26.4134 75.2435 26.4103 75.2337 26.4102 75.2235Z" fill="#DCFF00"/>
</g>
<defs>
<clipPath id="clip0_1659_2074">
<rect width="100" height="100" fill="white" transform="translate(0.5)"/>
</clipPath>
</defs>
</svg>
