<svg width="100" height="100" viewBox="0 0 100 100" fill="none" xmlns="http://www.w3.org/2000/svg">
<g clip-path="url(#clip0_1659_2104)">
<path d="M100 0H0V100H100V0Z" fill="#0921FF"/>
<mask id="mask0_1659_2104" style="mask-type:luminance" maskUnits="userSpaceOnUse" x="-1" y="0" width="101" height="100">
<path d="M99.9961 0H-0.00390625V100H99.9961V0Z" fill="white"/>
</mask>
<g mask="url(#mask0_1659_2104)">
<path fill-rule="evenodd" clip-rule="evenodd" d="M126.98 40.8617C120.978 40.2826 115.737 39.4775 109.113 39.4775H109.085C97.7855 39.4917 91.1471 41.4691 79.4804 41.4691H79.438C67.3053 41.4691 60.3137 39.4775 49.7911 39.4775H49.7629C38.4635 39.4917 31.825 41.4691 20.1584 41.4691H20.0877C7.94086 41.4691 0.949328 39.4775 -9.57327 39.4775H-9.60152C-16.6637 39.4775 -21.706 40.2544 -27.4688 40.8335V59.986C-21.7625 59.4069 -16.5648 58.6442 -9.60152 58.6442H-9.57327C0.949328 58.6442 7.94086 60.6357 20.0877 60.6357H20.1584C31.825 60.6357 38.4776 58.6583 49.7629 58.6442H49.7911C60.3137 58.6442 67.3053 60.6357 79.438 60.6357H79.4804C91.1471 60.6357 97.7855 58.6583 109.085 58.6442H109.113C115.752 58.6442 120.978 59.4352 126.98 60.0284V40.8617Z" fill="white"/>
<path fill-rule="evenodd" clip-rule="evenodd" d="M24.2558 47.0341L24.171 47.0906L25.188 48.4324L25.2727 48.3618C25.8518 47.8816 26.8405 47.5567 28.3094 47.5567C30.3433 47.5567 31.4592 48.1782 31.8264 48.9692H28.2247V50.4805H31.6993C31.2332 51.1584 30.1456 51.6669 28.3236 51.6669C26.8546 51.6669 25.8659 51.3421 25.2868 50.8618L25.2021 50.7912L24.1851 52.1471L24.2699 52.2036C25.1738 52.811 26.5156 53.1782 28.3094 53.1782C30.1032 53.1782 31.5298 52.7827 32.4479 52.1471C33.3659 51.4974 33.8038 50.6076 33.8038 49.6189C33.8038 48.6302 33.3518 47.7404 32.4479 47.0906C31.5439 46.455 30.1738 46.0596 28.3236 46.0596C26.4592 46.0596 25.1738 46.4268 24.2558 47.0341ZM11.332 52.8675L11.3603 52.7545C11.9253 50.5935 12.6738 48.9974 13.6484 47.9381C14.623 46.8788 15.8236 46.3562 17.2784 46.3562C18.7332 46.3562 19.9337 46.8647 20.9083 47.9381C21.8829 48.9974 22.6315 50.5935 23.1964 52.7545L23.2247 52.8675H21.3744L21.3603 52.7969C20.7671 50.7065 20.0608 49.5341 19.3546 48.8844C18.6484 48.2347 17.9281 48.1076 17.2784 48.1076C16.6286 48.1076 15.9083 48.2488 15.2021 48.8844C14.4959 49.5341 13.7897 50.7065 13.1964 52.7969L13.1823 52.8675H11.332ZM65.7812 52.8675L65.8094 52.7545C66.3744 50.5935 67.123 48.9974 68.0976 47.9381C69.0721 46.8788 70.2727 46.3562 71.7275 46.3562C73.1823 46.3562 74.3829 46.8647 75.3575 47.9381C76.332 48.9974 77.0806 50.5935 77.6456 52.7545L77.6738 52.8675H75.8518L75.8377 52.7969C75.2445 50.7065 74.5382 49.5341 73.832 48.8844C73.1258 48.2347 72.4055 48.1076 71.7558 48.1076C71.106 48.1076 70.3857 48.2488 69.6795 48.8844C68.9733 49.5341 68.2671 50.7065 67.6738 52.7969L67.6597 52.8675H65.7812ZM34.2699 47.8534V46.3421H43.9027V47.8534H40.0043V52.8675H38.1682V47.8534H34.2699ZM62.8292 48.9833C62.8151 48.7149 62.7727 48.5172 62.7021 48.3618C62.6173 48.1923 62.5044 48.0935 62.3772 48.0087C62.236 47.9381 62.0665 47.8957 61.8829 47.8816C61.6993 47.8675 61.4874 47.8675 61.2897 47.8675H55.8518V46.3703H61.3885C61.7699 46.3703 62.1512 46.3703 62.5185 46.4127C62.914 46.4551 63.2812 46.5398 63.606 46.7093C63.9309 46.8788 64.1993 47.1471 64.397 47.5285C64.5806 47.9099 64.6936 48.4183 64.6936 49.0822V52.8816H58.4224C57.6032 52.8816 56.7699 52.8816 56.1343 52.6415C55.8094 52.5144 55.5411 52.3308 55.3433 52.0624C55.1456 51.7799 55.0467 51.4127 55.0467 50.9325C55.0467 50.4522 55.1597 50.085 55.3433 49.8025C55.5411 49.52 55.8094 49.3364 56.1343 49.2234C56.7699 48.9833 57.6032 48.9833 58.4224 48.9833H62.8292ZM58.4083 51.3703H62.8292V50.4946H58.4083C57.9987 50.4946 57.5891 50.4946 57.2925 50.5652C57.1512 50.5935 57.0382 50.65 56.9676 50.7065C56.897 50.763 56.8546 50.8336 56.8546 50.9466C56.8546 51.0596 56.897 51.1302 56.9676 51.1867C57.0382 51.2432 57.1512 51.2997 57.2925 51.3279C57.5891 51.3703 57.9846 51.3703 58.4083 51.3703ZM84.9761 48.9833H80.6541V46.3562H78.8179V52.8675H85.0891C85.9083 52.8675 86.7416 52.8675 87.3772 52.6274C87.7021 52.5002 87.9704 52.3166 88.1682 52.0483C88.3659 51.7658 88.4648 51.3986 88.4648 50.9183C88.4648 50.4381 88.3518 50.0709 88.1682 49.7884C87.9704 49.5059 87.7021 49.3223 87.3772 49.2093C86.7416 48.9692 85.9083 48.9692 85.0891 48.9692L84.9761 48.9833ZM85.075 51.3703H80.6541V50.4946H85.075C85.4987 50.4946 85.8942 50.4946 86.1908 50.5652C86.332 50.5935 86.445 50.65 86.5298 50.7065C86.6004 50.763 86.6428 50.8336 86.6428 50.9466C86.6428 51.0596 86.6004 51.1302 86.5298 51.1867C86.4591 51.2432 86.3462 51.2997 86.1908 51.3279C85.8801 51.3703 85.4846 51.3703 85.075 51.3703ZM44.962 46.3562L48.7614 52.0906L46.6428 55.2969H48.832L54.7642 46.3562H52.575L49.8066 50.5228L47.0382 46.3562H44.962Z" fill="#0921FF"/>
<path d="M126.98 40.0002C125.596 39.8589 124.254 39.7177 122.927 39.5765C118.449 39.0821 114.226 38.6301 109.099 38.6301H109.071C103.435 38.6301 98.8589 39.1386 94.4522 39.6188C89.9606 40.1132 85.3137 40.6217 79.4663 40.6217H79.4239C73.181 40.6217 68.3081 40.0849 63.6047 39.5765C59.1273 39.0821 54.9041 38.6301 49.777 38.6301H49.7488C44.1132 38.6301 39.551 39.1386 35.1301 39.6188C30.6386 40.1132 25.9917 40.6217 20.1442 40.6217H20.0736C13.8307 40.6217 8.95781 40.0849 4.24029 39.5765C-0.237109 39.0821 -4.46027 38.6301 -9.57327 38.6301H-9.60152C-15.2371 38.6301 -19.7993 39.1386 -24.2202 39.6188C-25.2936 39.7318 -26.3671 39.8589 -27.4688 39.9719V41.7375C-26.2964 41.6245 -25.1665 41.4974 -24.0224 41.3702C-19.4462 40.8618 -15.1382 40.3957 -9.58739 40.3957H-9.55914C-4.53089 40.3957 -0.350103 40.8476 4.0708 41.3279C8.83069 41.8505 13.7601 42.3872 20.1019 42.3872H20.1725C26.1188 42.3872 30.8081 41.8787 35.3561 41.3702C39.9324 40.8618 44.2403 40.3957 49.7911 40.3957H49.8194C54.8476 40.3957 59.0284 40.8476 63.4493 41.3279C68.2092 41.8505 73.1245 42.3872 79.4663 42.3872H79.5087C85.455 42.3872 90.1443 41.8787 94.6782 41.3702C99.2544 40.8618 103.562 40.3957 109.113 40.3957H109.141C114.17 40.3957 118.35 40.8476 122.771 41.3279C124.156 41.4832 125.568 41.6386 127.009 41.7798V40.0002H126.98Z" fill="#EBC263"/>
<path d="M126.98 59.1811C125.596 59.0399 124.254 58.8986 122.927 58.7574C118.449 58.263 114.226 57.811 109.099 57.811H109.071C103.435 57.811 98.8589 58.3195 94.4522 58.7997C89.9606 59.2941 85.3137 59.8026 79.4663 59.8026H79.4239C73.181 59.8026 68.3081 59.2658 63.6047 58.7574C59.1273 58.263 54.9041 57.811 49.777 57.811H49.7488C44.1132 57.811 39.551 58.3195 35.1301 58.7997C30.6386 59.2941 25.9917 59.8026 20.1442 59.8026H20.0736C13.8307 59.8026 8.95781 59.2658 4.24029 58.7574C-0.237109 58.263 -4.46027 57.811 -9.57327 57.811H-9.60152C-15.2371 57.811 -19.7993 58.3195 -24.2202 58.7997C-25.2936 58.9127 -26.3671 59.0398 -27.4688 59.1528V60.9184C-26.2964 60.8054 -25.1665 60.6783 -24.0224 60.5512C-19.4462 60.0427 -15.1382 59.5766 -9.58739 59.5766H-9.55914C-4.53089 59.5766 -0.350103 60.0286 4.0708 60.5088C8.83069 61.0314 13.7601 61.5681 20.1019 61.5681H20.1725C26.1188 61.5681 30.8081 61.0596 35.3561 60.5512C39.9324 60.0427 44.2403 59.5766 49.7911 59.5766H49.8194C54.8476 59.5766 59.0284 60.0286 63.4493 60.5088C68.2092 61.0314 73.1245 61.5681 79.4663 61.5681H79.5087C85.455 61.5681 90.1443 61.0596 94.6782 60.5512C99.2544 60.0427 103.562 59.5766 109.113 59.5766H109.141C114.17 59.5766 118.35 60.0286 122.771 60.5088C124.156 60.6641 125.568 60.8195 127.009 60.9608V59.1811H126.98Z" fill="#EBC263"/>
</g>
</g>
<defs>
<clipPath id="clip0_1659_2104">
<rect width="100" height="100" rx="50" fill="white"/>
</clipPath>
</defs>
</svg>
