<svg width="100" height="100" viewBox="0 0 100 100" fill="none" xmlns="http://www.w3.org/2000/svg">
<g clip-path="url(#clip0_1659_2100)">
<path d="M100 50C100 22.3858 77.6142 0 50 0C22.3858 0 0 22.3858 0 50C0 77.6142 22.3858 100 50 100C77.6142 100 100 77.6142 100 50Z" fill="#09080A"/>
<path d="M16.2227 44.4954H18.5181L22.5091 54.2401H22.6559L26.6469 44.4954H28.9422V57.0313H27.1427V47.9599H27.0262L23.3292 57.0129H21.8356L18.1386 47.9538H18.0223V57.0313H16.2227V44.4954ZM32.4062 57.0313H30.3986L34.9098 44.4954H37.095L41.6062 57.0313H39.5984L36.0544 46.7724H35.9564L32.4062 57.0313ZM32.743 52.1222H39.2558V53.7136H32.743V52.1222ZM43.0717 57.0313V44.4954H47.5402C48.5113 44.4954 49.3172 44.6627 49.958 44.9974C50.6027 45.3319 51.0842 45.795 51.4025 46.3868C51.7208 46.9744 51.8798 47.654 51.8798 48.4252C51.8798 49.1922 51.7187 49.8677 51.3964 50.4511C51.0781 51.0307 50.5966 51.4816 49.9517 51.804C49.3111 52.1263 48.5052 52.2876 47.5341 52.2876H44.1491V50.6593H47.3627C47.9747 50.6593 48.4725 50.5716 48.8561 50.3961C49.2437 50.2207 49.5273 49.9655 49.7069 49.631C49.8866 49.2963 49.9762 48.8944 49.9762 48.4252C49.9762 47.9518 49.8845 47.5416 49.7008 47.1947C49.5212 46.848 49.2377 46.5827 48.85 46.3991C48.4664 46.2113 47.9625 46.1175 47.3381 46.1175H44.9631V57.0313H43.0717ZM49.2602 51.3755L52.3573 57.0313H50.2028L47.1667 51.3755H49.2602ZM53.8367 57.0313V44.4954H55.7281V50.4818H55.8811L61.1391 44.4954H63.5202L58.4642 50.139L63.5386 57.0313H61.2616L57.2094 51.4305L55.7281 53.1322V57.0313H53.8367ZM64.9383 57.0313V44.4954H72.7977V46.1236H66.8297V49.9432H72.3877V51.5652H66.8297V55.4032H72.8711V57.0313H64.9383ZM74.3612 46.1236V44.4954H84.063V46.1236H80.1517V57.0313H78.2664V46.1236H74.3612Z" fill="white"/>
</g>
<defs>
<clipPath id="clip0_1659_2100">
<rect width="100" height="100" fill="white"/>
</clipPath>
</defs>
</svg>
