<svg width="100" height="100" viewBox="0 0 100 100" fill="none" xmlns="http://www.w3.org/2000/svg">
<g clip-path="url(#clip0_1659_2053)">
<path d="M100 50.0007C100 22.3865 77.6142 0.000732422 50 0.000732422C22.3858 0.000732422 0 22.3865 0 50.0007C0 77.615 22.3858 100.001 50 100.001C77.6142 100.001 100 77.615 100 50.0007Z" fill="#005BFF"/>
<path d="M44.3403 52.5179H38.4103L45.9809 42.7808C46.1459 42.5671 46.1002 42.2552 45.8802 42.0949C45.7977 42.0325 45.6877 41.9969 45.5777 41.9969H34.625C33.6627 41.9969 32.8744 42.763 32.8744 43.6985C32.8744 44.6338 33.6627 45.3999 34.625 45.3999H39.5469L31.9486 55.146C31.7745 55.3597 31.8203 55.6625 32.0403 55.8319C32.132 55.9032 32.2419 55.9388 32.3519 55.9299H44.3312C45.2936 55.8854 46.0359 55.0836 45.9902 54.1393C45.9442 53.2661 45.2294 52.5713 44.3312 52.5268V52.5179H44.3403ZM82.6153 41.9969C81.6528 41.9969 80.8647 42.763 80.8647 43.6985V49.4088L71.4059 42.1127C71.1952 41.9435 70.8744 41.9702 70.7002 42.184C70.6269 42.273 70.5902 42.3799 70.5902 42.4958V54.2283C70.5902 55.1638 71.3784 55.9299 72.3408 55.9299C73.3031 55.9299 74.0914 55.1727 74.0914 54.2283V48.518L83.5502 55.823C83.7702 55.9922 84.0909 55.9566 84.265 55.7429C84.3383 55.6536 84.375 55.5468 84.375 55.4399V43.6985C84.3658 42.7541 83.5867 41.9969 82.6153 41.9969ZM57.5844 52.8386C53.5791 52.8386 50.5912 50.7896 50.5912 48.9544C50.5912 47.1193 53.5883 45.0704 57.5844 45.0704C61.5897 45.0704 64.5777 47.1193 64.5777 48.9544C64.5777 50.7896 61.5989 52.8386 57.5844 52.8386ZM57.5844 41.6672C51.7919 41.6672 47.09 44.9279 47.09 48.9544C47.09 52.9811 51.7919 56.2416 57.5844 56.2416C63.377 56.2416 68.0789 52.9811 68.0789 48.9544C68.0789 44.9279 63.377 41.6672 57.5844 41.6672ZM23.1316 52.8475C20.9227 52.8475 19.1262 51.1104 19.1262 48.9633C19.1262 46.8165 20.9134 45.0704 23.1223 45.0704C25.3312 45.0704 27.1277 46.8075 27.1277 48.9544V48.9633C27.1277 51.1015 25.3403 52.8386 23.1316 52.8475ZM23.1316 41.6672C18.9888 41.6672 15.6342 44.9279 15.625 48.9544C15.625 52.9811 18.9795 56.2416 23.1223 56.2505C27.2652 56.2505 30.6197 52.99 30.6289 48.9633V48.9544C30.6197 44.9279 27.2652 41.6672 23.1316 41.6672Z" fill="white"/>
</g>
<defs>
<clipPath id="clip0_1659_2053">
<rect width="100" height="100" fill="white"/>
</clipPath>
</defs>
</svg>
