<svg width="100" height="100" viewBox="0 0 100 100" fill="none" xmlns="http://www.w3.org/2000/svg">
<g clip-path="url(#clip0_1659_2050)">
<path d="M100 50.0007C100 22.3865 77.6142 0.000732422 50 0.000732422C22.3858 0.000732422 0 22.3865 0 50.0007C0 77.615 22.3858 100.001 50 100.001C77.6142 100.001 100 77.615 100 50.0007Z" fill="#BF11A6"/>
<path d="M14.0555 54.1991L11.7188 45.4689H13.2516L15.0473 52.1738L16.9716 45.4683L18.4005 45.4689L20.3314 52.2095L22.1352 45.4706L23.668 45.4683L21.3298 54.1973L19.553 54.1955L17.6869 47.6759L15.818 54.197L14.0555 54.1991ZM24.7252 45.4734H26.1842V54.1928H24.7252V45.4734ZM29.3042 52.8255H32.8564V54.1933H27.875V45.4734H29.3042V52.8255ZM37.3448 45.4834C38.5425 45.4834 39.5388 45.9058 40.3238 46.7408C41.1188 47.5755 41.5206 48.6113 41.5206 49.8384C41.5206 51.0552 41.1184 52.0913 40.3231 52.9359C39.5384 53.7706 38.542 54.1933 37.3445 54.1933H33.9133V45.4734H37.3448V45.4834ZM37.3448 52.8355C38.1702 52.8355 38.8442 52.5539 39.3477 51.9908C39.8708 51.4277 40.1323 50.7031 40.1323 49.8484C40.1323 48.9733 39.8708 48.2695 39.3477 47.7061C38.8341 47.1428 38.16 46.8612 37.3448 46.8612H35.3523V52.8355H37.3448ZM49.2197 51.7023C49.2197 52.4169 48.9683 53.0103 48.455 53.4833C47.9417 53.9563 47.3378 54.1978 46.5933 54.1978H42.8595V45.4734H46.3216C47.0361 45.4734 47.6397 45.715 48.1328 46.1675C48.6363 46.6305 48.8777 47.2044 48.8777 47.8884C48.8777 48.6533 48.5756 49.2367 47.9922 49.6697C48.7569 50.072 49.2197 50.7966 49.2197 51.7023ZM44.2986 46.8219V49.1161H46.3314C46.9656 49.1161 47.4486 48.6128 47.4486 47.9689C47.4486 47.3248 46.9656 46.8219 46.3314 46.8219H44.2986ZM46.6031 52.8494C47.2673 52.8494 47.7908 52.3159 47.7908 51.6319C47.7908 50.9475 47.2673 50.4141 46.6031 50.4141H44.2986V52.8594H46.6031V52.8494ZM52.0072 52.8294H55.8717V54.1978H50.5784V45.4734H55.8114V46.8419H52.0072V49.1061H55.4994V50.4645H52.0072V52.8294ZM62.1313 54.1978L60.2795 51.018H58.5888V54.1978H57.1598V45.4734H60.6517C61.4369 45.4734 62.1011 45.745 62.6344 46.2984C63.1777 46.8319 63.4597 47.4959 63.4597 48.2808C63.4597 49.3877 62.7652 50.4041 61.7288 50.8066L63.7111 54.1978H62.1313ZM58.5888 46.8219V49.7402H60.6419C61.4066 49.7402 62.0105 49.0958 62.0105 48.2808C62.0105 47.4759 61.3967 46.8219 60.6419 46.8219H58.5888ZM69.7694 54.1978L67.9278 51.0164H66.237V54.1978H64.8081V45.4689H68.3C69.0852 45.4689 69.7494 45.7405 70.2827 46.2947C70.8259 46.828 71.108 47.4927 71.108 48.278C71.108 49.3855 70.4134 50.4022 69.377 50.805L71.3594 54.1978H69.7694ZM66.237 46.818V49.7378H68.2902C69.0548 49.7378 69.6588 49.0933 69.6588 48.278C69.6588 47.4723 69.0448 46.818 68.2902 46.818H66.237ZM72.4059 45.47H73.8352V54.1978H72.4059V45.47ZM76.9548 52.8294H80.8192V54.1978H75.5256V45.4734H80.7586V46.8419H76.9548V49.1061H80.4467V50.4645H76.9548V52.8294ZM81.8155 52.2119L83.0533 51.4877C83.4055 52.4737 84.12 52.9561 85.2169 52.9561C86.3038 52.9561 86.837 52.4937 86.837 51.8097C86.837 51.4477 86.6863 51.1858 86.4045 51.0047C86.1225 50.8141 85.5994 50.6027 84.8547 50.3814C84.0192 50.13 83.6067 49.9689 83.023 49.5869C82.4597 49.1847 82.1777 48.6112 82.1777 47.8269C82.1777 47.0523 82.4494 46.4491 83.003 45.9966C83.5466 45.5336 84.2106 45.3125 84.9856 45.3125C86.3844 45.3125 87.4611 46.0366 88.0247 47.2334L86.817 47.9275C86.4545 47.1228 85.8408 46.7103 84.9856 46.7103C84.15 46.7103 83.6167 47.1328 83.6167 47.7966C83.6167 48.4405 84.0394 48.7422 85.378 49.1544C85.71 49.2652 85.9516 49.3456 86.1023 49.4058C86.2634 49.4562 86.4747 49.5467 86.7466 49.6573C87.0284 49.7678 87.2498 49.8988 87.3806 50.0094C87.8436 50.3714 88.3364 50.9647 88.2761 51.7997C88.2761 52.5839 87.9945 53.2175 87.4209 53.6802C86.8572 54.1431 86.1127 54.3642 85.1869 54.3642C83.4961 54.3542 82.2683 53.5495 81.8155 52.2119Z" fill="white"/>
</g>
<defs>
<clipPath id="clip0_1659_2050">
<rect width="100" height="100" fill="white"/>
</clipPath>
</defs>
</svg>
