<svg width="100" height="100" viewBox="0 0 100 100" fill="none" xmlns="http://www.w3.org/2000/svg">
<g clip-path="url(#clip0_1659_2092)">
<mask id="mask0_1659_2092" style="mask-type:luminance" maskUnits="userSpaceOnUse" x="0" y="0" width="100" height="101">
<path d="M99.9991 49.9995C99.9991 22.3856 77.6135 0 49.9995 0C22.3856 0 0 22.3856 0 49.9995V50.0019C0 77.6159 22.3856 100.001 49.9995 100.001C77.6135 100.001 99.9991 77.6159 99.9991 50.0019V49.9995Z" fill="white"/>
</mask>
<g mask="url(#mask0_1659_2092)">
<path d="M100.003 49.9995C100.003 22.3856 77.6174 0 50.0034 0C22.3895 0 0.00390625 22.3856 0.00390625 49.9995V50.0019C0.00390625 77.6159 22.3895 100.001 50.0034 100.001C77.6174 100.001 100.003 77.6159 100.003 50.0019V49.9995Z" fill="#FED42B"/>
<path d="M50.0017 99.9905C77.6802 99.9905 99.9973 77.6734 99.9973 49.9952C99.9973 22.317 77.6802 0 50.0017 0C22.3233 0 0.00594196 22.317 0.00594196 49.9952C-0.243414 77.6734 22.448 99.9905 50.0017 99.9905Z" fill="#FED42B"/>
<path d="M25.4409 27.4372L-18.5703 85.0377L-6.85064 98.3782L25.8148 55.1154L22.4486 78.8039L40.7763 85.1624L63.0936 49.5049C62.0961 56.1129 60.4753 71.448 75.0627 76.1857C98.0033 83.1675 118.076 41.8997 127.302 20.9541L113.962 13.9722C103.614 35.6658 87.655 59.6038 81.2964 57.983C74.938 56.3621 80.6731 36.0399 84.2888 22.9488V22.5749L63.9662 15.593L39.6541 55.24L43.0205 33.5463L25.4409 27.4372Z" fill="black"/>
</g>
</g>
<defs>
<clipPath id="clip0_1659_2092">
<rect width="100" height="100" fill="white"/>
</clipPath>
</defs>
</svg>
